<svg width="344" height="186" viewBox="0 0 344 186" fill="none" xmlns="http://www.w3.org/2000/svg">
<path d="M25.5 129.487C25.7488 125.506 32.7802 118.697 35.8856 116.409C40.7742 112.807 43.2872 107.164 47.4678 102.903C60.5728 89.5462 74.7165 76.5353 89.8222 65.5493C97.6052 59.8889 105.019 53.6232 113.029 48.2828C120.497 43.3041 128.399 39.3145 136.066 34.8628C144.649 29.8787 156.515 28.3074 166.111 26.9988C170.827 26.3557 174.278 24.8912 176.112 29.4776C178.291 34.9245 172.221 42.9433 169.018 46.6587C164.268 52.1686 158.077 56.2685 153.375 61.7883C147.699 68.4514 141.044 74.9346 134.356 80.5935C129.226 84.9341 125.129 90.2715 120.509 95.2102C111.977 104.33 106.069 115.394 97.8144 124.828C89.0147 134.885 81.809 146.984 77.0432 159.319C76.1303 161.682 77.4384 153.001 81.9706 153.001C85.1667 153.001 88.0877 152.547 91.1168 151.42C100.209 148.036 104.91 161.81 113.884 158.122C125.527 153.337 138.664 148.628 148.246 140.214C155.063 134.229 163.251 129.018 170.898 124.102C180.211 118.115 194.736 96.29 204.632 91.2855C212.582 87.2648 220.39 83.1264 228.865 80.3016C246.574 74.3985 264.78 71.2925 282.844 66.7533C285.086 66.19 306.091 62.5598 306.179 65.6421C306.996 94.239 277.02 102.811 257.371 115.818C249.244 121.198 242.019 128.225 234.25 134.11C231.163 136.448 228.924 139.427 225.916 141.889C224.017 143.442 222.681 145.07 222.368 147.573C221.793 152.177 222.851 153.001 227.454 153.001C246.875 153.001 266.422 147.812 285.707 145.735C292.081 145.049 295.228 143.089 300.965 140.692C305.2 138.923 315.121 139.203 317.719 135.307" stroke="#FFF9C5" stroke-width="51" stroke-linecap="round"/>
</svg>
