<svg width="90" height="31" viewBox="0 0 90 31" fill="none" xmlns="http://www.w3.org/2000/svg">
<path d="M0.849266 20.9972C0.748217 20.7379 0.66611 20.4072 0.60295 20.0052C0.539794 19.5903 0.501899 19.1559 0.489268 18.702C0.489268 18.2482 0.501899 17.8202 0.527163 17.4183C0.565058 17.0033 0.628215 16.6662 0.716634 16.4068C1.00716 16.3031 1.27243 16.0956 1.51242 15.7844C1.75243 15.4732 1.87242 14.9998 1.87242 14.3645C1.87242 13.6772 1.8219 13.178 1.72084 12.8667C1.6198 12.5555 1.48085 12.3545 1.304 12.2638C1.13979 12.16 0.944003 12.1016 0.716634 12.0887C0.60295 11.8682 0.520847 11.557 0.470321 11.1551C0.419794 10.7531 0.394531 10.3187 0.394531 9.85184C0.407163 9.37207 0.445057 8.91819 0.508215 8.49027C0.571373 8.0494 0.66611 7.68628 0.792424 7.40102C2.48506 7.29726 4.1019 7.1676 5.64295 7.012C7.18402 6.84344 8.7756 6.66188 10.4177 6.46737C10.5314 6.83043 10.6135 7.21301 10.664 7.61498C10.7272 8.004 10.7587 8.36706 10.7587 8.70423C10.7587 9.31371 10.6956 9.87129 10.5693 10.377C10.4556 10.8698 10.3356 11.369 10.2093 11.8747C10.083 12.3675 10.0198 12.9186 10.0198 13.5281C10.0198 14.4877 10.1398 15.1814 10.3798 15.6093C10.6324 16.0373 10.8977 16.3031 11.1756 16.4068C11.2893 16.8088 11.3587 17.3081 11.384 17.9045C11.4093 18.4881 11.3903 19.0651 11.3272 19.6357C11.2767 20.1933 11.1819 20.6471 11.0429 20.9972C10.6893 20.9583 10.2282 20.9129 9.65979 20.8611C9.10398 20.8222 8.49139 20.7833 7.8219 20.7444C7.1524 20.7184 6.47663 20.7055 5.79453 20.7055C5.18821 20.7055 4.56927 20.7184 3.93769 20.7444C3.31874 20.7833 2.73769 20.8222 2.19453 20.8611C1.65137 20.9129 1.20295 20.9583 0.849266 20.9972ZM21.098 23.0785C19.3548 23.0785 17.8642 22.9294 16.6264 22.6311C15.4011 22.3329 14.46 21.8531 13.8032 21.1918C13.159 20.5304 12.8369 19.6551 12.8369 18.5659C12.8369 17.4377 13.178 16.5819 13.8601 15.9983C14.5548 15.4148 15.54 15.1231 16.8159 15.1231C18.079 15.1231 18.9948 15.363 19.5632 15.8427C20.1443 16.3225 20.5169 16.9903 20.6811 17.8462L21.2306 17.7684C21.1042 17.133 20.9337 16.6532 20.719 16.329C20.5169 16.0049 20.3148 15.752 20.1127 15.5704V14.0727L20.8327 14.0533V13.0029H19.8285V14.5784C18.7043 14.6303 17.599 14.6757 16.5127 14.7146C15.439 14.7405 14.2832 14.7275 13.0453 14.6757C12.9443 13.7161 12.8748 12.7565 12.8369 11.7969C12.8116 10.8244 12.8242 9.9167 12.8748 9.0738C12.9253 8.21796 13.0137 7.47882 13.1401 6.85639C13.5063 6.85639 13.9548 6.86289 14.4853 6.87584C15.0159 6.88879 15.5779 6.90824 16.1716 6.93419C16.778 6.94714 17.3653 6.96015 17.9338 6.97309C18.5022 6.98604 19.0074 6.99905 19.4495 7.012C19.2348 7.28431 19.0643 7.63443 18.938 8.06235C18.8243 8.49027 18.8243 8.90525 18.938 9.30721C19.1022 8.59403 19.4306 8.03639 19.9232 7.63443C20.4159 7.21945 21.0411 6.92769 21.799 6.75913C22.5695 6.59058 23.4285 6.50627 24.3759 6.50627C25.5379 6.50627 26.5485 6.64893 27.4074 6.93419C28.2663 7.21945 28.9358 7.69928 29.4159 8.37356C29.8958 9.04784 30.1359 9.96854 30.1359 11.1356C30.1359 11.7321 30.0095 12.3027 29.7569 12.8473C29.5043 13.379 29.0621 13.9689 28.4306 14.6173C28.8727 14.9804 29.2643 15.4343 29.6053 15.9789C29.959 16.5106 30.1359 17.146 30.1359 17.8851C30.1359 19.6227 29.3653 20.9194 27.8243 21.7753C26.2832 22.6441 24.0411 23.0785 21.098 23.0785ZM40.0822 21.3474C34.3095 21.3474 31.4232 18.9354 31.4232 14.1116C31.4232 11.4792 32.1495 9.54713 33.6022 8.31521C35.0674 7.0833 37.259 6.46737 40.1769 6.46737C43.2716 6.46737 45.5201 7.07685 46.9222 8.29576C48.3369 9.50172 49.0443 11.2847 49.0443 13.6448C49.0443 16.3031 48.299 18.2547 46.8085 19.4995C45.318 20.7314 43.0758 21.3474 40.0822 21.3474ZM39.7222 14.9674H40.7453V12.8473H39.7222V14.9674ZM59.2225 21.3474C53.4501 21.3474 50.5638 18.9354 50.5638 14.1116C50.5638 11.4792 51.2901 9.54713 52.7427 8.31521C54.208 7.0833 56.3996 6.46737 59.3173 6.46737C62.4122 6.46737 64.6604 7.07685 66.0626 8.29576C67.4777 9.50172 68.1847 11.2847 68.1847 13.6448C68.1847 16.3031 67.4398 18.2547 65.9489 19.4995C64.4585 20.7314 62.2162 21.3474 59.2225 21.3474ZM58.8627 14.9674H59.8857V12.8473H58.8627V14.9674ZM69.6584 20.9972C69.5577 20.7379 69.4754 20.4072 69.4121 20.0052C69.3493 19.5903 69.3114 19.1559 69.2984 18.702C69.2984 18.2482 69.3114 17.8202 69.3363 17.4183C69.3742 17.0033 69.4376 16.6662 69.5258 16.4068C69.7152 16.329 69.8988 16.1994 70.0752 16.0178C70.2523 15.8233 70.3974 15.4991 70.511 15.0453C70.6247 14.5784 70.6816 13.9106 70.6816 13.0418C70.6816 12.1471 70.6123 11.4792 70.4731 11.0383C70.347 10.5975 70.1889 10.2927 69.9995 10.1242C69.823 9.94259 69.6649 9.81944 69.5258 9.75458C69.4121 9.53412 69.3304 9.2229 69.2795 8.82094C69.2291 8.40596 69.2037 7.95859 69.2037 7.47882C69.2167 6.99905 69.2546 6.53867 69.3174 6.0978C69.3807 5.65691 69.4754 5.29382 69.6016 5.00854C69.9681 5.03448 70.4228 5.07338 70.9658 5.12525C71.5093 5.17712 72.0967 5.22251 72.7279 5.26141C73.3721 5.28734 73.9974 5.30031 74.6037 5.30031C75.5007 5.30031 76.3154 5.27437 77.0479 5.22251C77.7933 5.15767 78.431 5.09931 78.9616 5.04745C79.0752 5.41053 79.1575 5.76065 79.2079 6.0978C79.2588 6.42196 79.2837 6.75263 79.2837 7.0898C79.2837 7.56957 79.2209 8.1207 79.0942 8.74313C78.9805 9.36556 78.8609 9.988 78.7342 10.6104C78.6081 11.2329 78.5447 11.7904 78.5447 12.2832V12.6333C78.9616 12.0109 79.2712 11.2264 79.4731 10.2798C79.6881 9.32016 79.7828 8.14015 79.7574 6.73968C80.1114 6.76564 80.4904 6.80454 80.8942 6.85639C81.311 6.90824 81.8226 6.95364 82.4289 6.99254C83.0352 7.03145 83.7931 7.0509 84.7026 7.0509C85.4481 7.0509 86.0609 7.03145 86.5405 6.99254C87.0207 6.95364 87.4375 6.91474 87.791 6.87584C88.1575 6.82399 88.5489 6.77858 88.9658 6.73968C89.067 7.012 89.1493 7.35561 89.2121 7.77058C89.2754 8.17255 89.3068 8.60047 89.3068 9.05435C89.3198 9.50822 89.3068 9.94259 89.2689 10.3576C89.2441 10.7595 89.1872 11.0967 89.0984 11.369C88.4672 11.5506 87.9237 11.7515 87.4689 11.972C87.0272 12.1925 86.6293 12.4323 86.2752 12.6917C86.5914 13.6772 87.0272 14.4617 87.5826 15.0453C88.151 15.6158 88.7514 16.0696 89.3826 16.4068C89.4714 16.6662 89.5283 16.9969 89.5531 17.3988C89.591 17.8008 89.6041 18.2287 89.591 18.6826C89.591 19.1235 89.5597 19.5514 89.4963 19.9663C89.4335 20.3813 89.3512 20.7249 89.25 20.9972C88.7325 20.9454 88.1575 20.8805 87.5258 20.8027C86.8946 20.7249 86.1112 20.686 85.1763 20.686C84.1407 20.686 83.2946 20.7055 82.6374 20.7444C81.9807 20.7833 81.4378 20.8222 81.0079 20.8611C80.591 20.9129 80.2062 20.9583 79.8521 20.9972C79.89 20.5304 79.922 20.1025 79.9468 19.7135C79.9723 19.3115 79.9847 18.9419 79.9847 18.6048C79.9847 18.0602 79.9599 17.5609 79.9089 17.1071C79.8586 16.6532 79.7325 16.2253 79.53 15.8233C79.3281 15.4213 78.9995 15.0323 78.5447 14.6562V16.4068H79.2268C79.3156 16.6662 79.3725 17.0033 79.3974 17.4183C79.4352 17.8202 79.4483 18.2482 79.4352 18.702C79.4352 19.1559 79.4039 19.5903 79.3405 20.0052C79.2777 20.4072 79.1954 20.7379 79.0942 20.9972C78.5637 20.9454 77.9005 20.8805 77.1047 20.8027C76.322 20.7379 75.4883 20.7055 74.6037 20.7055C73.9974 20.7055 73.3786 20.7184 72.7468 20.7444C72.1281 20.7833 71.5472 20.8222 71.0037 20.8611C70.4607 20.9129 70.0125 20.9583 69.6584 20.9972Z" fill="black"/>
<mask id="mask0_107_807" style="mask-type:luminance" maskUnits="userSpaceOnUse" x="0" y="4" width="90" height="20">
<path d="M90 4.25488H0V23.7059H90V4.25488Z" fill="white"/>
<path d="M0.849266 20.9973C0.748217 20.7379 0.66611 20.4072 0.60295 20.0053C0.539794 19.5903 0.501899 19.1559 0.489268 18.702C0.489268 18.2482 0.501899 17.8202 0.527163 17.4183C0.565058 17.0033 0.628215 16.6662 0.716634 16.4068C1.00716 16.3031 1.27243 16.0956 1.51242 15.7844C1.75243 15.4732 1.87242 14.9998 1.87242 14.3645C1.87242 13.6772 1.8219 13.178 1.72084 12.8667C1.6198 12.5555 1.48085 12.3545 1.304 12.2638C1.13979 12.16 0.944003 12.1016 0.716634 12.0887C0.60295 11.8682 0.520847 11.557 0.470321 11.1551C0.419794 10.7531 0.394531 10.3187 0.394531 9.85184C0.407163 9.37207 0.445057 8.91819 0.508215 8.49027C0.571373 8.0494 0.66611 7.68628 0.792424 7.40102C2.48506 7.29726 4.1019 7.1676 5.64295 7.012C7.18402 6.84344 8.7756 6.66188 10.4177 6.46737C10.5314 6.83043 10.6135 7.21301 10.664 7.61498C10.7272 8.004 10.7587 8.36706 10.7587 8.70423C10.7587 9.31372 10.6956 9.87129 10.5693 10.377C10.4556 10.8698 10.3356 11.369 10.2093 11.8747C10.083 12.3675 10.0198 12.9186 10.0198 13.5281C10.0198 14.4877 10.1398 15.1814 10.3798 15.6093C10.6324 16.0373 10.8977 16.3031 11.1756 16.4068C11.2893 16.8088 11.3587 17.3081 11.384 17.9045C11.4093 18.4881 11.3903 19.0651 11.3272 19.6357C11.2767 20.1933 11.1819 20.6471 11.0429 20.9973C10.6893 20.9583 10.2282 20.9129 9.65979 20.8611C9.10398 20.8222 8.49139 20.7833 7.8219 20.7444C7.1524 20.7184 6.47663 20.7055 5.79453 20.7055C5.18821 20.7055 4.56927 20.7184 3.93769 20.7444C3.31874 20.7833 2.73769 20.8222 2.19453 20.8611C1.65137 20.9129 1.20295 20.9583 0.849266 20.9973ZM21.098 23.0785C19.3548 23.0785 17.8642 22.9294 16.6264 22.6311C15.4011 22.3329 14.46 21.8531 13.8032 21.1918C13.159 20.5304 12.8369 19.6551 12.8369 18.5659C12.8369 17.4377 13.178 16.5819 13.8601 15.9983C14.5548 15.4148 15.54 15.1231 16.8159 15.1231C18.079 15.1231 18.9948 15.363 19.5632 15.8427C20.1443 16.3225 20.5169 16.9903 20.6811 17.8462L21.2306 17.7684C21.1042 17.133 20.9337 16.6532 20.719 16.329C20.5169 16.0049 20.3148 15.752 20.1127 15.5704V14.0727L20.8327 14.0533V13.0029H19.8285V14.5784C18.7043 14.6303 17.599 14.6757 16.5127 14.7146C15.439 14.7405 14.2832 14.7275 13.0453 14.6757C12.9443 13.7161 12.8748 12.7565 12.8369 11.7969C12.8116 10.8244 12.8242 9.9167 12.8748 9.0738C12.9253 8.21796 13.0137 7.47882 13.1401 6.85639C13.5063 6.85639 13.9548 6.86289 14.4853 6.87584C15.0159 6.88879 15.5779 6.90824 16.1716 6.93419C16.778 6.94714 17.3653 6.96015 17.9338 6.97309C18.5022 6.98604 19.0074 6.99905 19.4495 7.012C19.2348 7.28431 19.0643 7.63443 18.938 8.06235C18.8243 8.49027 18.8243 8.90525 18.938 9.30721C19.1022 8.59403 19.4306 8.03639 19.9232 7.63443C20.4159 7.21945 21.0411 6.92769 21.799 6.75913C22.5695 6.59058 23.4285 6.50627 24.3759 6.50627C25.5379 6.50627 26.5485 6.64893 27.4074 6.93419C28.2663 7.21945 28.9358 7.69928 29.4159 8.37356C29.8958 9.04785 30.1359 9.96854 30.1359 11.1356C30.1359 11.7321 30.0095 12.3027 29.7569 12.8473C29.5043 13.379 29.0621 13.9689 28.4306 14.6173C28.8727 14.9804 29.2643 15.4343 29.6053 15.9789C29.959 16.5106 30.1359 17.146 30.1359 17.8851C30.1359 19.6227 29.3653 20.9194 27.8243 21.7753C26.2832 22.6441 24.0411 23.0785 21.098 23.0785ZM40.0822 21.3474C34.3095 21.3474 31.4232 18.9354 31.4232 14.1116C31.4232 11.4792 32.1495 9.54713 33.6022 8.31521C35.0674 7.0833 37.259 6.46737 40.1769 6.46737C43.2716 6.46737 45.5201 7.07685 46.9222 8.29576C48.3369 9.50172 49.0443 11.2847 49.0443 13.6448C49.0443 16.3031 48.299 18.2547 46.8085 19.4995C45.318 20.7314 43.0758 21.3474 40.0822 21.3474ZM39.7222 14.9674H40.7453V12.8473H39.7222V14.9674ZM59.2225 21.3474C53.4501 21.3474 50.5638 18.9354 50.5638 14.1116C50.5638 11.4792 51.2901 9.54713 52.7427 8.31521C54.208 7.0833 56.3996 6.46737 59.3173 6.46737C62.4122 6.46737 64.6604 7.07685 66.0626 8.29576C67.4777 9.50172 68.1847 11.2847 68.1847 13.6448C68.1847 16.3031 67.4398 18.2547 65.9489 19.4995C64.4585 20.7314 62.2162 21.3474 59.2225 21.3474ZM58.8627 14.9674H59.8857V12.8473H58.8627V14.9674ZM69.6584 20.9973C69.5577 20.7379 69.4754 20.4072 69.4121 20.0053C69.3493 19.5903 69.3114 19.1559 69.2984 18.702C69.2984 18.2482 69.3114 17.8202 69.3363 17.4183C69.3742 17.0033 69.4376 16.6662 69.5258 16.4068C69.7152 16.329 69.8988 16.1994 70.0752 16.0178C70.2523 15.8233 70.3974 15.4991 70.511 15.0453C70.6247 14.5784 70.6816 13.9106 70.6816 13.0418C70.6816 12.1471 70.6123 11.4792 70.4731 11.0383C70.347 10.5975 70.1889 10.2927 69.9995 10.1242C69.823 9.94259 69.6649 9.81944 69.5258 9.75458C69.4121 9.53412 69.3304 9.2229 69.2795 8.82094C69.2291 8.40596 69.2037 7.95859 69.2037 7.47882C69.2167 6.99905 69.2546 6.53867 69.3174 6.0978C69.3807 5.65691 69.4754 5.29382 69.6016 5.00854C69.9681 5.03448 70.4228 5.07338 70.9658 5.12525C71.5093 5.17712 72.0967 5.22251 72.7279 5.26141C73.3721 5.28734 73.9974 5.30031 74.6037 5.30031C75.5007 5.30031 76.3154 5.27437 77.0479 5.22251C77.7933 5.15767 78.431 5.09931 78.9616 5.04745C79.0752 5.41053 79.1575 5.76065 79.2079 6.0978C79.2588 6.42196 79.2837 6.75263 79.2837 7.0898C79.2837 7.56957 79.2209 8.1207 79.0942 8.74313C78.9805 9.36556 78.8609 9.988 78.7342 10.6104C78.6081 11.2329 78.5447 11.7904 78.5447 12.2832V12.6333C78.9616 12.0109 79.2712 11.2264 79.4731 10.2798C79.6881 9.32016 79.7828 8.14015 79.7574 6.73968C80.1114 6.76564 80.4904 6.80454 80.8942 6.85639C81.311 6.90824 81.8226 6.95364 82.4289 6.99255C83.0352 7.03145 83.7931 7.0509 84.7026 7.0509C85.4481 7.0509 86.0609 7.03145 86.5405 6.99255C87.0207 6.95364 87.4375 6.91474 87.791 6.87584C88.1575 6.82399 88.5489 6.77858 88.9658 6.73968C89.067 7.012 89.1493 7.35561 89.2121 7.77058C89.2754 8.17255 89.3068 8.60047 89.3068 9.05435C89.3198 9.50823 89.3068 9.94259 89.2689 10.3576C89.2441 10.7595 89.1872 11.0967 89.0984 11.369C88.4672 11.5506 87.9237 11.7515 87.4689 11.972C87.0272 12.1925 86.6293 12.4323 86.2752 12.6917C86.5914 13.6772 87.0272 14.4617 87.5826 15.0453C88.151 15.6158 88.7514 16.0696 89.3826 16.4068C89.4714 16.6662 89.5283 16.9969 89.5531 17.3988C89.591 17.8008 89.6041 18.2287 89.591 18.6826C89.591 19.1235 89.5597 19.5514 89.4963 19.9663C89.4335 20.3813 89.3512 20.7249 89.25 20.9973C88.7325 20.9454 88.1575 20.8805 87.5258 20.8027C86.8946 20.7249 86.1112 20.686 85.1763 20.686C84.1407 20.686 83.2946 20.7055 82.6374 20.7444C81.9807 20.7833 81.4378 20.8222 81.0079 20.8611C80.591 20.9129 80.2062 20.9583 79.8521 20.9973C79.89 20.5304 79.922 20.1025 79.9468 19.7135C79.9723 19.3115 79.9847 18.942 79.9847 18.6048C79.9847 18.0602 79.9599 17.5609 79.9089 17.1071C79.8586 16.6532 79.7325 16.2253 79.53 15.8233C79.3281 15.4213 78.9995 15.0323 78.5447 14.6562V16.4068H79.2268C79.3156 16.6662 79.3725 17.0033 79.3974 17.4183C79.4352 17.8202 79.4483 18.2482 79.4352 18.702C79.4352 19.1559 79.4039 19.5903 79.3405 20.0053C79.2777 20.4072 79.1954 20.7379 79.0942 20.9973C78.5637 20.9454 77.9005 20.8805 77.1047 20.8027C76.322 20.7379 75.4883 20.7055 74.6037 20.7055C73.9974 20.7055 73.3786 20.7184 72.7468 20.7444C72.1281 20.7833 71.5472 20.8222 71.0037 20.8611C70.4607 20.9129 70.0125 20.9583 69.6584 20.9973Z" fill="black"/>
</mask>
<g mask="url(#mask0_107_807)">
<path d="M0.84942 20.9973L0.574544 21.1102L0.657874 21.324L0.880961 21.2996L0.84942 20.9973ZM0.603104 20.0053L0.310599 20.0523L0.310831 20.0537L0.603104 20.0053ZM0.489422 18.7021H0.19337V18.7064L0.19349 18.7108L0.489422 18.7021ZM0.527317 17.4184L0.232557 17.39L0.232156 17.3944L0.231878 17.3988L0.527317 17.4184ZM0.716788 16.4069L0.619529 16.1199L0.484565 16.168L0.437359 16.3065L0.716788 16.4069ZM1.30416 12.2638L1.149 12.5227L1.1601 12.5297L1.17176 12.5357L1.30416 12.2638ZM0.716788 12.0888L0.455143 12.231L0.53339 12.3827L0.700369 12.3922L0.716788 12.0888ZM0.394685 9.85192L0.0986328 9.84371V9.85192H0.394685ZM0.50837 8.49035L0.801086 8.53588L0.80127 8.53454L0.50837 8.49035ZM0.792578 7.4011L0.774939 7.09772L0.596875 7.1086L0.523063 7.27533L0.792578 7.4011ZM5.6431 7.01208L5.67209 7.31454L5.67447 7.3143L5.6431 7.01208ZM10.4178 6.46745L10.6997 6.37445L10.6253 6.1369L10.3839 6.16553L10.4178 6.46745ZM10.6642 7.61506L10.3705 7.65396L10.3712 7.65949L10.3721 7.66502L10.6642 7.61506ZM10.5694 10.3771L10.2826 10.3016L10.2814 10.3071L10.5694 10.3771ZM10.2094 11.8748L10.4958 11.9521L10.4962 11.9503L10.2094 11.8748ZM10.3799 15.6094L10.1233 15.7611L10.1268 15.7669L10.3799 15.6094ZM11.1757 16.4069L11.4601 16.3222L11.4181 16.174L11.2769 16.1213L11.1757 16.4069ZM11.3273 19.6358L11.0331 19.6014L11.0326 19.6076L11.3273 19.6358ZM11.0431 20.9973L11.0115 21.2996L11.2332 21.3239L11.3173 21.112L11.0431 20.9973ZM9.65994 20.8612L9.68618 20.5584L9.68008 20.558L9.65994 20.8612ZM7.82205 20.7445L7.83881 20.441L7.83324 20.4408L7.82205 20.7445ZM3.93784 20.7445L3.92601 20.4407L3.91975 20.4411L3.93784 20.7445ZM2.19468 20.8612L2.17408 20.5579L2.16726 20.5585L2.19468 20.8612ZM1.1243 20.8845C1.0341 20.653 0.956496 20.3459 0.895379 19.9569L0.310831 20.0537C0.376033 20.4688 0.46264 20.823 0.574544 21.1102L1.1243 20.8845ZM0.89561 19.9584C0.834528 19.5571 0.797658 19.1355 0.785354 18.6934L0.19349 18.7108C0.20645 19.1764 0.245367 19.6237 0.310599 20.0523L0.89561 19.9584ZM0.785473 18.7021C0.785473 18.254 0.797948 17.8327 0.822757 17.4379L0.231878 17.3988C0.206159 17.808 0.19337 18.2425 0.19337 18.7021H0.785473ZM0.822076 17.4467C0.858757 17.0451 0.918696 16.7347 0.99622 16.5073L0.437359 16.3065C0.338042 16.5978 0.271668 16.9617 0.232557 17.39L0.822076 17.4467ZM0.814048 16.6939C1.16986 16.5669 1.4787 16.318 1.7447 15.9731L1.28046 15.5958C1.06646 15.8733 0.844778 16.0394 0.619529 16.1199L0.814048 16.6939ZM1.7447 15.9731C2.04449 15.5844 2.16863 15.0301 2.16863 14.3645H1.57653C1.57653 14.9698 1.46067 15.3621 1.28046 15.5958L1.7447 15.9731ZM2.16863 14.3645C2.16863 13.6723 2.11894 13.1313 2.00186 12.7707L1.44014 12.9629C1.52517 13.2248 1.57653 13.6822 1.57653 14.3645H2.16863ZM2.00186 12.7707C1.89064 12.4282 1.71637 12.1356 1.43656 11.992L1.17176 12.5357C1.24563 12.5736 1.34926 12.683 1.44014 12.9629L2.00186 12.7707ZM1.45932 12.005C1.24621 11.8704 1.00082 11.8006 0.733213 11.7853L0.700369 12.3922C0.887498 12.4029 1.03369 12.4498 1.149 12.5227L1.45932 12.005ZM0.97844 11.9466C0.888481 11.7722 0.812555 11.5018 0.764092 11.1162L0.176856 11.194C0.229447 11.6124 0.317728 11.9645 0.455143 12.231L0.97844 11.9466ZM0.764092 11.1162C0.715409 10.7289 0.690736 10.3076 0.690736 9.85192H0.0986328C0.0986328 10.3299 0.124488 10.7774 0.176856 11.194L0.764092 11.1162ZM0.690629 9.86013C0.702969 9.39148 0.73994 8.95018 0.801086 8.53588L0.215658 8.44482C0.150492 8.88636 0.111558 9.35276 0.0986328 9.84371L0.690629 9.86013ZM0.80127 8.53454C0.861943 8.111 0.950966 7.77784 1.0621 7.52686L0.523063 7.27533C0.381564 7.59488 0.28111 7.98791 0.215467 8.44616L0.80127 8.53454ZM0.810223 7.70447C2.50629 7.60053 4.12692 7.47057 5.67209 7.31454L5.61413 6.70961C4.07718 6.8648 2.46413 6.99421 0.774939 7.09772L0.810223 7.70447ZM5.67447 7.3143C7.21645 7.14562 8.80885 6.964 10.4518 6.76936L10.3839 6.16553C8.7426 6.35992 7.15191 6.54136 5.61174 6.70986L5.67447 7.3143ZM10.136 6.56045C10.2438 6.90485 10.3222 7.26919 10.3705 7.65396L10.9578 7.57615C10.9051 7.15693 10.8192 6.75624 10.6997 6.37445L10.136 6.56045ZM10.3721 7.66502C10.4331 8.04024 10.4628 8.38641 10.4628 8.70431H11.0549C11.0549 8.34787 11.0216 7.96791 10.9562 7.56509L10.3721 7.66502ZM10.4628 8.70431C10.4628 9.29246 10.4018 9.82426 10.2826 10.3016L10.8562 10.4526C10.9896 9.91848 11.0549 9.33513 11.0549 8.70431H10.4628ZM10.2814 10.3071C10.1681 10.798 10.0485 11.2954 9.92266 11.7993L10.4962 11.9503C10.6229 11.4428 10.7434 10.9418 10.8575 10.4471L10.2814 10.3071ZM9.92314 11.7975C9.7892 12.3198 9.72389 12.8975 9.72389 13.5282H10.316C10.316 12.9399 10.377 12.4153 10.4958 11.9521L9.92314 11.7975ZM9.72389 13.5282C9.72389 14.4994 9.84285 15.2609 10.1233 15.7611L10.6365 15.4578C10.437 15.102 10.316 14.476 10.316 13.5282H9.72389ZM10.1268 15.7669C10.3934 16.2187 10.7036 16.5541 11.0745 16.6925L11.2769 16.1213C11.0921 16.0523 10.8717 15.856 10.6331 15.4519L10.1268 15.7669ZM10.8914 16.4916C10.9964 16.8628 11.0638 17.3362 11.0884 17.9178L11.6799 17.8914C11.654 17.2801 11.5825 16.755 11.4601 16.3222L10.8914 16.4916ZM11.0884 17.9178C11.113 18.4857 11.0945 19.047 11.0331 19.6014L11.6215 19.6701C11.6864 19.0834 11.7058 18.4906 11.6799 17.8914L11.0884 17.9178ZM11.0326 19.6076C10.9835 20.1484 10.893 20.57 10.769 20.8827L11.3173 21.112C11.4711 20.7244 11.57 20.2384 11.6221 19.6639L11.0326 19.6076ZM11.0747 20.6951C10.7185 20.656 10.2554 20.6103 9.68618 20.5584L9.63371 21.1639C10.2013 21.2157 10.6604 21.2609 11.0115 21.2996L11.0747 20.6951ZM9.68008 20.558C9.12296 20.519 8.50919 20.4799 7.83881 20.441L7.80529 21.0479C8.4739 21.0867 9.08537 21.1256 9.63981 21.1644L9.68008 20.558ZM7.83324 20.4408C7.15996 20.4147 6.48046 20.4016 5.79468 20.4016V21.0095C6.47312 21.0095 7.14522 21.0224 7.81086 21.0481L7.83324 20.4408ZM5.79468 20.4016C5.18426 20.4016 4.56136 20.4147 3.92601 20.4407L3.94968 21.0481C4.57748 21.0224 5.19248 21.0095 5.79468 21.0095V20.4016ZM3.91975 20.4411C3.30008 20.4801 2.71818 20.519 2.17408 20.5579L2.21529 21.1644C2.7575 21.1255 3.33771 21.0867 3.95594 21.0478L3.91975 20.4411ZM2.16726 20.5585C1.62337 20.6105 1.17346 20.656 0.817884 20.6951L0.880961 21.2996C1.23275 21.2608 1.67968 21.2156 2.22211 21.1638L2.16726 20.5585ZM16.6265 22.6312L16.5582 22.9269L16.5589 22.9271L16.6265 22.6312ZM13.8034 21.1918L13.594 21.4068L13.596 21.4088L13.8034 21.1918ZM13.8602 15.9984L13.6727 15.7632L13.6707 15.765L13.8602 15.9984ZM19.5634 15.8428L19.3753 16.0776L19.3778 16.0796L19.5634 15.8428ZM20.6813 17.8463L20.3908 17.905L20.4448 18.1865L20.7217 18.1473L20.6813 17.8463ZM21.2307 17.7685L21.2712 18.0695L21.5839 18.0253L21.5208 17.7077L21.2307 17.7685ZM20.7192 16.3291L20.4697 16.493L20.4743 16.5L20.7192 16.3291ZM20.1129 15.5705H19.8168V15.7084L19.9179 15.7992L20.1129 15.5705ZM20.1129 14.0728L20.105 13.769L19.8168 13.7768V14.0728H20.1129ZM20.8329 14.0533L20.8406 14.3571L21.1289 14.3494V14.0533H20.8329ZM20.8329 13.003H21.1289V12.6991H20.8329V13.003ZM19.8286 13.003V12.6991H19.5326V13.003H19.8286ZM19.8286 14.5785L19.8419 14.8821L20.1247 14.8691V14.5785H19.8286ZM16.5129 14.7147L16.5198 15.0185L16.5232 15.0184L16.5129 14.7147ZM13.0455 14.6758L12.7511 14.7084L12.7786 14.9687L13.0334 14.9794L13.0455 14.6758ZM12.8371 11.797L12.5411 11.8051L12.5412 11.8094L12.8371 11.797ZM13.1402 6.85647V6.55255H12.8995L12.8504 6.79447L13.1402 6.85647ZM16.1718 6.93427L16.1592 7.23801L16.1656 7.23813L16.1718 6.93427ZM19.4497 7.01208L19.6798 7.2033L20.0563 6.72584L19.4581 6.70828L19.4497 7.01208ZM18.9381 8.06243L18.6547 7.97423L18.6525 7.98244L18.9381 8.06243ZM18.9381 9.30729L18.6538 9.39203L18.9674 10.5011L19.2262 9.37719L18.9381 9.30729ZM19.9234 7.63451L20.1076 7.87248L20.1111 7.86944L19.9234 7.63451ZM21.7992 6.75921L21.7374 6.46198L21.7365 6.46216L21.7992 6.75921ZM29.7571 12.8474L30.0232 12.9806L30.0243 12.9781L29.7571 12.8474ZM28.4307 14.6174L28.2214 14.4025L27.9875 14.6426L28.2458 14.8547L28.4307 14.6174ZM29.6055 15.979L29.3563 16.1434L29.361 16.1504L29.6055 15.979ZM27.8244 21.7754L27.6835 21.508L27.6819 21.509L27.8244 21.7754ZM21.0981 22.7747C19.3699 22.7747 17.9034 22.6267 16.6942 22.3353L16.5589 22.9271C17.8254 23.2323 19.3399 23.3825 21.0981 23.3825V22.7747ZM16.6948 22.3355C15.5034 22.0455 14.6173 21.5857 14.0107 20.9748L13.596 21.4088C14.3031 22.1207 15.2991 22.6205 16.5582 22.9269L16.6948 22.3355ZM14.0127 20.9769C13.4331 20.382 13.1331 19.589 13.1331 18.566H12.541C12.541 19.7215 12.8851 20.679 13.594 21.4068L14.0127 20.9769ZM13.1331 18.566C13.1331 17.5046 13.4509 16.7442 14.0497 16.2319L13.6707 15.765C12.9053 16.4197 12.541 17.371 12.541 18.566H13.1331ZM14.0477 16.2337C14.6712 15.7099 15.5803 15.4271 16.816 15.4271V14.8192C15.5001 14.8192 14.4387 15.1199 13.6727 15.7632L14.0477 16.2337ZM16.816 15.4271C18.0552 15.4271 18.8864 15.6648 19.3753 16.0776L19.7514 15.6081C19.1035 15.0612 18.1031 14.8192 16.816 14.8192V15.4271ZM19.3778 16.0796C19.897 16.5084 20.238 17.109 20.3908 17.905L20.9717 17.7876C20.796 16.8719 20.3918 16.1368 19.7489 15.606L19.3778 16.0796ZM20.7217 18.1473L21.2712 18.0695L21.1902 17.4674L20.6408 17.5452L20.7217 18.1473ZM21.5208 17.7077C21.3911 17.0553 21.2106 16.5305 20.9639 16.1582L20.4743 16.5C20.6572 16.7761 20.8177 17.2108 20.9407 17.8293L21.5208 17.7077ZM20.9685 16.1653C20.7568 15.8257 20.5374 15.548 20.3078 15.3418L19.9179 15.7992C20.0925 15.9561 20.2772 16.1842 20.4697 16.493L20.9685 16.1653ZM20.4089 15.5705V14.0728H19.8168V15.5705H20.4089ZM20.1206 14.3766L20.8406 14.3571L20.825 13.7495L20.105 13.769L20.1206 14.3766ZM21.1289 14.0533V13.003H20.5368V14.0533H21.1289ZM20.8329 12.6991H19.8286V13.3069H20.8329V12.6991ZM19.5326 13.003V14.5785H20.1247V13.003H19.5326ZM19.8153 14.2749C18.6921 14.3267 17.5878 14.3721 16.5025 14.4109L16.5232 15.0184C17.6105 14.9794 18.7167 14.934 19.8419 14.8821L19.8153 14.2749ZM16.5059 14.4108C15.4394 14.4366 14.29 14.4238 13.0575 14.3721L13.0334 14.9794C14.2767 15.0315 15.4389 15.0446 16.5198 15.0185L16.5059 14.4108ZM13.3398 14.6431C13.2395 13.6903 13.1705 12.7375 13.1328 11.7847L12.5412 11.8094C12.5794 12.7758 12.6494 13.7421 12.7511 14.7084L13.3398 14.6431ZM13.133 11.7889C13.1079 10.824 13.1205 9.92529 13.1704 9.09254L12.5794 9.05522C12.5283 9.90821 12.5156 10.825 12.5411 11.8051L13.133 11.7889ZM13.1704 9.09254C13.2204 8.24667 13.3074 7.52254 13.43 6.91847L12.8504 6.79447C12.7203 7.43526 12.6305 8.18941 12.5794 9.05522L13.1704 9.09254ZM13.1402 7.16039C13.5034 7.16039 13.9493 7.16683 14.4784 7.17978L14.4925 6.57206C13.9606 6.55911 13.5096 6.55255 13.1402 6.55255V7.16039ZM14.4784 7.17978C15.0069 7.19267 15.5671 7.21218 16.1592 7.23801L16.1844 6.63065C15.5891 6.60464 15.0251 6.58513 14.4925 6.57206L14.4784 7.17978ZM16.1656 7.23813C16.7718 7.25108 17.359 7.26403 17.9273 7.27704L17.9405 6.66931C17.3719 6.65637 16.7844 6.64336 16.178 6.63041L16.1656 7.23813ZM17.9273 7.27704C18.4953 7.28998 18.9999 7.30293 19.4412 7.31588L19.4581 6.70828C19.0153 6.69527 18.5093 6.68232 17.9405 6.66931L17.9273 7.27704ZM19.2195 6.82085C18.9751 7.13085 18.7891 7.51871 18.6547 7.97423L19.2214 8.15057C19.3396 7.75024 19.4948 7.43793 19.6798 7.2033L19.2195 6.82085ZM18.6525 7.98244C18.5254 8.46099 18.524 8.93304 18.6538 9.39203L19.2224 9.22256C19.1248 8.87755 19.1234 8.51971 19.2237 8.14242L18.6525 7.98244ZM19.2262 9.37719C19.3773 8.72097 19.6739 8.22636 20.1076 7.87248L19.7391 7.3966C19.1876 7.84665 18.8273 8.46719 18.65 9.23739L19.2262 9.37719ZM20.1111 7.86944C20.5604 7.49106 21.14 7.2168 21.8618 7.05627L21.7365 6.46216C20.9425 6.6388 20.2715 6.94807 19.7356 7.39958L20.1111 7.86944ZM21.8609 7.05645C22.6075 6.89312 23.4453 6.81027 24.376 6.81027V6.20243C23.4119 6.20243 22.5318 6.2882 21.7374 6.46198L21.8609 7.05645ZM24.376 6.81027C25.5156 6.81027 26.494 6.95026 27.3164 7.22342L27.4987 6.64512C26.6033 6.3477 25.5606 6.20243 24.376 6.20243V6.81027ZM27.3164 7.22342C28.1229 7.4913 28.7378 7.936 29.177 8.55296L29.655 8.19433C29.1342 7.46267 28.4101 6.94783 27.4987 6.64512L27.3164 7.22342ZM29.177 8.55296C29.6077 9.15813 29.84 10.0081 29.84 11.1357H30.4321C30.4321 9.92912 30.1842 8.93772 29.655 8.19433L29.177 8.55296ZM29.84 11.1357C29.84 11.6865 29.7237 12.2124 29.4897 12.7167L30.0243 12.9781C30.2957 12.3931 30.4321 11.7779 30.4321 11.1357H29.84ZM29.491 12.7141C29.2583 13.2036 28.8411 13.7663 28.2214 14.4025L28.6401 14.8323C29.2835 14.1717 29.7505 13.5544 30.0232 12.9806L29.491 12.7141ZM28.2458 14.8547C28.6601 15.195 29.0307 15.6233 29.3563 16.1434L29.8545 15.8146C29.498 15.2454 29.0856 14.766 28.6157 14.3801L28.2458 14.8547ZM29.361 16.1504C29.6763 16.6243 29.84 17.1979 29.84 17.8852H30.4321C30.4321 17.0942 30.242 16.3969 29.85 15.8076L29.361 16.1504ZM29.84 17.8852C29.84 18.7064 29.6584 19.4086 29.3053 20.0027C28.952 20.5974 28.4165 21.101 27.6835 21.508L27.9653 22.0427C28.7733 21.5939 29.3937 21.0212 29.8108 20.3192C30.2283 19.6166 30.4321 18.8016 30.4321 17.8852H29.84ZM27.6819 21.509C26.2047 22.3418 24.021 22.7747 21.0981 22.7747V23.3825C24.0615 23.3825 26.362 22.9466 27.9669 22.0418L27.6819 21.509ZM33.6023 8.31529L33.4147 8.08018L33.4138 8.08097L33.6023 8.31529ZM46.9223 8.29584L46.731 8.52779L46.7332 8.52968L46.9223 8.29584ZM46.8086 19.4996L46.9943 19.7364L46.9954 19.7354L46.8086 19.4996ZM39.7223 14.9675H39.4263V15.2715H39.7223V14.9675ZM40.7455 14.9675V15.2715H41.0415V14.9675H40.7455ZM40.7455 12.8474H41.0415V12.5434H40.7455V12.8474ZM39.7223 12.8474V12.5434H39.4263V12.8474H39.7223ZM40.0823 21.0435C37.2285 21.0435 35.1431 20.4461 33.775 19.3028C32.4185 18.1693 31.7194 16.4583 31.7194 14.1117H31.1273C31.1273 16.5889 31.8714 18.4958 33.4012 19.7742C34.9194 21.0429 37.1635 21.6514 40.0823 21.6514V21.0435ZM31.7194 14.1117C31.7194 11.5353 32.4286 9.70482 33.7908 8.54962L33.4138 8.08097C31.8708 9.38953 31.1273 11.4233 31.1273 14.1117H31.7194ZM33.7899 8.55041C35.1803 7.38146 37.2924 6.77137 40.177 6.77137V6.16353C37.2259 6.16353 34.9549 6.78529 33.4147 8.08018L33.7899 8.55041ZM40.177 6.77137C43.2458 6.77137 45.4084 7.378 46.731 8.52779L47.1136 8.06389C45.632 6.77587 43.2977 6.16353 40.177 6.16353V6.77137ZM46.7332 8.52968C48.0637 9.66379 48.7484 11.3506 48.7484 13.6449H49.3405C49.3405 11.2191 48.6104 9.33981 47.1114 8.062L46.7332 8.52968ZM48.7484 13.6449C48.7484 16.2456 48.0211 18.0951 46.6218 19.2638L46.9954 19.7354C48.5771 18.4144 49.3405 16.3608 49.3405 13.6449H48.7484ZM46.623 19.2629C45.2075 20.4327 43.0444 21.0435 40.0823 21.0435V21.6514C43.1076 21.6514 45.4287 21.0303 46.9943 19.7364L46.623 19.2629ZM39.7223 15.2715H40.7455V14.6636H39.7223V15.2715ZM41.0415 14.9675V12.8474H40.4494V14.9675H41.0415ZM40.7455 12.5434H39.7223V13.1513H40.7455V12.5434ZM39.4263 12.8474V14.9675H40.0184V12.8474H39.4263ZM52.7429 8.31529L52.5553 8.08018L52.5543 8.08097L52.7429 8.31529ZM66.0627 8.29584L65.8715 8.52779L65.8738 8.52968L66.0627 8.29584ZM65.949 19.4996L66.1349 19.7364L66.1361 19.7354L65.949 19.4996ZM58.8629 14.9675H58.5668V15.2715H58.8629V14.9675ZM59.8859 14.9675V15.2715H60.1819V14.9675H59.8859ZM59.8859 12.8474H60.1819V12.5434H59.8859V12.8474ZM58.8629 12.8474V12.5434H58.5668V12.8474H58.8629ZM59.2227 21.0435C56.3691 21.0435 54.2837 20.4461 52.9155 19.3028C51.559 18.1693 50.86 16.4583 50.86 14.1117H50.2679C50.2679 16.5889 51.0119 18.4958 52.5417 19.7742C54.0599 21.0429 56.304 21.6514 59.2227 21.6514V21.0435ZM50.86 14.1117C50.86 11.5353 51.5692 9.70482 52.9314 8.54962L52.5543 8.08097C51.0113 9.38953 50.2679 11.4233 50.2679 14.1117H50.86ZM52.9305 8.55041C54.3208 7.38146 56.4329 6.77137 59.3174 6.77137V6.16353C56.3665 6.16353 54.0954 6.78529 52.5553 8.08018L52.9305 8.55041ZM59.3174 6.77137C62.3863 6.77137 64.5487 7.378 65.8715 8.52779L66.254 8.06389C64.7725 6.77587 62.4384 6.16353 59.3174 6.16353V6.77137ZM65.8738 8.52968C67.2043 9.66379 67.8888 11.3506 67.8888 13.6449H68.4809C68.4809 11.2191 67.7508 9.33981 66.2522 8.062L65.8738 8.52968ZM67.8888 13.6449C67.8888 16.2456 67.1617 18.0951 65.7625 19.2638L66.1361 19.7354C67.7176 18.4144 68.4809 16.3608 68.4809 13.6449H67.8888ZM65.7637 19.2629C64.348 20.4327 62.185 21.0435 59.2227 21.0435V21.6514C62.2484 21.6514 64.5694 21.0303 66.1349 19.7364L65.7637 19.2629ZM58.8629 15.2715H59.8859V14.6636H58.8629V15.2715ZM60.1819 14.9675V12.8474H59.5898V14.9675H60.1819ZM59.8859 12.5434H58.8629V13.1513H59.8859V12.5434ZM58.5668 12.8474V14.9675H59.1589V12.8474H58.5668ZM69.6586 20.9973L69.3838 21.1102L69.4673 21.324L69.6905 21.2996L69.6586 20.9973ZM69.4122 20.0053L69.1197 20.0523L69.1203 20.0537L69.4122 20.0053ZM69.2986 18.7021H69.0025V18.7064V18.7108L69.2986 18.7021ZM69.3365 17.4184L69.0416 17.39V17.3944L69.041 17.3988L69.3365 17.4184ZM69.5259 16.4069L69.4164 16.1247L69.2909 16.176L69.2465 16.3065L69.5259 16.4069ZM70.0754 16.0179L70.285 16.2328L70.2886 16.2291L70.2921 16.2253L70.0754 16.0179ZM70.5112 15.0453L70.7984 15.121V15.1191L70.5112 15.0453ZM70.4733 11.0384L70.1891 11.1242L70.192 11.132L70.4733 11.0384ZM69.9996 10.1242L69.7906 10.3392L69.7977 10.3468L69.806 10.3539L69.9996 10.1242ZM69.5259 9.75467L69.2642 9.89684L69.3116 9.98844L69.4034 10.0314L69.5259 9.75467ZM69.2796 8.82102L68.9859 8.8587V8.85992L69.2796 8.82102ZM69.2038 7.4789L68.9078 7.47069V7.4789H69.2038ZM69.6017 5.00863L69.6224 4.70542L69.4176 4.69092L69.3323 4.88286L69.6017 5.00863ZM72.728 5.26149L72.7103 5.56493L72.7168 5.56517L72.728 5.26149ZM77.048 5.22259L77.0688 5.52583L77.0729 5.52542L77.048 5.22259ZM78.9617 5.04753L79.2436 4.95452L79.1707 4.7218L78.9339 4.74497L78.9617 5.04753ZM79.208 6.09788L78.9155 6.14408L78.9161 6.1459L79.208 6.09788ZM79.0943 8.74321L78.8048 8.68121L78.8036 8.68723L79.0943 8.74321ZM78.5449 12.6334H78.2488V13.6119L78.7888 12.8056L78.5449 12.6334ZM79.4733 10.2798L79.1849 10.2118L79.1843 10.2148L79.4733 10.2798ZM79.7575 6.73976L79.7788 6.43663L79.4555 6.41293L79.4615 6.74542L79.7575 6.73976ZM80.8943 6.85647L80.8576 7.15802L80.8588 7.1582L80.8943 6.85647ZM87.7912 6.87592L87.8232 7.17814L87.8273 7.17759L87.832 7.17698L87.7912 6.87592ZM88.9659 6.73976L89.2424 6.63157L89.1631 6.41621L88.9393 6.43712L88.9659 6.73976ZM89.2122 7.77066L88.9197 7.81759L88.9203 7.81905L89.2122 7.77066ZM89.307 9.05443H89.0109V9.05875V9.06312L89.307 9.05443ZM89.2691 10.3576L88.9742 10.3293V10.3337L88.9736 10.3381L89.2691 10.3576ZM89.0986 11.3691L89.1785 11.6618L89.3301 11.6183L89.3798 11.4652L89.0986 11.3691ZM87.4691 11.9721L87.343 11.6972L87.34 11.6987L87.4691 11.9721ZM86.2754 12.6918L86.1037 12.4444L85.9261 12.5744L85.9941 12.7867L86.2754 12.6918ZM87.5828 15.0453L87.3714 15.2578L87.3761 15.2626L87.5828 15.0453ZM89.3828 16.4069L89.6622 16.3065L89.6238 16.1928L89.5195 16.1373L89.3828 16.4069ZM89.5533 17.3989L89.2578 17.4185L89.2584 17.4233L89.259 17.4282L89.5533 17.3989ZM89.5912 18.6827L89.2951 18.674V18.6784V18.6827H89.5912ZM89.2501 20.9973L89.2217 21.2998L89.4467 21.3223L89.5272 21.1055L89.2501 20.9973ZM81.008 20.8612L80.982 20.5584L80.9772 20.5589L80.9725 20.5594L81.008 20.8612ZM79.8522 20.9973L79.5574 20.9721L79.5278 21.3387L79.8842 21.2996L79.8522 20.9973ZM79.947 19.7136L80.2424 19.7338V19.7331L79.947 19.7136ZM78.5449 14.6563L78.7308 14.4196L78.2488 14.0212V14.6563H78.5449ZM78.5449 16.4069H78.2488V16.7108H78.5449V16.4069ZM79.227 16.4069L79.5064 16.3065L79.4372 16.103H79.227V16.4069ZM79.3975 17.4184L79.102 17.4373L79.1026 17.4425L79.1032 17.4476L79.3975 17.4184ZM79.4354 18.7021L79.1394 18.6934V18.6978V18.7021H79.4354ZM79.3407 20.0053L79.6332 20.0537V20.0523L79.3407 20.0053ZM79.0943 20.9973L79.0665 21.2999L79.2868 21.3214L79.3691 21.1102L79.0943 20.9973ZM77.1049 20.8028L77.1333 20.5002L77.1286 20.4999L77.1049 20.8028ZM72.747 20.7445L72.7351 20.4407L72.7292 20.4411L72.747 20.7445ZM71.0038 20.8612L70.9831 20.5579L70.9766 20.5585L71.0038 20.8612ZM69.9333 20.8845C69.8433 20.653 69.7657 20.3459 69.7047 19.9569L69.1203 20.0537C69.1855 20.4688 69.2719 20.823 69.3838 21.1102L69.9333 20.8845ZM69.7047 19.9584C69.6438 19.5571 69.607 19.1355 69.5946 18.6934L69.0025 18.7108C69.0155 19.1764 69.0546 19.6237 69.1197 20.0523L69.7047 19.9584ZM69.5946 18.7021C69.5946 18.254 69.607 17.8327 69.6319 17.4379L69.041 17.3988C69.0155 17.808 69.0025 18.2425 69.0025 18.7021H69.5946ZM69.6313 17.4467C69.668 17.0451 69.7278 16.7347 69.8054 16.5073L69.2465 16.3065C69.1476 16.5978 69.0807 16.9617 69.0416 17.39L69.6313 17.4467ZM69.6361 16.6891C69.8699 16.593 70.0861 16.437 70.285 16.2328L69.8664 15.8029C69.7113 15.9618 69.5609 16.0652 69.4164 16.1247L69.6361 16.6891ZM70.2921 16.2253C70.5195 15.9751 70.6799 15.5918 70.7984 15.121L70.2246 14.9697C70.1151 15.4066 69.9854 15.6717 69.8593 15.8105L70.2921 16.2253ZM70.7984 15.1191C70.9209 14.6161 70.9778 13.9191 70.9778 13.0419H70.3857C70.3857 13.9023 70.3288 14.5409 70.224 14.9716L70.7984 15.1191ZM70.9778 13.0419C70.9778 12.1392 70.9085 11.4324 70.7551 10.9449L70.192 11.132C70.3158 11.5262 70.3857 12.1551 70.3857 13.0419H70.9778ZM70.7575 10.9527C70.6261 10.494 70.4478 10.1208 70.1938 9.89459L69.806 10.3539C69.9303 10.4647 70.0677 10.701 70.1891 11.1242L70.7575 10.9527ZM70.2092 9.9093C70.0209 9.71631 69.8338 9.56447 69.6485 9.47797L69.4034 10.0314C69.4963 10.0745 69.6248 10.169 69.7906 10.3392L70.2092 9.9093ZM69.7876 9.61249C69.6976 9.43804 69.6218 9.16767 69.5733 8.78212L68.9859 8.85992C69.0386 9.2783 69.1268 9.63042 69.2642 9.89684L69.7876 9.61249ZM69.5733 8.78333C69.5247 8.38252 69.4999 7.94791 69.4999 7.4789H68.9078C68.9078 7.96949 68.9338 8.42957 68.9859 8.8587L69.5733 8.78333ZM69.4999 7.48711C69.5123 7.01846 69.549 6.57017 69.6106 6.14207L69.025 6.05366C68.9599 6.50732 68.9208 6.97974 68.9078 7.47069L69.4999 7.48711ZM69.6106 6.14207C69.671 5.71855 69.7604 5.38538 69.8711 5.13439L69.3323 4.88286C69.1908 5.20243 69.0901 5.59543 69.025 6.05366L69.6106 6.14207ZM69.5816 5.31182C69.9445 5.33754 70.3969 5.37621 70.9387 5.42795L70.9938 4.82272C70.449 4.77072 69.9919 4.73158 69.6224 4.70542L69.5816 5.31182ZM70.9387 5.42795C71.4858 5.48017 72.0761 5.52586 72.7103 5.56493L72.7458 4.95811C72.117 4.91938 71.5332 4.87423 70.9938 4.82272L70.9387 5.42795ZM72.7168 5.56517C73.3645 5.59126 73.9934 5.60431 74.6038 5.60431V4.99647C74.0017 4.99647 73.3805 4.98359 72.7399 4.9578L72.7168 5.56517ZM74.6038 5.60431C75.5062 5.60431 76.328 5.57827 77.0688 5.52583L77.0279 4.91938C76.3032 4.97068 75.4955 4.99647 74.6038 4.99647V5.60431ZM77.0729 5.52542C77.819 5.46053 78.4578 5.40208 78.9901 5.35008L78.9339 4.74497C78.4045 4.79671 77.768 4.85497 77.0232 4.91975L77.0729 5.52542ZM78.6799 5.14053C78.7894 5.49009 78.8676 5.82453 78.9155 6.14408L79.5005 6.05167C79.4478 5.69692 79.3614 5.33113 79.2436 4.95452L78.6799 5.14053ZM78.9161 6.1459C78.9641 6.45377 78.9878 6.76839 78.9878 7.08988H79.5799C79.5799 6.73709 79.5538 6.39037 79.5005 6.04986L78.9161 6.1459ZM78.9878 7.08988C78.9878 7.54339 78.928 8.07301 78.8048 8.68121L79.3845 8.80521C79.5136 8.1685 79.5799 7.59597 79.5799 7.08988H78.9878ZM78.8036 8.68723C78.6899 9.30766 78.5703 9.92808 78.4448 10.5485L79.0245 10.6725C79.1512 10.0481 79.2714 9.42363 79.3857 8.7992L78.8036 8.68723ZM78.4448 10.5485C78.3151 11.1858 78.2488 11.7647 78.2488 12.2833H78.8409C78.8409 11.8163 78.9013 11.28 79.0245 10.6725L78.4448 10.5485ZM78.2488 12.2833V12.6334H78.8409V12.2833H78.2488ZM78.7888 12.8056C79.2329 12.1431 79.5544 11.3195 79.7628 10.3449L79.1843 10.2148C78.9884 11.1334 78.6911 11.8789 78.3009 12.4612L78.7888 12.8056ZM79.7622 10.3479C79.9837 9.35635 80.079 8.1499 80.0536 6.73411L79.4615 6.74542C79.4869 8.13057 79.3928 9.28413 79.1849 10.2118L79.7622 10.3479ZM79.7368 7.04289C80.0844 7.06842 80.458 7.10672 80.8576 7.15802L80.9311 6.55492C80.5225 6.50246 80.1382 6.46301 79.7788 6.43663L79.7368 7.04289ZM80.8588 7.1582C81.2834 7.21102 81.8009 7.25686 82.4107 7.29594L82.4474 6.68931C81.8447 6.65059 81.3396 6.60567 80.9299 6.55474L80.8588 7.1582ZM82.4107 7.29594C83.0253 7.33539 83.7897 7.3549 84.7028 7.3549V6.74706C83.7968 6.74706 83.0455 6.72767 82.4474 6.68931L82.4107 7.29594ZM84.7028 7.3549C85.4524 7.3549 86.0735 7.33539 86.5644 7.29557L86.5176 6.68968C86.048 6.72767 85.4441 6.74706 84.7028 6.74706V7.3549ZM86.5644 7.29557C87.0457 7.25655 87.4655 7.21741 87.8232 7.17814L87.7598 6.5737C87.4099 6.61224 86.9954 6.6509 86.5176 6.68968L86.5644 7.29557ZM87.832 7.17698C88.1932 7.12586 88.5799 7.08095 88.9932 7.04241L88.9393 6.43712C88.5183 6.47638 88.1222 6.52228 87.7509 6.57485L87.832 7.17698ZM88.6894 6.84796C88.7806 7.09389 88.8588 7.41526 88.9197 7.81759L89.5047 7.72374C89.4396 7.29618 89.3538 6.93026 89.2424 6.63157L88.6894 6.84796ZM88.9203 7.81905C88.9807 8.20333 89.0109 8.61496 89.0109 9.05443H89.603C89.603 8.58615 89.5705 8.14194 89.5047 7.72228L88.9203 7.81905ZM89.0109 9.06312C89.0234 9.50569 89.0109 9.92766 88.9742 10.3293L89.564 10.386C89.603 9.95768 89.6161 9.51086 89.603 9.04574L89.0109 9.06312ZM88.9736 10.3381C88.9493 10.7236 88.8955 11.0331 88.8179 11.273L89.3798 11.4652C89.4787 11.1604 89.5385 10.7957 89.5646 10.3772L88.9736 10.3381ZM89.0186 11.0764C88.3756 11.2613 87.8161 11.4677 87.343 11.6972L87.5958 12.2469C88.0316 12.0355 88.5586 11.84 89.1785 11.6618L89.0186 11.0764ZM87.34 11.6987C86.8847 11.9256 86.4726 12.174 86.1037 12.4444L86.4477 12.9391C86.7864 12.6908 87.1695 12.4594 87.5988 12.2455L87.34 11.6987ZM85.9941 12.7867C86.3204 13.8047 86.7763 14.6333 87.3714 15.2578L87.7947 14.8328C87.2778 14.2903 86.8622 13.5498 86.5567 12.5968L85.9941 12.7867ZM87.3761 15.2626C87.9629 15.8517 88.5864 16.3241 89.2466 16.6765L89.5195 16.1373C88.9168 15.8154 88.3401 15.3801 87.79 14.828L87.3761 15.2626ZM89.1033 16.5073C89.1797 16.7315 89.2336 17.0325 89.2578 17.4185L89.8488 17.3793C89.8227 16.9613 89.7629 16.601 89.6622 16.3065L89.1033 16.5073ZM89.259 17.4282C89.2951 17.8161 89.3076 18.2313 89.2951 18.674L89.8872 18.6914C89.9003 18.2264 89.8872 17.7857 89.8482 17.3696L89.259 17.4282ZM89.2951 18.6827C89.2951 19.1086 89.2649 19.5208 89.204 19.9195L89.789 20.0134C89.8547 19.5822 89.8872 19.1385 89.8872 18.6827H89.2951ZM89.204 19.9195C89.143 20.3218 89.0648 20.6432 88.9736 20.8891L89.5272 21.1055C89.638 20.8068 89.7238 20.4409 89.789 20.0134L89.204 19.9195ZM89.2792 20.6949C88.764 20.6433 88.1915 20.5786 87.5615 20.5011L87.491 21.1046C88.1239 21.1826 88.7013 21.2477 89.2217 21.2998L89.2792 20.6949ZM87.5615 20.5011C86.9143 20.4213 86.1185 20.3822 85.1765 20.3822V20.99C86.1043 20.99 86.8752 21.0287 87.491 21.1046L87.5615 20.5011ZM85.1765 20.3822C84.1379 20.3822 83.2853 20.4017 82.6203 20.441L82.6547 21.0479C83.3036 21.0094 84.1438 20.99 85.1765 20.99V20.3822ZM82.6203 20.441C81.9619 20.4801 81.416 20.5191 80.982 20.5584L81.0341 21.1639C81.4598 21.1254 81.9992 21.0867 82.6547 21.0479L82.6203 20.441ZM80.9725 20.5594C80.5569 20.6112 80.1732 20.6564 79.8209 20.6951L79.8842 21.2996C80.2395 21.2605 80.6261 21.2149 81.0436 21.1629L80.9725 20.5594ZM80.1477 21.0226C80.1856 20.5544 80.217 20.1248 80.2424 19.7338L79.6515 19.6933C79.6267 20.0804 79.5953 20.5066 79.5574 20.9721L80.1477 21.0226ZM80.2424 19.7331C80.2679 19.3258 80.2809 18.9496 80.2809 18.6049H79.6888C79.6888 18.9344 79.6764 19.2973 79.6515 19.694L80.2424 19.7331ZM80.2809 18.6049C80.2809 18.0508 80.2555 17.5399 80.2034 17.0726L79.6148 17.1417C79.664 17.5821 79.6888 18.0697 79.6888 18.6049H80.2809ZM80.2034 17.0726C80.1489 16.5825 80.0121 16.119 79.7936 15.684L79.2672 15.9627C79.4526 16.3317 79.5686 16.724 79.6148 17.1417L80.2034 17.0726ZM79.7936 15.684C79.5674 15.2343 79.2074 14.814 78.7308 14.4196L78.3595 14.893C78.7918 15.2507 79.089 15.6085 79.2672 15.9627L79.7936 15.684ZM78.2488 14.6563V16.4069H78.8409V14.6563H78.2488ZM78.5449 16.7108H79.227V16.103H78.5449V16.7108ZM78.9475 16.5073C79.0239 16.7306 79.0778 17.0375 79.102 17.4373L79.693 17.3994C79.6669 16.9693 79.6071 16.6019 79.5064 16.3065L78.9475 16.5073ZM79.1032 17.4476C79.1393 17.8356 79.1518 18.2507 79.1394 18.6934L79.7315 18.7108C79.7445 18.2458 79.7315 17.8051 79.6924 17.3891L79.1032 17.4476ZM79.1394 18.7021C79.1394 19.1415 79.1092 19.5601 79.0482 19.9584L79.6332 20.0523C79.6989 19.6206 79.7315 19.1705 79.7315 18.7021H79.1394ZM79.0488 19.9569C78.9872 20.3459 78.9096 20.653 78.8196 20.8845L79.3691 21.1102C79.481 20.823 79.568 20.4688 79.6332 20.0537L79.0488 19.9569ZM79.1228 20.6948C78.5922 20.6429 77.9291 20.578 77.1333 20.5002L77.077 21.1053C77.8728 21.1831 78.536 21.248 79.0665 21.2999L79.1228 20.6948ZM77.1286 20.4999C76.3369 20.4343 75.4949 20.4016 74.6038 20.4016V21.0095C75.4813 21.0095 76.3067 21.0416 77.0812 21.1058L77.1286 20.4999ZM74.6038 20.4016C73.9934 20.4016 73.3705 20.4147 72.7351 20.4407L72.7588 21.0481C73.387 21.0224 74.0017 21.0095 74.6038 21.0095V20.4016ZM72.7292 20.4411C72.1093 20.4801 71.5272 20.519 70.9831 20.5579L71.0246 21.1644C71.5669 21.1255 72.1472 21.0867 72.7653 21.0478L72.7292 20.4411ZM70.9766 20.5585C70.4324 20.6105 69.983 20.656 69.6272 20.6951L69.6905 21.2996C70.0422 21.2608 70.4887 21.2156 71.0317 21.1638L70.9766 20.5585Z" fill="white"/>
</g>
<path d="M38.1909 7.75005C39.2537 7.75005 40.1153 6.8656 40.1153 5.77456C40.1153 4.68353 39.2537 3.79907 38.1909 3.79907C37.1282 3.79907 36.2666 4.68353 36.2666 5.77456C36.2666 6.8656 37.1282 7.75005 38.1909 7.75005Z" fill="white" stroke="white" stroke-width="0.5"/>
<path d="M42.9273 7.75005C43.9901 7.75005 44.8516 6.8656 44.8516 5.77456C44.8516 4.68353 43.9901 3.79907 42.9273 3.79907C41.8645 3.79907 41.0029 4.68353 41.0029 5.77456C41.0029 6.8656 41.8645 7.75005 42.9273 7.75005Z" fill="white" stroke="white" stroke-width="0.5"/>
<path d="M38.1909 6.68632C38.6814 6.68632 39.0791 6.27811 39.0791 5.77456C39.0791 5.271 38.6814 4.86279 38.1909 4.86279C37.7004 4.86279 37.3027 5.271 37.3027 5.77456C37.3027 6.27811 37.7004 6.68632 38.1909 6.68632Z" fill="black"/>
<path d="M42.9272 6.68632C43.4177 6.68632 43.8154 6.27811 43.8154 5.77456C43.8154 5.271 43.4177 4.86279 42.9272 4.86279C42.4367 4.86279 42.0391 5.271 42.0391 5.77456C42.0391 6.27811 42.4367 6.68632 42.9272 6.68632Z" fill="black"/>
</svg>
