<svg width="339" height="116" viewBox="0 0 339 116" fill="none" xmlns="http://www.w3.org/2000/svg">
<g clip-path="url(#clip0_546_553)">
<path d="M3.19818 78.5709C2.81757 77.6003 2.5083 76.363 2.2704 74.8589C2.03251 73.3061 1.88977 71.6807 1.84219 69.9823C1.84219 68.284 1.88977 66.6827 1.98493 65.1786C2.12767 63.6258 2.36556 62.3643 2.69861 61.3938C3.79293 61.0055 4.79209 60.2292 5.69608 59.0647C6.60009 57.9001 7.05208 56.129 7.05208 53.7514C7.05208 51.1796 6.86177 49.3116 6.48113 48.147C6.10052 46.9825 5.57714 46.2303 4.91103 45.8907C4.29251 45.5025 3.55503 45.2841 2.69861 45.2357C2.2704 44.4107 1.96114 43.2462 1.77083 41.742C1.58051 40.2379 1.48535 38.6123 1.48535 36.8655C1.53293 35.0702 1.67567 33.3718 1.91356 31.7706C2.15146 30.1209 2.5083 28.7621 2.98408 27.6947C9.35967 27.3064 15.4498 26.8212 21.2544 26.239C27.0591 25.6083 33.054 24.9289 39.2392 24.201C39.6674 25.5596 39.9768 26.9912 40.167 28.4953C40.405 29.951 40.5239 31.3095 40.5239 32.5712C40.5239 34.8519 40.2859 36.9383 39.8102 38.8307C39.382 40.6746 38.9299 42.5427 38.4542 44.435C37.9785 46.279 37.7405 48.3411 37.7405 50.6217C37.7405 54.2125 38.1926 56.8084 39.0965 58.4096C40.0482 60.0109 41.0473 61.0055 42.094 61.3938C42.5222 62.8979 42.7838 64.7662 42.879 66.9982C42.9743 69.1817 42.9029 71.3409 42.6649 73.476C42.4747 75.5624 42.1178 77.2608 41.5944 78.5709C40.2623 78.4253 38.5256 78.2554 36.3845 78.0614C34.291 77.9158 31.9835 77.7703 29.4618 77.6247C26.94 77.5276 24.3946 77.4791 21.8253 77.4791C19.5416 77.4791 17.2102 77.5276 14.8312 77.6247C12.4999 77.7703 10.3113 77.9158 8.26534 78.0614C6.21946 78.2554 4.53041 78.4253 3.19818 78.5709ZM79.4683 86.3588C72.9024 86.3588 67.2879 85.8009 62.6253 84.6848C58.01 83.5687 54.4655 81.7734 51.9914 79.2987C49.5649 76.8241 48.3516 73.5488 48.3516 69.4728C48.3516 65.2514 49.6363 62.0488 52.2055 59.8653C54.8223 57.6818 58.5335 56.59 63.339 56.59C68.0968 56.59 71.5464 57.4878 73.6874 59.283C75.876 61.0783 77.2795 63.5773 77.8982 66.7798L79.9679 66.4887C79.4919 64.1111 78.8496 62.3156 78.0409 61.1027C77.2795 59.8897 76.5183 58.9435 75.7571 58.2641V52.6597L78.4691 52.5869V48.6565H74.6866V54.5521C70.452 54.7461 66.2888 54.916 62.1971 55.0616C58.1528 55.1587 53.7993 55.11 49.1367 54.916C48.756 51.3252 48.4944 47.7347 48.3516 44.1439C48.2564 40.5047 48.3039 37.1082 48.4944 33.9541C48.6846 30.7516 49.0176 27.9858 49.4935 25.6567C50.8732 25.6567 52.5624 25.681 54.5607 25.7295C56.559 25.7779 58.6762 25.8507 60.9125 25.9478C63.1963 25.9963 65.4087 26.045 67.5498 26.0934C69.6908 26.1418 71.5939 26.1905 73.2592 26.239C72.4503 27.258 71.808 28.5681 71.3323 30.1693C70.9041 31.7706 70.9041 33.3234 71.3323 34.8275C71.9507 32.1588 73.1879 30.0722 75.0434 28.5681C76.899 27.0153 79.2542 25.9235 82.1089 25.2928C85.0112 24.6621 88.2466 24.3466 91.815 24.3466C96.1921 24.3466 99.9985 24.8804 103.234 25.9478C106.469 27.0153 108.991 28.8108 110.799 31.3339C112.607 33.857 113.511 37.3022 113.511 41.6692C113.511 43.9012 113.035 46.0363 112.084 48.0743C111.132 50.0638 109.467 52.2714 107.088 54.6976C108.753 56.0562 110.228 57.7546 111.513 59.7925C112.845 61.782 113.511 64.1596 113.511 66.9254C113.511 73.4275 110.609 78.2798 104.804 81.4823C98.9994 84.7332 90.554 86.3588 79.4683 86.3588ZM150.975 79.881C129.232 79.881 118.36 70.8557 118.36 52.8052C118.36 42.955 121.096 35.7253 126.567 31.1155C132.087 26.5058 140.342 24.201 151.332 24.201C162.989 24.201 171.458 26.4817 176.739 31.0427C182.068 35.5554 184.733 42.2272 184.733 51.0584C184.733 61.0055 181.925 68.3083 176.311 72.9665C170.697 77.5762 162.252 79.881 150.975 79.881ZM149.619 56.0078H153.473V48.0743H149.619V56.0078ZM223.071 79.881C201.328 79.881 190.456 70.8557 190.456 52.8052C190.456 42.955 193.192 35.7253 198.664 31.1155C204.183 26.5058 212.438 24.201 223.428 24.201C235.085 24.201 243.554 26.4817 248.835 31.0427C254.165 35.5554 256.828 42.2272 256.828 51.0584C256.828 61.0055 254.023 68.3083 248.407 72.9665C242.793 77.5762 234.347 79.881 223.071 79.881ZM221.716 56.0078H225.569V48.0743H221.716V56.0078ZM262.379 78.5709C262 77.6003 261.69 76.363 261.452 74.8589C261.215 73.3061 261.072 71.6807 261.023 69.9823C261.023 68.284 261.072 66.6827 261.166 65.1786C261.309 63.6258 261.547 62.3643 261.88 61.3938C262.593 61.1027 263.285 60.6175 263.949 59.9381C264.616 59.2103 265.163 57.9973 265.591 56.2989C266.019 54.5521 266.233 52.0531 266.233 48.8021C266.233 45.454 265.972 42.955 265.448 41.3053C264.973 39.6556 264.378 38.5152 263.664 37.8845C262.999 37.2051 262.404 36.7442 261.88 36.5016C261.452 35.6766 261.144 34.512 260.952 33.0079C260.762 31.4551 260.666 29.7811 260.666 27.9858C260.716 26.1905 260.858 24.4678 261.095 22.8181C261.333 21.1683 261.69 19.8097 262.165 18.7422C263.546 18.8392 265.259 18.9848 267.304 19.1789C269.351 19.373 271.564 19.5428 273.941 19.6884C276.368 19.7854 278.723 19.834 281.006 19.834C284.385 19.834 287.454 19.7369 290.213 19.5428C293.021 19.3002 295.423 19.0818 297.421 18.8878C297.849 20.2464 298.159 21.5565 298.349 22.8181C298.541 24.0311 298.634 25.2684 298.634 26.5301C298.634 28.3254 298.398 30.3877 297.921 32.7168C297.493 35.0459 297.042 37.375 296.565 39.7041C296.09 42.0332 295.851 44.1196 295.851 45.9635V47.2736C297.421 44.9445 298.588 42.0088 299.348 38.4667C300.158 34.876 300.515 30.4605 300.419 25.22C301.752 25.3171 303.18 25.4627 304.701 25.6567C306.271 25.8507 308.198 26.0206 310.482 26.1662C312.765 26.3118 315.62 26.3845 319.046 26.3845C321.854 26.3845 324.162 26.3118 325.969 26.1662C327.777 26.0206 329.347 25.8751 330.679 25.7295C332.059 25.5355 333.534 25.3656 335.104 25.22C335.485 26.239 335.795 27.5248 336.032 29.0776C336.27 30.5817 336.388 32.1829 336.388 33.8813C336.437 35.5797 336.388 37.2051 336.246 38.7579C336.152 40.262 335.938 41.5237 335.603 42.5427C333.226 43.2221 331.178 43.974 329.466 44.799C327.802 45.6239 326.303 46.5215 324.969 47.492C326.16 51.1796 327.802 54.1154 329.894 56.2989C332.035 58.434 334.296 60.1321 336.674 61.3938C337.008 62.3643 337.222 63.6017 337.316 65.1058C337.459 66.6099 337.508 68.2112 337.459 69.9096C337.459 71.5593 337.341 73.1605 337.102 74.7133C336.866 76.2661 336.556 77.5519 336.174 78.5709C334.225 78.3769 332.059 78.1342 329.68 77.843C327.302 77.5519 324.352 77.4063 320.83 77.4063C316.929 77.4063 313.742 77.4791 311.267 77.6247C308.793 77.7703 306.748 77.9158 305.129 78.0614C303.559 78.2554 302.109 78.4253 300.776 78.5709C300.918 76.8241 301.039 75.2228 301.132 73.7671C301.228 72.263 301.275 70.8801 301.275 69.6184C301.275 67.5805 301.181 65.7124 300.99 64.014C300.8 62.3156 300.325 60.7144 299.562 59.2103C298.802 57.7061 297.564 56.2504 295.851 54.8432V61.3938H298.42C298.755 62.3643 298.969 63.6258 299.063 65.1786C299.205 66.6827 299.254 68.284 299.205 69.9823C299.205 71.6807 299.087 73.3061 298.849 74.8589C298.612 76.363 298.302 77.6003 297.921 78.5709C295.922 78.3769 293.425 78.1342 290.427 77.843C287.479 77.6003 284.339 77.4791 281.006 77.4791C278.723 77.4791 276.392 77.5276 274.012 77.6247C271.682 77.7703 269.494 77.9158 267.446 78.0614C265.401 78.2554 263.713 78.4253 262.379 78.5709Z" fill="#FFF48B"/>
<mask id="mask0_546_553" style="mask-type:luminance" maskUnits="userSpaceOnUse" x="0" y="15" width="339" height="74">
<path d="M339 15.9219H0V88.7062H339V15.9219Z" fill="white"/>
<path d="M3.19818 78.5709C2.81757 77.6003 2.5083 76.363 2.2704 74.8589C2.03251 73.3061 1.88977 71.6807 1.84219 69.9823C1.84219 68.284 1.88977 66.6827 1.98493 65.1786C2.12767 63.6258 2.36556 62.3643 2.69861 61.3938C3.79293 61.0055 4.79209 60.2292 5.69608 59.0647C6.60009 57.9001 7.05208 56.129 7.05208 53.7514C7.05208 51.1796 6.86177 49.3116 6.48113 48.147C6.10052 46.9825 5.57714 46.2303 4.91103 45.8907C4.29251 45.5025 3.55503 45.2841 2.69861 45.2357C2.2704 44.4107 1.96114 43.2462 1.77083 41.742C1.58051 40.2379 1.48535 38.6123 1.48535 36.8655C1.53293 35.0702 1.67567 33.3718 1.91356 31.7706C2.15146 30.1209 2.5083 28.7621 2.98408 27.6947C9.35967 27.3064 15.4498 26.8212 21.2544 26.239C27.0591 25.6083 33.054 24.9289 39.2392 24.201C39.6674 25.5596 39.9768 26.9912 40.167 28.4953C40.405 29.951 40.5239 31.3095 40.5239 32.5712C40.5239 34.8519 40.2859 36.9383 39.8102 38.8307C39.382 40.6746 38.9299 42.5427 38.4542 44.435C37.9785 46.279 37.7405 48.3411 37.7405 50.6217C37.7405 54.2125 38.1926 56.8084 39.0965 58.4096C40.0482 60.0109 41.0473 61.0055 42.094 61.3938C42.5222 62.8979 42.7838 64.7662 42.879 66.9982C42.9743 69.1817 42.9029 71.3409 42.6649 73.476C42.4747 75.5624 42.1178 77.2608 41.5944 78.5709C40.2623 78.4253 38.5256 78.2554 36.3845 78.0614C34.291 77.9158 31.9835 77.7703 29.4618 77.6247C26.94 77.5276 24.3946 77.4791 21.8253 77.4791C19.5416 77.4791 17.2102 77.5276 14.8312 77.6247C12.4999 77.7703 10.3113 77.9158 8.26534 78.0614C6.21946 78.2554 4.53041 78.4253 3.19818 78.5709ZM79.4683 86.3588C72.9024 86.3588 67.2879 85.8009 62.6253 84.6848C58.01 83.5687 54.4655 81.7734 51.9914 79.2987C49.5649 76.8241 48.3516 73.5488 48.3516 69.4728C48.3516 65.2514 49.6363 62.0488 52.2055 59.8653C54.8223 57.6818 58.5335 56.59 63.339 56.59C68.0968 56.59 71.5464 57.4878 73.6874 59.283C75.876 61.0783 77.2795 63.5773 77.8982 66.7798L79.9679 66.4887C79.4919 64.1111 78.8496 62.3156 78.0409 61.1027C77.2795 59.8897 76.5183 58.9435 75.7571 58.2641V52.6597L78.4691 52.5869V48.6565H74.6866V54.5521C70.452 54.7461 66.2888 54.916 62.1971 55.0616C58.1528 55.1587 53.7993 55.11 49.1367 54.916C48.756 51.3252 48.4944 47.7347 48.3516 44.1439C48.2564 40.5047 48.3039 37.1082 48.4944 33.9541C48.6846 30.7516 49.0176 27.9858 49.4935 25.6567C50.8732 25.6567 52.5624 25.681 54.5607 25.7295C56.559 25.7779 58.6762 25.8507 60.9125 25.9478C63.1963 25.9963 65.4087 26.045 67.5498 26.0934C69.6908 26.1418 71.5939 26.1905 73.2592 26.239C72.4503 27.258 71.808 28.5681 71.3323 30.1693C70.9041 31.7706 70.9041 33.3234 71.3323 34.8275C71.9507 32.1588 73.1879 30.0722 75.0434 28.5681C76.899 27.0153 79.2542 25.9235 82.1089 25.2928C85.0112 24.6621 88.2466 24.3466 91.815 24.3466C96.1921 24.3466 99.9985 24.8804 103.234 25.9478C106.469 27.0153 108.991 28.8108 110.799 31.3339C112.607 33.857 113.511 37.3022 113.511 41.6692C113.511 43.9012 113.035 46.0363 112.084 48.0743C111.132 50.0638 109.467 52.2714 107.088 54.6976C108.753 56.0562 110.228 57.7546 111.513 59.7925C112.845 61.782 113.511 64.1596 113.511 66.9254C113.511 73.4275 110.609 78.2798 104.804 81.4823C98.9994 84.7332 90.554 86.3588 79.4683 86.3588ZM150.975 79.881C129.232 79.881 118.36 70.8557 118.36 52.8052C118.36 42.955 121.096 35.7253 126.567 31.1155C132.087 26.5058 140.342 24.201 151.332 24.201C162.989 24.201 171.458 26.4817 176.739 31.0427C182.068 35.5554 184.733 42.2272 184.733 51.0584C184.733 61.0055 181.925 68.3083 176.311 72.9665C170.697 77.5762 162.252 79.881 150.975 79.881ZM149.619 56.0078H153.473V48.0743H149.619V56.0078ZM223.071 79.881C201.328 79.881 190.456 70.8557 190.456 52.8052C190.456 42.955 193.192 35.7253 198.664 31.1155C204.183 26.5058 212.438 24.201 223.428 24.201C235.085 24.201 243.554 26.4817 248.835 31.0427C254.165 35.5554 256.828 42.2272 256.828 51.0584C256.828 61.0055 254.023 68.3083 248.407 72.9665C242.793 77.5762 234.347 79.881 223.071 79.881ZM221.716 56.0078H225.569V48.0743H221.716V56.0078ZM262.379 78.5709C262 77.6003 261.69 76.363 261.452 74.8589C261.215 73.3061 261.072 71.6807 261.023 69.9823C261.023 68.284 261.072 66.6827 261.166 65.1786C261.309 63.6258 261.547 62.3643 261.88 61.3938C262.593 61.1027 263.285 60.6175 263.949 59.9381C264.616 59.2103 265.163 57.9973 265.591 56.2989C266.019 54.5521 266.233 52.0531 266.233 48.8021C266.233 45.454 265.972 42.955 265.448 41.3053C264.973 39.6556 264.378 38.5152 263.664 37.8845C262.999 37.2051 262.404 36.7442 261.88 36.5016C261.452 35.6766 261.144 34.512 260.952 33.0079C260.762 31.4551 260.666 29.7811 260.666 27.9858C260.716 26.1905 260.858 24.4678 261.095 22.8181C261.333 21.1683 261.69 19.8097 262.165 18.7422C263.546 18.8392 265.259 18.9848 267.304 19.1789C269.351 19.373 271.564 19.5428 273.941 19.6884C276.368 19.7854 278.723 19.834 281.006 19.834C284.385 19.834 287.454 19.7369 290.213 19.5428C293.021 19.3002 295.423 19.0818 297.421 18.8878C297.849 20.2464 298.159 21.5565 298.349 22.8181C298.541 24.0311 298.634 25.2684 298.634 26.5301C298.634 28.3254 298.398 30.3877 297.921 32.7168C297.493 35.0459 297.042 37.375 296.565 39.7041C296.09 42.0332 295.851 44.1196 295.851 45.9635V47.2736C297.421 44.9445 298.588 42.0088 299.348 38.4667C300.158 34.876 300.515 30.4605 300.419 25.22C301.752 25.3171 303.18 25.4627 304.701 25.6567C306.271 25.8507 308.198 26.0206 310.482 26.1662C312.765 26.3118 315.62 26.3845 319.046 26.3845C321.854 26.3845 324.162 26.3118 325.969 26.1662C327.777 26.0206 329.347 25.8751 330.679 25.7295C332.059 25.5355 333.534 25.3656 335.104 25.22C335.485 26.239 335.795 27.5248 336.032 29.0776C336.27 30.5817 336.388 32.1829 336.388 33.8813C336.437 35.5797 336.388 37.2051 336.246 38.7579C336.152 40.262 335.938 41.5237 335.603 42.5427C333.226 43.2221 331.178 43.974 329.466 44.799C327.802 45.6239 326.303 46.5215 324.969 47.492C326.16 51.1796 327.802 54.1154 329.894 56.2989C332.035 58.434 334.296 60.1321 336.674 61.3938C337.008 62.3643 337.222 63.6017 337.316 65.1058C337.459 66.6099 337.508 68.2112 337.459 69.9096C337.459 71.5593 337.341 73.1605 337.102 74.7133C336.866 76.2661 336.556 77.5519 336.174 78.5709C334.225 78.3769 332.059 78.1342 329.68 77.843C327.302 77.5519 324.352 77.4063 320.83 77.4063C316.929 77.4063 313.742 77.4791 311.267 77.6247C308.793 77.7703 306.748 77.9158 305.129 78.0614C303.559 78.2554 302.109 78.4253 300.776 78.5709C300.918 76.8241 301.039 75.2228 301.132 73.7671C301.228 72.263 301.275 70.8801 301.275 69.6184C301.275 67.5805 301.181 65.7124 300.99 64.014C300.8 62.3156 300.325 60.7144 299.562 59.2103C298.802 57.7061 297.564 56.2504 295.851 54.8432V61.3938H298.42C298.755 62.3643 298.969 63.6258 299.063 65.1786C299.205 66.6827 299.254 68.284 299.205 69.9823C299.205 71.6807 299.087 73.3061 298.849 74.8589C298.612 76.363 298.302 77.6003 297.921 78.5709C295.922 78.3769 293.425 78.1342 290.427 77.843C287.479 77.6003 284.339 77.4791 281.006 77.4791C278.723 77.4791 276.392 77.5276 274.012 77.6247C271.682 77.7703 269.494 77.9158 267.446 78.0614C265.401 78.2554 263.713 78.4253 262.379 78.5709Z" fill="black"/>
</mask>
<g mask="url(#mask0_546_553)">
<path d="M3.19808 78.5713L2.16272 78.9936L2.47659 79.7938L3.31689 79.7021L3.19808 78.5713ZM2.27029 74.8593L1.16852 75.0348L1.1694 75.0403L2.27029 74.8593ZM1.84209 69.9827H0.726959V69.9989L0.727414 70.0152L1.84209 69.9827ZM1.98483 65.1789L0.874565 65.0727L0.873053 65.0893L0.872009 65.1057L1.98483 65.1789ZM2.6985 61.3942L2.33216 60.3201L1.8238 60.5003L1.64599 61.0184L2.6985 61.3942ZM4.91092 45.8911L4.32648 46.8596L4.3683 46.886L4.41224 46.9083L4.91092 45.8911ZM2.6985 45.236L1.71297 45.7681L2.0077 46.336L2.63666 46.3715L2.6985 45.236ZM1.48525 36.8658L0.370117 36.8351V36.8658H1.48525ZM1.91346 31.7709L3.01603 31.9413L3.01672 31.9363L1.91346 31.7709ZM2.98398 27.695L2.91754 26.5598L2.24683 26.6005L1.96881 27.2244L2.98398 27.695ZM21.2543 26.2393L21.3635 27.3711L21.3725 27.3702L21.2543 26.2393ZM39.2391 24.2014L40.3007 23.8534L40.0206 22.9645L39.1113 23.0716L39.2391 24.2014ZM40.1669 28.4956L39.0609 28.6412L39.0636 28.6619L39.067 28.6826L40.1669 28.4956ZM39.8101 38.831L38.7297 38.5485L38.7251 38.569L39.8101 38.831ZM38.4541 44.4354L39.5326 44.7247L39.5342 44.7179L38.4541 44.4354ZM39.0964 58.41L38.1298 58.9775L38.1427 58.9993L39.0964 58.41ZM42.0939 61.3942L43.1648 61.0771L43.0069 60.5226L42.475 60.3254L42.0939 61.3942ZM42.6648 73.4764L41.5566 73.3478L41.5546 73.371L42.6648 73.4764ZM41.5943 78.5713L41.4754 79.7021L42.3102 79.7933L42.6271 79.0002L41.5943 78.5713ZM36.3844 78.0618L36.4832 76.9288L36.4602 76.9272L36.3844 78.0618ZM29.4617 77.6251L29.5248 76.4894L29.5038 76.4887L29.4617 77.6251ZM14.8311 77.6251L14.7866 76.4885L14.763 76.4898L14.8311 77.6251ZM8.26524 78.0618L8.18763 76.927L8.16196 76.9293L8.26524 78.0618ZM4.23346 78.1489C3.8937 77.2827 3.6014 76.1337 3.3712 74.6782L1.1694 75.0403C1.41499 76.5933 1.74121 77.9189 2.16272 78.9936L4.23346 78.1489ZM3.37206 74.6837C3.14199 73.182 3.00311 71.6044 2.95677 69.9502L0.727414 70.0152C0.776228 71.7575 0.922814 73.4311 1.16852 75.0348L3.37206 74.6837ZM2.95721 69.9827C2.95721 68.3059 3.00421 66.7292 3.09765 65.2522L0.872009 65.1057C0.775131 66.6371 0.726959 68.263 0.726959 69.9827H2.95721ZM3.09509 65.2852C3.23325 63.7822 3.45902 62.6208 3.75103 61.7699L1.64599 61.0184C1.27189 62.1086 1.02188 63.4703 0.874565 65.0727L3.09509 65.2852ZM3.06485 62.4682C4.40506 61.9928 5.56838 61.0616 6.57031 59.7711L4.82167 58.3591C4.01558 59.3976 3.1806 60.019 2.33216 60.3201L3.06485 62.4682ZM6.57031 59.7711C7.69951 58.3163 8.16711 56.2422 8.16711 53.7518H5.93685C5.93685 56.0165 5.50045 57.4847 4.82167 58.3591L6.57031 59.7711ZM8.16711 53.7518C8.16711 51.1614 7.97995 49.1371 7.53896 47.7878L5.42313 48.507C5.74339 49.4869 5.93685 51.1987 5.93685 53.7518H8.16711ZM7.53896 47.7878C7.12002 46.5061 6.46361 45.4114 5.40963 44.8739L4.41224 46.9083C4.69046 47.0502 5.0808 47.4596 5.42313 48.507L7.53896 47.7878ZM5.49537 44.9226C4.69265 44.4188 3.76836 44.1577 2.76037 44.1006L2.63666 46.3715C3.34151 46.4115 3.89216 46.5871 4.32648 46.8596L5.49537 44.9226ZM3.68406 44.704C3.34521 44.0513 3.05923 43.0395 2.87668 41.5968L0.664759 41.888C0.862849 43.4535 1.19538 44.7711 1.71297 45.7681L3.68406 44.704ZM2.87668 41.5968C2.69331 40.1475 2.60037 38.571 2.60037 36.8658H0.370117C0.370117 38.6543 0.467504 40.3288 0.664759 41.888L2.87668 41.5968ZM2.59997 36.8966C2.64645 35.1429 2.78571 33.4916 3.01603 31.9413L0.810911 31.6006C0.565453 33.2528 0.418804 34.998 0.370117 36.8351L2.59997 36.8966ZM3.01672 31.9363C3.24525 30.3514 3.58057 29.1048 3.99917 28.1656L1.96881 27.2244C1.43583 28.4201 1.05745 29.8908 0.810193 31.6056L3.01672 31.9363ZM3.05044 28.8302C9.43896 28.4413 15.5433 27.955 21.3635 27.3711L21.1451 25.1075C15.356 25.6882 9.28017 26.1725 2.91754 26.5598L3.05044 28.8302ZM21.3725 27.3702C27.1805 26.739 33.1786 26.0594 39.3669 25.3311L39.1113 23.0716C32.9291 23.799 26.9374 24.478 21.1362 25.1084L21.3725 27.3702ZM38.1775 24.5494C38.5837 25.8381 38.8787 27.2015 39.0609 28.6412L41.2729 28.3501C41.0744 26.7814 40.751 25.282 40.3007 23.8534L38.1775 24.5494ZM39.067 28.6826C39.2965 30.0867 39.4086 31.382 39.4086 32.5716H41.6389C41.6389 31.2378 41.5133 29.816 41.2669 28.3087L39.067 28.6826ZM39.4086 32.5716C39.4086 34.7724 39.1787 36.7624 38.7297 38.5485L40.8902 39.1135C41.3927 37.1149 41.6389 34.9321 41.6389 32.5716H39.4086ZM38.7251 38.569C38.2984 40.4059 37.8481 42.2671 37.374 44.1529L39.5342 44.7179C40.0117 42.8189 40.4653 40.944 40.8951 39.093L38.7251 38.569ZM37.3757 44.1461C36.8713 46.1006 36.6253 48.2623 36.6253 50.6221H38.8555C38.8555 48.4208 39.0855 46.4579 39.5326 44.7247L37.3757 44.1461ZM36.6253 50.6221C36.6253 54.2565 37.0733 57.106 38.1298 58.9775L40.0628 57.8425C39.3114 56.5115 38.8555 54.169 38.8555 50.6221H36.6253ZM38.1427 58.9993C39.1472 60.6897 40.3155 61.9448 41.7127 62.463L42.475 60.3254C41.7787 60.0672 40.9486 59.3328 40.0501 57.8204L38.1427 58.9993ZM41.0229 61.7112C41.4183 63.1 41.6721 64.8714 41.7649 67.0479L43.9929 66.9492C43.8955 64.6615 43.6258 62.6968 43.1648 61.0771L41.0229 61.7112ZM41.7649 67.0479C41.8575 69.1728 41.7879 71.2733 41.5566 73.3478L43.7728 73.6049C44.0175 71.4093 44.0906 69.1914 43.9929 66.9492L41.7649 67.0479ZM41.5546 73.371C41.3699 75.3945 41.0289 76.9723 40.5617 78.1423L42.6271 79.0002C43.2063 77.55 43.579 75.7313 43.7753 73.5817L41.5546 73.371ZM41.7132 77.4404C40.3714 77.2939 38.6274 77.1231 36.4832 76.9288L36.2856 79.1945C38.4235 79.3883 40.1527 79.5575 41.4754 79.7021L41.7132 77.4404ZM36.4602 76.9272C34.3618 76.7812 32.0499 76.6352 29.5248 76.4894L29.3985 78.7605C31.917 78.9058 34.2202 79.0512 36.3086 79.1963L36.4602 76.9272ZM29.5038 76.4887C26.9678 76.3909 24.4083 76.3422 21.8252 76.3422V78.6167C24.3807 78.6167 26.9122 78.665 29.4195 78.7614L29.5038 76.4887ZM21.8252 76.3422C19.526 76.3422 17.1797 76.3909 14.7866 76.4885L14.8757 78.7614C17.2404 78.665 19.5569 78.6167 21.8252 78.6167V76.3422ZM14.763 76.4898C12.4289 76.6356 10.2371 76.7812 8.18763 76.927L8.34285 79.1963C10.3852 79.051 12.5707 78.9056 14.8993 78.7603L14.763 76.4898ZM8.16196 76.9293C6.1133 77.1238 4.41862 77.2941 3.0793 77.4404L3.31689 79.7021C4.64198 79.5573 6.3254 79.388 8.36855 79.1942L8.16196 76.9293ZM62.6252 84.6851L62.3679 85.7917L62.3703 85.7924L62.6252 84.6851ZM51.9913 79.2991L51.2027 80.1034L51.2103 80.1111L51.9913 79.2991ZM52.2054 59.8657L51.4991 58.9855L51.4915 58.992L52.2054 59.8657ZM73.6873 59.2834L72.979 60.1618L72.9884 60.1696L73.6873 59.2834ZM77.8981 66.7802L76.8039 66.9999L77.0073 68.0535L78.0504 67.9068L77.8981 66.7802ZM79.9678 66.4891L80.1201 67.6156L81.2981 67.45L81.0604 66.2616L79.9678 66.4891ZM78.0408 61.103L77.1012 61.7162L77.1186 61.7426L78.0408 61.103ZM75.757 58.2644H74.6419V58.7805L75.0226 59.1203L75.757 58.2644ZM75.757 52.66L75.7276 51.5232L74.6419 51.5524V52.66H75.757ZM78.469 52.5873L78.4982 53.7241L79.5842 53.6949V52.5873H78.469ZM78.469 48.6569H79.5842V47.5196H78.469V48.6569ZM74.6865 48.6569V47.5196H73.5714V48.6569H74.6865ZM74.6865 54.5524L74.7365 55.6885L75.8016 55.6396V54.5524H74.6865ZM62.197 55.0619L62.2231 56.1989L62.2358 56.1985L62.197 55.0619ZM49.1366 54.9164L48.0279 55.0385L48.1312 56.0127L49.0911 56.0527L49.1366 54.9164ZM48.3515 44.1443L47.2366 44.1745L47.2373 44.1905L48.3515 44.1443ZM49.4934 25.6571V24.5198H48.5866L48.4017 25.4251L49.4934 25.6571ZM60.9124 25.9482L60.8649 27.0848L60.889 27.0852L60.9124 25.9482ZM73.2591 26.2393L74.1258 26.9549L75.544 25.1683L73.2908 25.1025L73.2591 26.2393ZM71.3322 30.1697L70.2645 29.8397L70.2563 29.8704L71.3322 30.1697ZM71.3322 34.8279L70.2612 35.145L71.4426 39.295L72.4172 35.0895L71.3322 34.8279ZM75.0433 28.5684L75.7372 29.4589L75.7506 29.4475L75.0433 28.5684ZM82.1088 25.2931L81.8762 24.1809L81.8726 24.1816L82.1088 25.2931ZM112.084 48.0746L113.086 48.5732L113.09 48.5636L112.084 48.0746ZM107.088 54.698L106.299 53.8937L105.418 54.7924L106.391 55.586L107.088 54.698ZM111.513 59.7929L110.574 60.4082L110.592 60.4343L111.513 59.7929ZM104.804 81.4826L104.273 80.4823L104.267 80.4857L104.804 81.4826ZM79.4682 85.2219C72.9587 85.2219 67.4348 84.6681 62.8799 83.5779L62.3703 85.7924C67.1408 86.9342 72.8456 87.4964 79.4682 87.4964V85.2219ZM62.8824 83.5786C58.3949 82.4934 55.0573 80.7728 52.7721 78.4871L51.2103 80.1111C53.8735 82.7748 57.6252 84.6449 62.3679 85.7917L62.8824 83.5786ZM52.7797 78.4948C50.5968 76.2688 49.4667 73.3012 49.4667 69.4732H47.2364C47.2364 73.7971 48.5326 77.3801 51.2027 80.1034L52.7797 78.4948ZM49.4667 69.4732C49.4667 65.5017 50.6637 62.6563 52.9191 60.7393L51.4915 58.992C48.6087 61.4422 47.2364 65.0018 47.2364 69.4732H49.4667ZM52.9115 60.7459C55.26 58.7862 58.6844 57.7276 63.3389 57.7276V55.4531C58.3824 55.4531 54.3844 56.5781 51.4991 58.9855L52.9115 60.7459ZM63.3389 57.7276C68.0066 57.7276 71.1372 58.6174 72.979 60.1618L74.3954 58.405C71.9551 56.3586 68.1868 55.4531 63.3389 55.4531V57.7276ZM72.9884 60.1696C74.9441 61.774 76.2285 64.0212 76.8039 66.9999L78.992 66.5605C78.3303 63.1342 76.8077 60.3836 74.3861 58.3973L72.9884 60.1696ZM78.0504 67.9068L80.1201 67.6156L79.8152 65.3625L77.7455 65.6536L78.0504 67.9068ZM81.0604 66.2616C80.5717 63.8206 79.8917 61.8566 78.9628 60.4634L77.1186 61.7426C77.8075 62.7757 78.4119 64.4024 78.8751 66.7165L81.0604 66.2616ZM78.98 60.49C78.1827 59.2193 77.3561 58.1803 76.4912 57.4085L75.0226 59.1203C75.6803 59.7072 76.3761 60.5608 77.1012 61.7162L78.98 60.49ZM76.8722 58.2644V52.66H74.6419V58.2644H76.8722ZM75.7862 53.7968L78.4982 53.7241L78.4396 51.4505L75.7276 51.5232L75.7862 53.7968ZM79.5842 52.5873V48.6569H77.3539V52.5873H79.5842ZM78.469 47.5196H74.6865V49.7942H78.469V47.5196ZM73.5714 48.6569V54.5524H75.8016V48.6569H73.5714ZM74.6363 53.4163C70.4055 53.6103 66.2461 53.78 62.158 53.9254L62.2358 56.1985C66.3315 56.0527 70.4983 55.8828 74.7365 55.6885L74.6363 53.4163ZM62.1707 53.9249C58.1538 54.0213 53.8244 53.9733 49.1819 53.78L49.0911 56.0527C53.7742 56.2476 58.1518 56.2965 62.2231 56.1989L62.1707 53.9249ZM50.2453 54.7942C49.8672 51.2287 49.6074 47.6634 49.4656 44.0981L47.2373 44.1905C47.3809 47.8067 47.6446 51.4227 48.0279 55.0385L50.2453 54.7942ZM49.4662 44.114C49.3717 40.5032 49.4192 37.1404 49.6072 34.0243L47.3812 33.8846C47.1885 37.0765 47.1407 40.5069 47.2366 44.1745L49.4662 44.114ZM49.6072 34.0243C49.7954 30.8591 50.1233 28.1495 50.5849 25.8891L48.4017 25.4251C47.9117 27.8229 47.5736 30.6448 47.3812 33.8846L49.6072 34.0243ZM49.4934 26.7943C50.8613 26.7943 52.5409 26.8184 54.5341 26.8669L54.5871 24.5928C52.5835 24.5444 50.8849 24.5198 49.4934 24.5198V26.7943ZM54.5341 26.8669C56.5246 26.9151 58.6348 26.9881 60.8649 27.0848L60.9597 24.8121C58.7174 24.7147 56.593 24.6417 54.5871 24.5928L54.5341 26.8669ZM60.889 27.0852C63.1723 27.1337 65.3843 27.1821 67.5247 27.2308L67.5744 24.9567C65.4327 24.9083 63.2198 24.8596 60.9356 24.8112L60.889 27.0852ZM67.5247 27.2308C69.6642 27.2792 71.5648 27.3277 73.2272 27.3761L73.2908 25.1025C71.6228 25.0539 69.717 25.0054 67.5744 24.9567L67.5247 27.2308ZM72.3922 25.5238C71.4716 26.6838 70.771 28.1351 70.2645 29.8397L72.3994 30.4995C72.8443 29.0015 73.4288 27.8329 74.1258 26.9549L72.3922 25.5238ZM70.2563 29.8704C69.7775 31.6611 69.7723 33.4275 70.2612 35.145L72.4029 34.5108C72.0354 33.2198 72.0303 31.8808 72.4078 30.469L70.2563 29.8704ZM72.4172 35.0895C72.9864 32.6339 74.1035 30.7831 75.7372 29.4589L74.3493 27.6782C72.2718 29.3622 70.9149 31.6843 70.2469 34.5663L72.4172 35.0895ZM75.7506 29.4475C77.4429 28.0316 79.6261 27.0054 82.3448 26.4047L81.8726 24.1816C78.8821 24.8426 76.3547 25.9998 74.3359 27.6893L75.7506 29.4475ZM82.3412 26.4054C85.1536 25.7942 88.3094 25.4842 91.8149 25.4842V23.2097C88.1834 23.2097 84.8685 23.5306 81.8762 24.1809L82.3412 26.4054ZM91.8149 25.4842C96.1073 25.4842 99.7926 26.008 102.89 27.0302L103.577 24.8662C100.204 23.7533 96.277 23.2097 91.8149 23.2097V25.4842ZM102.89 27.0302C105.928 28.0326 108.244 29.6966 109.899 32.0052L111.699 30.6633C109.737 27.9254 107.01 25.9989 103.577 24.8662L102.89 27.0302ZM109.899 32.0052C111.521 34.2697 112.396 37.4504 112.396 41.6696H114.626C114.626 37.1547 113.692 33.445 111.699 30.6633L109.899 32.0052ZM112.396 41.6696C112.396 43.7305 111.958 45.6987 111.077 47.5856L113.09 48.5636C114.112 46.3747 114.626 44.0729 114.626 41.6696H112.396ZM111.081 47.5761C110.205 49.4077 108.633 51.5132 106.299 53.8937L107.876 55.5023C110.3 53.0303 112.059 50.7203 113.086 48.5732L111.081 47.5761ZM106.391 55.586C107.952 56.8595 109.347 58.4621 110.574 60.4082L112.45 59.1779C111.108 57.0478 109.554 55.2539 107.784 53.81L106.391 55.586ZM110.592 60.4343C111.779 62.2077 112.396 64.354 112.396 66.9258H114.626C114.626 63.9659 113.91 61.3569 112.433 59.1515L110.592 60.4343ZM112.396 66.9258C112.396 69.9986 111.712 72.6261 110.382 74.8492C109.051 77.0746 107.034 78.9591 104.273 80.4823L105.335 82.483C108.378 80.8037 110.715 78.6606 112.286 76.0338C113.859 73.4047 114.626 70.355 114.626 66.9258H112.396ZM104.267 80.4857C98.7029 83.6022 90.4779 85.2219 79.4682 85.2219V87.4964C90.6302 87.4964 99.2957 85.8652 105.341 82.4795L104.267 80.4857ZM126.567 31.1159L125.861 30.2361L125.857 30.2391L126.567 31.1159ZM176.739 31.0431L176.019 31.9111L176.027 31.9181L176.739 31.0431ZM176.311 72.9669L177.011 73.8528L177.015 73.8491L176.311 72.9669ZM149.619 56.0081H148.504V57.1454H149.619V56.0081ZM153.473 56.0081V57.1454H154.588V56.0081H153.473ZM153.473 48.0746H154.588V46.9374H153.473V48.0746ZM149.619 48.0746V46.9374H148.504V48.0746H149.619ZM150.975 78.7441C140.226 78.7441 132.371 76.5085 127.218 72.2304C122.108 67.9889 119.475 61.5866 119.475 52.8056H117.245C117.245 62.0751 120.048 69.2107 125.81 73.9945C131.528 78.7416 139.981 81.0186 150.975 81.0186V78.7441ZM119.475 52.8056C119.475 43.1651 122.146 36.3154 127.277 31.9927L125.857 30.2391C120.045 35.1356 117.245 42.7459 117.245 52.8056H119.475ZM127.274 31.9957C132.511 27.6216 140.467 25.3386 151.332 25.3386V23.0641C140.216 23.0641 131.662 25.3907 125.861 30.2361L127.274 31.9957ZM151.332 25.3386C162.891 25.3386 171.037 27.6086 176.019 31.9111L177.46 30.1751C171.879 25.3555 163.087 23.0641 151.332 23.0641V25.3386ZM176.027 31.9181C181.038 36.1619 183.617 42.4736 183.617 51.0588H185.848C185.848 41.9817 183.098 34.9496 177.452 30.1681L176.027 31.9181ZM183.617 51.0588C183.617 60.7905 180.878 67.7114 175.607 72.0846L177.015 73.8491C182.972 68.906 185.848 61.2215 185.848 51.0588H183.617ZM175.612 72.0809C170.28 76.4585 162.132 78.7441 150.975 78.7441V81.0186C162.371 81.0186 171.113 78.6945 177.011 73.8528L175.612 72.0809ZM149.619 57.1454H153.473V54.8709H149.619V57.1454ZM154.588 56.0081V48.0746H152.358V56.0081H154.588ZM153.473 46.9374H149.619V49.2119H153.473V46.9374ZM148.504 48.0746V56.0081H150.734V48.0746H148.504ZM198.663 31.1159L197.957 30.2361L197.953 30.2391L198.663 31.1159ZM248.835 31.0431L248.114 31.9111L248.123 31.9181L248.835 31.0431ZM248.407 72.9669L249.107 73.8528L249.111 73.8491L248.407 72.9669ZM221.715 56.0081H220.6V57.1454H221.715V56.0081ZM225.569 56.0081V57.1454H226.684V56.0081H225.569ZM225.569 48.0746H226.684V46.9374H225.569V48.0746ZM221.715 48.0746V46.9374H220.6V48.0746H221.715ZM223.071 78.7441C212.322 78.7441 204.467 76.5085 199.314 72.2304C194.204 67.9889 191.571 61.5866 191.571 52.8056H189.341C189.341 62.0751 192.144 69.2107 197.906 73.9945C203.624 78.7416 212.077 81.0186 223.071 81.0186V78.7441ZM191.571 52.8056C191.571 43.1651 194.242 36.3154 199.374 31.9927L197.953 30.2391C192.141 35.1356 189.341 42.7459 189.341 52.8056H191.571ZM199.37 31.9957C204.607 27.6216 212.563 25.3386 223.428 25.3386V23.0641C212.312 23.0641 203.758 25.3907 197.957 30.2361L199.37 31.9957ZM223.428 25.3386C234.987 25.3386 243.132 27.6086 248.114 31.9111L249.555 30.1751C243.975 25.3555 235.183 23.0641 223.428 23.0641V25.3386ZM248.123 31.9181C253.135 36.1619 255.713 42.4736 255.713 51.0588H257.943C257.943 41.9817 255.193 34.9496 249.549 30.1681L248.123 31.9181ZM255.713 51.0588C255.713 60.7905 252.974 67.7114 247.704 72.0846L249.111 73.8491C255.068 68.906 257.943 61.2215 257.943 51.0588H255.713ZM247.709 72.0809C242.376 76.4585 234.229 78.7441 223.071 78.7441V81.0186C234.467 81.0186 243.21 78.6945 249.107 73.8528L247.709 72.0809ZM221.715 57.1454H225.569V54.8709H221.715V57.1454ZM226.684 56.0081V48.0746H224.454V56.0081H226.684ZM225.569 46.9374H221.715V49.2119H225.569V46.9374ZM220.6 48.0746V56.0081H222.831V48.0746H220.6ZM262.379 78.5713L261.344 78.9936L261.659 79.7938L262.5 79.7021L262.379 78.5713ZM261.451 74.8593L260.35 75.0348L260.352 75.0403L261.451 74.8593ZM261.023 69.9827H259.908V69.9989V70.0152L261.023 69.9827ZM261.166 65.1789L260.055 65.0727V65.0893L260.053 65.1057L261.166 65.1789ZM261.88 61.3942L261.467 60.3383L260.994 60.5303L260.827 61.0184L261.88 61.3942ZM263.949 59.9385L264.739 60.7427L264.752 60.7289L264.766 60.7145L263.949 59.9385ZM265.591 56.2993L266.672 56.5824V56.5752L265.591 56.2993ZM265.448 41.3057L264.378 41.6266L264.389 41.6557L265.448 41.3057ZM263.664 37.8848L262.877 38.6891L262.903 38.7178L262.935 38.7441L263.664 37.8848ZM261.88 36.5019L260.894 37.0339L261.072 37.3767L261.418 37.5373L261.88 36.5019ZM260.952 33.0083L259.846 33.1493V33.1538L260.952 33.0083ZM260.666 27.9862L259.551 27.9555V27.9862H260.666ZM262.165 18.7426L262.243 17.608L261.471 17.5537L261.15 18.272L262.165 18.7426ZM273.941 19.6887L273.874 20.8242L273.899 20.8251L273.941 19.6887ZM290.213 19.5432L290.291 20.6779L290.307 20.6764L290.213 19.5432ZM297.421 18.8881L298.483 18.5401L298.208 17.6693L297.316 17.756L297.421 18.8881ZM298.349 22.8185L297.247 22.9913L297.249 22.9982L298.349 22.8185ZM297.921 32.7171L296.83 32.4851L296.826 32.5077L297.921 32.7171ZM295.851 47.274H294.736V50.9355L296.77 47.9184L295.851 47.274ZM299.348 38.4671L298.262 38.2124L298.26 38.2237L299.348 38.4671ZM300.419 25.2204L300.499 24.0861L299.281 23.9974L299.303 25.2415L300.419 25.2204ZM304.701 25.6571L304.562 26.7854L304.567 26.7861L304.701 25.6571ZM330.679 25.7298L330.799 26.8607L330.815 26.8587L330.833 26.8564L330.679 25.7298ZM335.104 25.2204L336.145 24.8155L335.846 24.0096L335.003 24.0879L335.104 25.2204ZM336.031 29.0779L334.93 29.2535L334.932 29.259L336.031 29.0779ZM336.388 33.8817H335.273V33.8978V33.9142L336.388 33.8817ZM336.246 38.7582L335.135 38.652V38.6686L335.133 38.685L336.246 38.7582ZM335.603 42.543L335.904 43.6382L336.475 43.4753L336.663 42.9026L335.603 42.543ZM329.466 44.7993L328.99 43.7708L328.979 43.7763L329.466 44.7993ZM324.969 47.4924L324.323 46.5669L323.653 47.0531L323.91 47.8476L324.969 47.4924ZM329.894 56.2993L329.098 57.0944L329.115 57.1124L329.894 56.2993ZM336.674 61.3942L337.726 61.0184L337.581 60.5931L337.189 60.3852L336.674 61.3942ZM337.316 65.1062L336.203 65.1794L336.205 65.1976L336.208 65.2158L337.316 65.1062ZM337.459 69.9099L336.344 69.8774V69.8938V69.9099H337.459ZM336.174 78.5713L336.067 79.703L336.915 79.7874L337.218 78.9761L336.174 78.5713ZM305.129 78.0618L305.031 76.9288L305.013 76.9307L304.995 76.9327L305.129 78.0618ZM300.775 78.5713L299.665 78.4769L299.553 79.8486L300.896 79.7021L300.775 78.5713ZM301.132 73.7675L302.245 73.8432V73.8407L301.132 73.7675ZM295.851 54.8436L296.551 53.9579L294.736 52.4672V54.8436H295.851ZM295.851 61.3942H294.736V62.5314H295.851V61.3942ZM298.42 61.3942L299.473 61.0184L299.212 60.2569H298.42V61.3942ZM299.063 65.1789L297.95 65.2499L297.952 65.2692L297.954 65.2886L299.063 65.1789ZM299.205 69.9827L298.09 69.9502V69.9666V69.9827H299.205ZM298.848 74.8593L299.95 75.0403V75.0348L298.848 74.8593ZM297.921 78.5713L297.816 79.7033L298.646 79.784L298.956 78.9936L297.921 78.5713ZM290.427 77.8434L290.534 76.7112L290.516 76.7098L290.427 77.8434ZM274.012 77.6251L273.968 76.4885L273.945 76.4898L274.012 77.6251ZM267.446 78.0618L267.368 76.927L267.344 76.9293L267.446 78.0618ZM263.414 78.1489C263.075 77.2827 262.783 76.1337 262.553 74.6782L260.352 75.0403C260.597 76.5933 260.923 77.9189 261.344 78.9936L263.414 78.1489ZM262.553 74.6837C262.323 73.182 262.185 71.6044 262.138 69.9502L259.908 70.0152C259.957 71.7575 260.104 73.4311 260.35 75.0348L262.553 74.6837ZM262.138 69.9827C262.138 68.3059 262.185 66.7292 262.279 65.2522L260.053 65.1057C259.957 66.6371 259.908 68.263 259.908 69.9827H262.138ZM262.277 65.2852C262.415 63.7822 262.64 62.6208 262.932 61.7699L260.827 61.0184C260.454 62.1086 260.202 63.4703 260.055 65.0727L262.277 65.2852ZM262.294 62.45C263.175 62.0904 263.989 61.507 264.739 60.7427L263.162 59.1342C262.578 59.7285 262.011 60.1157 261.467 60.3383L262.294 62.45ZM264.766 60.7145C265.622 59.7783 266.226 58.344 266.672 56.5824L264.511 56.0161C264.099 57.651 263.61 58.6429 263.135 59.1624L264.766 60.7145ZM266.672 56.5752C267.134 54.6932 267.348 52.0848 267.348 48.8025H265.118C265.118 52.0223 264.904 54.4116 264.509 56.0234L266.672 56.5752ZM267.348 48.8025C267.348 45.4246 267.087 42.78 266.51 40.9556L264.389 41.6557C264.855 43.131 265.118 45.4842 265.118 48.8025H267.348ZM266.519 40.9848C266.023 39.2686 265.352 37.8721 264.395 37.0255L262.935 38.7441C263.403 39.159 263.92 40.0431 264.378 41.6266L266.519 40.9848ZM264.453 37.0806C263.744 36.3584 263.039 35.7902 262.341 35.4666L261.418 37.5373C261.768 37.6988 262.252 38.0525 262.877 38.6891L264.453 37.0806ZM262.865 35.9699C262.526 35.3171 262.241 34.3054 262.058 32.8627L259.846 33.1538C260.044 34.7194 260.376 36.037 260.894 37.0339L262.865 35.9699ZM262.058 32.8673C261.875 31.3674 261.781 29.7412 261.781 27.9862H259.551C259.551 29.8219 259.649 31.5435 259.846 33.1493L262.058 32.8673ZM261.781 28.0169C261.828 26.2632 261.967 24.5858 262.199 22.9838L259.993 22.653C259.747 24.3506 259.6 26.1183 259.551 27.9555L261.781 28.0169ZM262.199 22.9838C262.426 21.399 262.763 20.1523 263.18 19.2131L261.15 18.272C260.617 19.4678 260.238 20.9383 259.993 22.653L262.199 22.9838ZM262.089 19.8771C263.456 19.9733 265.16 20.118 267.201 20.3116L267.408 18.0469C265.357 17.8523 263.635 17.7059 262.243 17.608L262.089 19.8771ZM267.201 20.3116C269.262 20.507 271.485 20.678 273.874 20.8242L274.008 18.5535C271.639 18.4086 269.44 18.2397 267.408 18.0469L267.201 20.3116ZM273.899 20.8251C276.338 20.9227 278.707 20.9716 281.006 20.9716V18.6971C278.738 18.6971 276.399 18.6489 273.986 18.5524L273.899 20.8251ZM281.006 20.9716C284.405 20.9716 287.501 20.8741 290.291 20.6779L290.137 18.4086C287.407 18.6006 284.365 18.6971 281.006 18.6971V20.9716ZM290.307 20.6764C293.117 20.4335 295.523 20.2148 297.528 20.0203L297.316 17.756C295.322 17.9496 292.925 18.1676 290.119 18.41L290.307 20.6764ZM296.359 19.2361C296.772 20.5442 297.066 21.7956 297.247 22.9913L299.451 22.6455C299.252 21.3181 298.927 19.9493 298.483 18.5401L296.359 19.2361ZM297.249 22.9982C297.43 24.1502 297.519 25.3275 297.519 26.5305H299.75C299.75 25.2103 299.651 23.913 299.451 22.6388L297.249 22.9982ZM297.519 26.5305C297.519 28.2275 297.294 30.2093 296.83 32.4851L299.014 32.9491C299.5 30.5666 299.75 28.4242 299.75 26.5305H297.519ZM296.826 32.5077C296.397 34.8292 295.947 37.1508 295.474 39.4724L297.658 39.9364C298.135 37.5998 298.588 35.2632 299.018 32.9266L296.826 32.5077ZM295.474 39.4724C294.986 41.8573 294.736 44.0235 294.736 45.9639H296.966C296.966 44.2166 297.194 42.2098 297.658 39.9364L295.474 39.4724ZM294.736 45.9639V47.274H296.966V45.9639H294.736ZM296.77 47.9184C298.443 45.4392 299.654 42.3574 300.439 38.7105L298.26 38.2237C297.521 41.6612 296.402 44.4507 294.932 46.6296L296.77 47.9184ZM300.436 38.7216C301.271 35.0114 301.63 30.497 301.534 25.1992L299.303 25.2415C299.399 30.4247 299.045 34.7412 298.262 38.2124L300.436 38.7216ZM300.341 26.3547C301.65 26.4502 303.057 26.5935 304.562 26.7854L304.839 24.5287C303.3 24.3324 301.853 24.1848 300.499 24.0861L300.341 26.3547ZM304.567 26.7861C306.166 26.9838 308.115 27.1553 310.412 27.3015L310.551 25.0316C308.28 24.8867 306.378 24.7186 304.835 24.528L304.567 26.7861ZM310.412 27.3015C312.727 27.4491 315.607 27.5222 319.046 27.5222V25.2477C315.633 25.2477 312.803 25.1751 310.551 25.0316L310.412 27.3015ZM319.046 27.5222C321.869 27.5222 324.209 27.4491 326.058 27.3002L325.882 25.0329C324.113 25.1751 321.838 25.2477 319.046 25.2477V27.5222ZM326.058 27.3002C327.871 27.1541 329.452 27.0077 330.799 26.8607L330.561 24.599C329.243 24.7432 327.681 24.8878 325.882 25.0329L326.058 27.3002ZM330.833 26.8564C332.193 26.6651 333.65 26.497 335.206 26.3528L335.003 24.0879C333.418 24.2348 331.926 24.4065 330.527 24.6033L330.833 26.8564ZM334.062 25.6252C334.406 26.5455 334.7 27.748 334.93 29.2535L337.133 28.9023C336.888 27.3024 336.564 25.9332 336.145 24.8155L334.062 25.6252ZM334.932 29.259C335.159 30.6969 335.273 32.2372 335.273 33.8817H337.503C337.503 32.1294 337.381 30.4672 337.133 28.8969L334.932 29.259ZM335.273 33.9142C335.32 35.5703 335.273 37.1492 335.135 38.652L337.356 38.8645C337.503 37.2616 337.552 35.5896 337.503 33.8492L335.273 33.9142ZM335.133 38.685C335.041 40.1277 334.838 41.2859 334.546 42.1834L336.663 42.9026C337.035 41.7622 337.26 40.3973 337.358 38.8315L335.133 38.685ZM335.302 41.4478C332.88 42.1395 330.772 42.9119 328.99 43.7708L329.943 45.8276C331.584 45.0368 333.569 44.3051 335.904 43.6382L335.302 41.4478ZM328.979 43.7763C327.264 44.6256 325.712 45.5549 324.323 46.5669L325.618 48.4179C326.894 47.4887 328.337 46.6228 329.954 45.8224L328.979 43.7763ZM323.91 47.8476C325.139 51.657 326.856 54.7576 329.098 57.0944L330.692 55.5041C328.745 53.4739 327.18 50.7031 326.029 47.1371L323.91 47.8476ZM329.115 57.1124C331.326 59.3166 333.674 61.0844 336.161 62.4031L337.189 60.3852C334.919 59.1808 332.746 57.5518 330.674 55.4861L329.115 57.1124ZM335.621 61.7699C335.909 62.609 336.112 63.7351 336.203 65.1794L338.429 65.0329C338.331 63.4687 338.106 62.1204 337.726 61.0184L335.621 61.7699ZM336.208 65.2158C336.344 66.6674 336.391 68.2209 336.344 69.8774L338.574 69.9424C338.623 68.2024 338.574 66.5534 338.427 64.9965L336.208 65.2158ZM336.344 69.9099C336.344 71.5039 336.23 73.0462 336 74.5381L338.204 74.8893C338.451 73.2757 338.574 71.6156 338.574 69.9099H336.344ZM336 74.5381C335.77 76.0436 335.476 77.2461 335.133 78.1664L337.218 78.9761C337.635 77.8584 337.958 76.4892 338.204 74.8893L336 74.5381ZM336.283 77.4395C334.343 77.2463 332.186 77.0046 329.813 76.7143L329.548 78.9725C331.932 79.2645 334.107 79.5081 336.067 79.703L336.283 77.4395ZM329.813 76.7143C327.376 76.4159 324.378 76.2695 320.83 76.2695V78.544C324.325 78.544 327.229 78.6886 329.548 78.9725L329.813 76.7143ZM320.83 76.2695C316.918 76.2695 313.706 76.3425 311.202 76.4896L311.331 78.7605C313.776 78.6165 316.94 78.544 320.83 78.544V76.2695ZM311.202 76.4896C308.722 76.6356 306.666 76.7819 305.031 76.9288L305.227 79.1947C306.831 79.0505 308.862 78.9056 311.331 78.7605L311.202 76.4896ZM304.995 76.9327C303.429 77.1263 301.984 77.2955 300.657 77.4404L300.896 79.7021C302.234 79.5559 303.69 79.3853 305.263 79.1908L304.995 76.9327ZM301.888 78.6656C302.031 76.9138 302.149 75.3062 302.245 73.8432L300.019 73.6917C299.926 75.1402 299.807 76.735 299.665 78.4769L301.888 78.6656ZM302.245 73.8407C302.341 72.3166 302.39 70.9089 302.39 69.6188H300.16C300.16 70.8518 300.113 72.2099 300.019 73.6942L302.245 73.8407ZM302.39 69.6188C302.39 67.5456 302.294 65.6336 302.098 63.8852L299.881 64.1436C300.066 65.7917 300.16 67.6161 300.16 69.6188H302.39ZM302.098 63.8852C301.893 62.0513 301.378 60.317 300.555 58.6891L298.572 59.7322C299.27 61.1128 299.707 62.5808 299.881 64.1436L302.098 63.8852ZM300.555 58.6891C299.703 57.0064 298.347 55.4338 296.551 53.9579L295.153 55.7293C296.781 57.0678 297.901 58.4066 298.572 59.7322L300.555 58.6891ZM294.736 54.8436V61.3942H296.966V54.8436H294.736ZM295.851 62.5314H298.42V60.2569H295.851V62.5314ZM297.368 61.7699C297.655 62.6056 297.858 63.7537 297.95 65.2499L300.175 65.108C300.077 63.4988 299.852 62.1238 299.473 61.0184L297.368 61.7699ZM297.954 65.2886C298.09 66.7402 298.137 68.2937 298.09 69.9502L300.32 70.0152C300.37 68.2752 300.32 66.6262 300.173 65.0693L297.954 65.2886ZM298.09 69.9827C298.09 71.6269 297.976 73.1934 297.747 74.6837L299.95 75.0348C300.198 73.4195 300.32 71.7352 300.32 69.9827H298.09ZM297.749 74.6782C297.517 76.1337 297.225 77.2827 296.886 78.1489L298.956 78.9936C299.377 77.9189 299.705 76.5933 299.95 75.0403L297.749 74.6782ZM298.028 77.4392C296.029 77.245 293.532 77.0023 290.534 76.7112L290.322 78.9754C293.32 79.2666 295.818 79.5093 297.816 79.7033L298.028 77.4392ZM290.516 76.7098C287.534 76.4644 284.363 76.3422 281.006 76.3422V78.6167C284.312 78.6167 287.421 78.7371 290.338 78.977L290.516 76.7098ZM281.006 76.3422C278.707 76.3422 276.361 76.3909 273.968 76.4885L274.057 78.7614C276.423 78.665 278.738 78.6167 281.006 78.6167V76.3422ZM273.945 76.4898C271.61 76.6356 269.418 76.7812 267.368 76.927L267.524 79.1963C269.567 79.051 271.753 78.9056 274.081 78.7603L273.945 76.4898ZM267.344 76.9293C265.294 77.1238 263.601 77.2941 262.261 77.4404L262.5 79.7021C263.824 79.5573 265.506 79.388 267.551 79.1942L267.344 76.9293Z" fill="black"/>
</g>
<path d="M3.19818 78.5709C2.81757 77.6003 2.5083 76.363 2.2704 74.8589C2.03251 73.3061 1.88977 71.6807 1.84219 69.9823C1.84219 68.284 1.88977 66.6827 1.98493 65.1786C2.12767 63.6258 2.36556 62.3643 2.69861 61.3938C3.79293 61.0055 4.79209 60.2292 5.69608 59.0647C6.60009 57.9001 7.05208 56.129 7.05208 53.7514C7.05208 51.1796 6.86177 49.3116 6.48113 48.147C6.10052 46.9825 5.57714 46.2303 4.91103 45.8907C4.29251 45.5025 3.55503 45.2841 2.69861 45.2357C2.2704 44.4107 1.96114 43.2462 1.77083 41.742C1.58051 40.2379 1.48535 38.6123 1.48535 36.8655C1.53293 35.0702 1.67567 33.3718 1.91356 31.7706C2.15146 30.1209 2.5083 28.7621 2.98408 27.6947C9.35967 27.3064 15.4498 26.8212 21.2544 26.239C27.0591 25.6083 33.054 24.9289 39.2392 24.201C39.6674 25.5596 39.9768 26.9912 40.167 28.4953C40.405 29.951 40.5239 31.3095 40.5239 32.5712C40.5239 34.8519 40.2859 36.9383 39.8102 38.8307C39.382 40.6746 38.9299 42.5427 38.4542 44.435C37.9785 46.279 37.7405 48.3411 37.7405 50.6217C37.7405 54.2125 38.1926 56.8084 39.0965 58.4096C40.0482 60.0109 41.0473 61.0055 42.094 61.3938C42.5222 62.8979 42.7838 64.7662 42.879 66.9982C42.9743 69.1817 42.9029 71.3409 42.6649 73.476C42.4747 75.5624 42.1178 77.2608 41.5944 78.5709C40.2623 78.4253 38.5256 78.2554 36.3845 78.0614C34.291 77.9158 31.9835 77.7703 29.4618 77.6247C26.94 77.5276 24.3946 77.4791 21.8253 77.4791C19.5416 77.4791 17.2102 77.5276 14.8312 77.6247C12.4999 77.7703 10.3113 77.9158 8.26534 78.0614C6.21946 78.2554 4.53041 78.4253 3.19818 78.5709ZM79.4683 86.3588C72.9024 86.3588 67.2879 85.8009 62.6253 84.6848C58.01 83.5687 54.4655 81.7734 51.9914 79.2987C49.5649 76.8241 48.3516 73.5488 48.3516 69.4728C48.3516 65.2514 49.6363 62.0488 52.2055 59.8653C54.8223 57.6818 58.5335 56.59 63.339 56.59C68.0968 56.59 71.5464 57.4878 73.6874 59.283C75.876 61.0783 77.2795 63.5773 77.8982 66.7798L79.9679 66.4887C79.4919 64.1111 78.8496 62.3156 78.0409 61.1027C77.2795 59.8897 76.5183 58.9435 75.7571 58.2641V52.6597L78.4691 52.5869V48.6565H74.6866V54.5521C70.452 54.7461 66.2888 54.916 62.1971 55.0616C58.1528 55.1587 53.7993 55.11 49.1367 54.916C48.756 51.3252 48.4944 47.7347 48.3516 44.1439C48.2564 40.5047 48.3039 37.1082 48.4944 33.9541C48.6846 30.7516 49.0176 27.9858 49.4935 25.6567C50.8732 25.6567 52.5624 25.681 54.5607 25.7295C56.559 25.7779 58.6762 25.8507 60.9125 25.9478C63.1963 25.9963 65.4087 26.045 67.5498 26.0934C69.6908 26.1418 71.5939 26.1905 73.2592 26.239C72.4503 27.258 71.808 28.5681 71.3323 30.1693C70.9041 31.7706 70.9041 33.3234 71.3323 34.8275C71.9507 32.1588 73.1879 30.0722 75.0434 28.5681C76.899 27.0153 79.2542 25.9235 82.1089 25.2928C85.0112 24.6621 88.2466 24.3466 91.815 24.3466C96.1921 24.3466 99.9985 24.8804 103.234 25.9478C106.469 27.0153 108.991 28.8108 110.799 31.3339C112.607 33.857 113.511 37.3022 113.511 41.6692C113.511 43.9012 113.035 46.0363 112.084 48.0743C111.132 50.0638 109.467 52.2714 107.088 54.6976C108.753 56.0562 110.228 57.7546 111.513 59.7925C112.845 61.782 113.511 64.1596 113.511 66.9254C113.511 73.4275 110.609 78.2798 104.804 81.4823C98.9994 84.7332 90.554 86.3588 79.4683 86.3588ZM150.975 79.881C129.232 79.881 118.36 70.8557 118.36 52.8052C118.36 42.955 121.096 35.7253 126.567 31.1155C132.087 26.5058 140.342 24.201 151.332 24.201C162.989 24.201 171.458 26.4817 176.739 31.0427C182.068 35.5554 184.733 42.2272 184.733 51.0584C184.733 61.0055 181.925 68.3083 176.311 72.9665C170.697 77.5762 162.252 79.881 150.975 79.881ZM149.619 56.0078H153.473V48.0743H149.619V56.0078ZM223.071 79.881C201.328 79.881 190.456 70.8557 190.456 52.8052C190.456 42.955 193.192 35.7253 198.664 31.1155C204.183 26.5058 212.438 24.201 223.428 24.201C235.085 24.201 243.554 26.4817 248.835 31.0427C254.165 35.5554 256.828 42.2272 256.828 51.0584C256.828 61.0055 254.023 68.3083 248.407 72.9665C242.793 77.5762 234.347 79.881 223.071 79.881ZM221.716 56.0078H225.569V48.0743H221.716V56.0078ZM262.379 78.5709C262 77.6003 261.69 76.363 261.452 74.8589C261.215 73.3061 261.072 71.6807 261.023 69.9823C261.023 68.284 261.072 66.6827 261.166 65.1786C261.309 63.6258 261.547 62.3643 261.88 61.3938C262.593 61.1027 263.285 60.6175 263.949 59.9381C264.616 59.2103 265.163 57.9973 265.591 56.2989C266.019 54.5521 266.233 52.0531 266.233 48.8021C266.233 45.454 265.972 42.955 265.448 41.3053C264.973 39.6556 264.378 38.5152 263.664 37.8845C262.999 37.2051 262.404 36.7442 261.88 36.5016C261.452 35.6766 261.144 34.512 260.952 33.0079C260.762 31.4551 260.666 29.7811 260.666 27.9858C260.716 26.1905 260.858 24.4678 261.095 22.8181C261.333 21.1683 261.69 19.8097 262.165 18.7422C263.546 18.8392 265.259 18.9848 267.304 19.1789C269.351 19.373 271.564 19.5428 273.941 19.6884C276.368 19.7854 278.723 19.834 281.006 19.834C284.385 19.834 287.454 19.7369 290.213 19.5428C293.021 19.3002 295.423 19.0818 297.421 18.8878C297.849 20.2464 298.159 21.5565 298.349 22.8181C298.541 24.0311 298.634 25.2684 298.634 26.5301C298.634 28.3254 298.398 30.3877 297.921 32.7168C297.493 35.0459 297.042 37.375 296.565 39.7041C296.09 42.0332 295.851 44.1196 295.851 45.9635V47.2736C297.421 44.9445 298.588 42.0088 299.348 38.4667C300.158 34.876 300.515 30.4605 300.419 25.22C301.752 25.3171 303.18 25.4627 304.701 25.6567C306.271 25.8507 308.198 26.0206 310.482 26.1662C312.765 26.3118 315.62 26.3845 319.046 26.3845C321.854 26.3845 324.162 26.3118 325.969 26.1662C327.777 26.0206 329.347 25.8751 330.679 25.7295C332.059 25.5355 333.534 25.3656 335.104 25.22C335.485 26.239 335.795 27.5248 336.032 29.0776C336.27 30.5817 336.388 32.1829 336.388 33.8813C336.437 35.5797 336.388 37.2051 336.246 38.7579C336.152 40.262 335.938 41.5237 335.603 42.5427C333.226 43.2221 331.178 43.974 329.466 44.799C327.802 45.6239 326.303 46.5215 324.969 47.492C326.16 51.1796 327.802 54.1154 329.894 56.2989C332.035 58.434 334.296 60.1321 336.674 61.3938C337.008 62.3643 337.222 63.6017 337.316 65.1058C337.459 66.6099 337.508 68.2112 337.459 69.9096C337.459 71.5593 337.341 73.1605 337.102 74.7133C336.866 76.2661 336.556 77.5519 336.174 78.5709C334.225 78.3769 332.059 78.1342 329.68 77.843C327.302 77.5519 324.352 77.4063 320.83 77.4063C316.929 77.4063 313.742 77.4791 311.267 77.6247C308.793 77.7703 306.748 77.9158 305.129 78.0614C303.559 78.2554 302.109 78.4253 300.776 78.5709C300.918 76.8241 301.039 75.2228 301.132 73.7671C301.228 72.263 301.275 70.8801 301.275 69.6184C301.275 67.5805 301.181 65.7124 300.99 64.014C300.8 62.3156 300.325 60.7144 299.562 59.2103C298.802 57.7061 297.564 56.2504 295.851 54.8432V61.3938H298.42C298.755 62.3643 298.969 63.6258 299.063 65.1786C299.205 66.6827 299.254 68.284 299.205 69.9823C299.205 71.6807 299.087 73.3061 298.849 74.8589C298.612 76.363 298.302 77.6003 297.921 78.5709C295.922 78.3769 293.425 78.1342 290.427 77.843C287.479 77.6003 284.339 77.4791 281.006 77.4791C278.723 77.4791 276.392 77.5276 274.012 77.6247C271.682 77.7703 269.494 77.9158 267.446 78.0614C265.401 78.2554 263.713 78.4253 262.379 78.5709Z" fill="#FFF48B"/>
<mask id="mask1_546_553" style="mask-type:luminance" maskUnits="userSpaceOnUse" x="0" y="15" width="339" height="74">
<path d="M339 15.9219H0V88.7062H339V15.9219Z" fill="white"/>
<path d="M3.19818 78.5709C2.81757 77.6003 2.5083 76.363 2.2704 74.8589C2.03251 73.3061 1.88977 71.6807 1.84219 69.9823C1.84219 68.284 1.88977 66.6827 1.98493 65.1786C2.12767 63.6258 2.36556 62.3643 2.69861 61.3938C3.79293 61.0055 4.79209 60.2292 5.69608 59.0647C6.60009 57.9001 7.05208 56.129 7.05208 53.7514C7.05208 51.1796 6.86177 49.3116 6.48113 48.147C6.10052 46.9825 5.57714 46.2303 4.91103 45.8907C4.29251 45.5025 3.55503 45.2841 2.69861 45.2357C2.2704 44.4107 1.96114 43.2462 1.77083 41.742C1.58051 40.2379 1.48535 38.6123 1.48535 36.8655C1.53293 35.0702 1.67567 33.3718 1.91356 31.7706C2.15146 30.1209 2.5083 28.7621 2.98408 27.6947C9.35967 27.3064 15.4498 26.8212 21.2544 26.239C27.0591 25.6083 33.054 24.9289 39.2392 24.201C39.6674 25.5596 39.9768 26.9912 40.167 28.4953C40.405 29.951 40.5239 31.3095 40.5239 32.5712C40.5239 34.8519 40.2859 36.9383 39.8102 38.8307C39.382 40.6746 38.9299 42.5427 38.4542 44.435C37.9785 46.279 37.7405 48.3411 37.7405 50.6217C37.7405 54.2125 38.1926 56.8084 39.0965 58.4096C40.0482 60.0109 41.0473 61.0055 42.094 61.3938C42.5222 62.8979 42.7838 64.7662 42.879 66.9982C42.9743 69.1817 42.9029 71.3409 42.6649 73.476C42.4747 75.5624 42.1178 77.2608 41.5944 78.5709C40.2623 78.4253 38.5256 78.2554 36.3845 78.0614C34.291 77.9158 31.9835 77.7703 29.4618 77.6247C26.94 77.5276 24.3946 77.4791 21.8253 77.4791C19.5416 77.4791 17.2102 77.5276 14.8312 77.6247C12.4999 77.7703 10.3113 77.9158 8.26534 78.0614C6.21946 78.2554 4.53041 78.4253 3.19818 78.5709ZM79.4683 86.3588C72.9024 86.3588 67.2879 85.8009 62.6253 84.6848C58.01 83.5687 54.4655 81.7734 51.9914 79.2987C49.5649 76.8241 48.3517 73.5488 48.3517 69.4728C48.3517 65.2514 49.6363 62.0488 52.2055 59.8653C54.8223 57.6818 58.5335 56.59 63.339 56.59C68.0968 56.59 71.5464 57.4878 73.6874 59.283C75.876 61.0783 77.2795 63.5773 77.8982 66.7798L79.9679 66.4887C79.4919 64.1111 78.8496 62.3157 78.0409 61.1027C77.2795 59.8897 76.5183 58.9435 75.7571 58.2641V52.6597L78.4691 52.5869V48.6565H74.6866V54.5521C70.452 54.7461 66.2888 54.916 62.1971 55.0616C58.1528 55.1587 53.7993 55.11 49.1367 54.916C48.756 51.3252 48.4944 47.7347 48.3517 44.1439C48.2564 40.5047 48.3039 37.1082 48.4944 33.9541C48.6846 30.7516 49.0176 27.9858 49.4935 25.6567C50.8732 25.6567 52.5624 25.681 54.5607 25.7295C56.559 25.7779 58.6762 25.8507 60.9125 25.9478C63.1963 25.9963 65.4087 26.045 67.5498 26.0934C69.6908 26.1418 71.5939 26.1905 73.2592 26.239C72.4503 27.258 71.808 28.5681 71.3323 30.1693C70.9041 31.7706 70.9041 33.3234 71.3323 34.8275C71.9507 32.1588 73.1879 30.0722 75.0434 28.5681C76.899 27.0153 79.2542 25.9235 82.1089 25.2928C85.0112 24.6621 88.2466 24.3466 91.815 24.3466C96.1921 24.3466 99.9985 24.8804 103.234 25.9478C106.469 27.0153 108.991 28.8108 110.799 31.3339C112.607 33.857 113.511 37.3022 113.511 41.6692C113.511 43.9012 113.035 46.0363 112.084 48.0743C111.132 50.0638 109.467 52.2714 107.088 54.6976C108.753 56.0562 110.228 57.7546 111.513 59.7925C112.845 61.7821 113.511 64.1596 113.511 66.9254C113.511 73.4275 110.609 78.2798 104.804 81.4823C98.9994 84.7332 90.554 86.3588 79.4683 86.3588ZM150.975 79.881C129.232 79.881 118.36 70.8557 118.36 52.8052C118.36 42.955 121.096 35.7253 126.567 31.1155C132.087 26.5058 140.342 24.201 151.332 24.201C162.989 24.201 171.458 26.4817 176.739 31.0427C182.068 35.5554 184.733 42.2272 184.733 51.0584C184.733 61.0055 181.925 68.3083 176.311 72.9665C170.697 77.5762 162.252 79.881 150.975 79.881ZM149.619 56.0078H153.473V48.0743H149.619V56.0078ZM223.071 79.881C201.328 79.881 190.456 70.8557 190.456 52.8052C190.456 42.955 193.192 35.7253 198.664 31.1155C204.183 26.5058 212.438 24.201 223.428 24.201C235.085 24.201 243.554 26.4817 248.835 31.0427C254.165 35.5554 256.828 42.2272 256.828 51.0584C256.828 61.0055 254.023 68.3083 248.407 72.9665C242.793 77.5762 234.347 79.881 223.071 79.881ZM221.716 56.0078H225.569V48.0743H221.716V56.0078ZM262.379 78.5709C262 77.6003 261.69 76.363 261.452 74.8589C261.215 73.3061 261.072 71.6807 261.023 69.9823C261.023 68.284 261.072 66.6827 261.166 65.1786C261.309 63.6258 261.547 62.3643 261.88 61.3938C262.593 61.1027 263.285 60.6175 263.949 59.9381C264.616 59.2103 265.163 57.9973 265.591 56.2989C266.019 54.5521 266.233 52.0531 266.233 48.8021C266.233 45.454 265.972 42.955 265.448 41.3053C264.973 39.6556 264.378 38.5152 263.664 37.8845C262.999 37.2051 262.404 36.7442 261.88 36.5016C261.452 35.6766 261.144 34.512 260.952 33.0079C260.762 31.4551 260.666 29.7811 260.666 27.9858C260.716 26.1905 260.858 24.4678 261.095 22.8181C261.333 21.1683 261.69 19.8097 262.165 18.7422C263.546 18.8392 265.259 18.9848 267.304 19.1789C269.351 19.373 271.564 19.5428 273.941 19.6884C276.368 19.7854 278.723 19.834 281.006 19.834C284.385 19.834 287.454 19.7369 290.213 19.5428C293.021 19.3002 295.423 19.0818 297.421 18.8878C297.849 20.2464 298.159 21.5565 298.349 22.8181C298.541 24.0311 298.634 25.2684 298.634 26.5301C298.634 28.3254 298.398 30.3877 297.921 32.7168C297.493 35.0459 297.042 37.375 296.565 39.7041C296.09 42.0332 295.851 44.1196 295.851 45.9635V47.2736C297.421 44.9445 298.588 42.0088 299.348 38.4667C300.158 34.876 300.515 30.4605 300.419 25.22C301.752 25.3171 303.18 25.4627 304.701 25.6567C306.271 25.8507 308.198 26.0206 310.482 26.1662C312.765 26.3118 315.62 26.3845 319.046 26.3845C321.854 26.3845 324.162 26.3118 325.969 26.1662C327.777 26.0206 329.347 25.8751 330.679 25.7295C332.059 25.5355 333.534 25.3656 335.104 25.22C335.485 26.239 335.795 27.5248 336.032 29.0776C336.27 30.5817 336.388 32.1829 336.388 33.8813C336.437 35.5797 336.388 37.2051 336.246 38.7579C336.152 40.262 335.938 41.5237 335.603 42.5427C333.226 43.2221 331.178 43.974 329.466 44.799C327.802 45.6239 326.303 46.5215 324.969 47.492C326.16 51.1796 327.802 54.1154 329.894 56.2989C332.035 58.434 334.296 60.1321 336.674 61.3938C337.008 62.3643 337.222 63.6017 337.316 65.1058C337.459 66.6099 337.508 68.2112 337.459 69.9096C337.459 71.5593 337.341 73.1605 337.102 74.7133C336.866 76.2661 336.556 77.5519 336.174 78.5709C334.225 78.3769 332.059 78.1342 329.68 77.843C327.302 77.5519 324.352 77.4063 320.83 77.4063C316.929 77.4063 313.742 77.4791 311.267 77.6247C308.793 77.7703 306.748 77.9158 305.129 78.0614C303.559 78.2554 302.109 78.4253 300.776 78.5709C300.918 76.8241 301.039 75.2228 301.132 73.7671C301.228 72.263 301.275 70.8801 301.275 69.6184C301.275 67.5805 301.181 65.7124 300.99 64.014C300.8 62.3156 300.325 60.7144 299.562 59.2103C298.802 57.7061 297.564 56.2504 295.851 54.8432V61.3938H298.42C298.755 62.3643 298.969 63.6258 299.063 65.1786C299.205 66.6827 299.254 68.284 299.205 69.9823C299.205 71.6807 299.087 73.3061 298.849 74.8589C298.612 76.363 298.302 77.6003 297.921 78.5709C295.922 78.3769 293.425 78.1342 290.427 77.843C287.479 77.6003 284.339 77.4791 281.006 77.4791C278.723 77.4791 276.392 77.5276 274.012 77.6247C271.682 77.7703 269.494 77.9158 267.446 78.0614C265.401 78.2554 263.713 78.4253 262.379 78.5709Z" fill="black"/>
</mask>
<g mask="url(#mask1_546_553)">
<path d="M3.19808 78.5713L2.16272 78.9936L2.47659 79.7938L3.31689 79.7021L3.19808 78.5713ZM2.27029 74.8593L1.16852 75.0349L1.1694 75.0403L2.27029 74.8593ZM1.84209 69.9827H0.726959V69.9989L0.727414 70.0152L1.84209 69.9827ZM1.98483 65.1789L0.874565 65.0727L0.873053 65.0893L0.872009 65.1057L1.98483 65.1789ZM2.6985 61.3942L2.33216 60.3201L1.8238 60.5003L1.64599 61.0184L2.6985 61.3942ZM4.91092 45.8911L4.32648 46.8596L4.3683 46.886L4.41224 46.9083L4.91092 45.8911ZM2.6985 45.236L1.71297 45.7681L2.0077 46.336L2.63666 46.3715L2.6985 45.236ZM1.48525 36.8658L0.370117 36.8351V36.8658H1.48525ZM1.91346 31.7709L3.01603 31.9413L3.01672 31.9363L1.91346 31.7709ZM2.98398 27.695L2.91754 26.5598L2.24683 26.6005L1.96881 27.2244L2.98398 27.695ZM21.2543 26.2393L21.3635 27.3711L21.3725 27.3702L21.2543 26.2393ZM39.2391 24.2014L40.3007 23.8534L40.0206 22.9645L39.1113 23.0716L39.2391 24.2014ZM40.1669 28.4956L39.0609 28.6412L39.0636 28.6619L39.067 28.6826L40.1669 28.4956ZM39.8101 38.831L38.7297 38.5485L38.7251 38.569L39.8101 38.831ZM38.4541 44.4354L39.5326 44.7247L39.5342 44.7179L38.4541 44.4354ZM39.0964 58.41L38.1298 58.9775L38.1427 58.9993L39.0964 58.41ZM42.0939 61.3942L43.1648 61.0771L43.0069 60.5226L42.475 60.3254L42.0939 61.3942ZM42.6648 73.4764L41.5566 73.3478L41.5546 73.3711L42.6648 73.4764ZM41.5943 78.5713L41.4754 79.7021L42.3102 79.7933L42.6271 79.0002L41.5943 78.5713ZM36.3844 78.0618L36.4832 76.9288L36.4602 76.9272L36.3844 78.0618ZM29.4617 77.6251L29.5248 76.4894L29.5038 76.4887L29.4617 77.6251ZM14.8311 77.6251L14.7866 76.4885L14.763 76.4898L14.8311 77.6251ZM8.26524 78.0618L8.18763 76.927L8.16196 76.9293L8.26524 78.0618ZM4.23346 78.1489C3.8937 77.2827 3.6014 76.1337 3.3712 74.6782L1.1694 75.0403C1.41499 76.5933 1.74121 77.9189 2.16272 78.9936L4.23346 78.1489ZM3.37206 74.6837C3.14199 73.182 3.00311 71.6044 2.95677 69.9502L0.727414 70.0152C0.776228 71.7575 0.922814 73.4311 1.16852 75.0349L3.37206 74.6837ZM2.95721 69.9827C2.95721 68.3059 3.00421 66.7292 3.09765 65.2522L0.872009 65.1057C0.775131 66.6371 0.726959 68.263 0.726959 69.9827H2.95721ZM3.09509 65.2852C3.23325 63.7822 3.45902 62.6208 3.75103 61.7699L1.64599 61.0184C1.27189 62.1086 1.02188 63.4703 0.874565 65.0727L3.09509 65.2852ZM3.06485 62.4682C4.40506 61.9928 5.56838 61.0616 6.57031 59.7711L4.82167 58.3591C4.01559 59.3976 3.1806 60.019 2.33216 60.3201L3.06485 62.4682ZM6.57031 59.7711C7.69951 58.3163 8.16711 56.2422 8.16711 53.7518H5.93685C5.93685 56.0165 5.50045 57.4847 4.82167 58.3591L6.57031 59.7711ZM8.16711 53.7518C8.16711 51.1614 7.97995 49.1371 7.53896 47.7878L5.42313 48.507C5.74339 49.4869 5.93685 51.1987 5.93685 53.7518H8.16711ZM7.53896 47.7878C7.12002 46.5061 6.46361 45.4114 5.40963 44.8739L4.41224 46.9083C4.69046 47.0502 5.0808 47.4596 5.42313 48.507L7.53896 47.7878ZM5.49537 44.9226C4.69265 44.4188 3.76836 44.1577 2.76037 44.1006L2.63666 46.3715C3.34151 46.4115 3.89216 46.5871 4.32648 46.8596L5.49537 44.9226ZM3.68406 44.704C3.34521 44.0513 3.05923 43.0395 2.87668 41.5968L0.664759 41.888C0.862849 43.4535 1.19538 44.7711 1.71297 45.7681L3.68406 44.704ZM2.87668 41.5968C2.69331 40.1475 2.60037 38.571 2.60037 36.8658H0.370117C0.370117 38.6543 0.467504 40.3288 0.664759 41.888L2.87668 41.5968ZM2.59997 36.8966C2.64645 35.1429 2.78571 33.4916 3.01603 31.9413L0.810911 31.6006C0.565453 33.2528 0.418804 34.998 0.370117 36.8351L2.59997 36.8966ZM3.01672 31.9363C3.24525 30.3514 3.58057 29.1048 3.99917 28.1656L1.96881 27.2244C1.43583 28.4201 1.05745 29.8908 0.810193 31.6056L3.01672 31.9363ZM3.05044 28.8302C9.43896 28.4413 15.5433 27.955 21.3635 27.3711L21.1451 25.1075C15.356 25.6882 9.28017 26.1725 2.91754 26.5598L3.05044 28.8302ZM21.3725 27.3702C27.1805 26.739 33.1786 26.0594 39.3669 25.3311L39.1113 23.0716C32.9291 23.799 26.9375 24.478 21.1362 25.1084L21.3725 27.3702ZM38.1775 24.5494C38.5837 25.8381 38.8787 27.2015 39.0609 28.6412L41.2729 28.3501C41.0744 26.7814 40.751 25.282 40.3007 23.8534L38.1775 24.5494ZM39.067 28.6826C39.2965 30.0867 39.4086 31.382 39.4086 32.5716H41.6389C41.6389 31.2378 41.5133 29.816 41.2669 28.3087L39.067 28.6826ZM39.4086 32.5716C39.4086 34.7724 39.1787 36.7624 38.7297 38.5485L40.8902 39.1135C41.3927 37.1149 41.6389 34.9321 41.6389 32.5716H39.4086ZM38.7251 38.569C38.2984 40.4059 37.8481 42.2671 37.374 44.1529L39.5342 44.7179C40.0117 42.8189 40.4653 40.944 40.8951 39.093L38.7251 38.569ZM37.3758 44.1461C36.8713 46.1006 36.6253 48.2623 36.6253 50.6221H38.8555C38.8555 48.4208 39.0855 46.4579 39.5326 44.7247L37.3758 44.1461ZM36.6253 50.6221C36.6253 54.2565 37.0733 57.106 38.1298 58.9775L40.0628 57.8425C39.3114 56.5115 38.8555 54.169 38.8555 50.6221H36.6253ZM38.1427 58.9993C39.1472 60.6897 40.3155 61.9448 41.7127 62.463L42.475 60.3254C41.7787 60.0672 40.9486 59.3328 40.0501 57.8204L38.1427 58.9993ZM41.0229 61.7112C41.4183 63.1 41.6721 64.8714 41.7649 67.0479L43.9929 66.9492C43.8955 64.6615 43.6258 62.6968 43.1648 61.0771L41.0229 61.7112ZM41.7649 67.0479C41.8575 69.1728 41.7879 71.2733 41.5566 73.3478L43.7728 73.6049C44.0175 71.4093 44.0906 69.1914 43.9929 66.9492L41.7649 67.0479ZM41.5546 73.3711C41.3699 75.3945 41.0289 76.9723 40.5617 78.1423L42.6271 79.0002C43.2063 77.55 43.579 75.7313 43.7753 73.5817L41.5546 73.3711ZM41.7132 77.4404C40.3714 77.2939 38.6274 77.1231 36.4832 76.9288L36.2856 79.1945C38.4235 79.3883 40.1527 79.5575 41.4754 79.7021L41.7132 77.4404ZM36.4602 76.9272C34.3618 76.7812 32.0499 76.6352 29.5248 76.4894L29.3985 78.7605C31.917 78.9058 34.2202 79.0512 36.3086 79.1963L36.4602 76.9272ZM29.5038 76.4887C26.9678 76.3909 24.4083 76.3422 21.8252 76.3422V78.6167C24.3807 78.6167 26.9122 78.665 29.4195 78.7614L29.5038 76.4887ZM21.8252 76.3422C19.526 76.3422 17.1797 76.3909 14.7866 76.4885L14.8757 78.7614C17.2404 78.665 19.5569 78.6167 21.8252 78.6167V76.3422ZM14.763 76.4898C12.4289 76.6356 10.2371 76.7812 8.18763 76.927L8.34285 79.1963C10.3852 79.051 12.5707 78.9056 14.8993 78.7603L14.763 76.4898ZM8.16196 76.9293C6.1133 77.1238 4.41862 77.2941 3.0793 77.4404L3.31689 79.7021C4.64198 79.5573 6.3254 79.388 8.36855 79.1943L8.16196 76.9293ZM62.6252 84.6851L62.3679 85.7917L62.3703 85.7924L62.6252 84.6851ZM51.9913 79.2991L51.2027 80.1034L51.2103 80.1111L51.9913 79.2991ZM52.2054 59.8657L51.4991 58.9855L51.4915 58.992L52.2054 59.8657ZM73.6873 59.2834L72.979 60.1618L72.9884 60.1696L73.6873 59.2834ZM77.8981 66.7802L76.8039 66.9999L77.0073 68.0535L78.0504 67.9068L77.8981 66.7802ZM79.9678 66.4891L80.1201 67.6156L81.2981 67.45L81.0604 66.2616L79.9678 66.4891ZM78.0408 61.103L77.1012 61.7162L77.1186 61.7426L78.0408 61.103ZM75.757 58.2644H74.6419V58.7805L75.0226 59.1203L75.757 58.2644ZM75.757 52.66L75.7276 51.5232L74.6419 51.5524V52.66H75.757ZM78.469 52.5873L78.4982 53.7241L79.5842 53.6949V52.5873H78.469ZM78.469 48.6569H79.5842V47.5197H78.469V48.6569ZM74.6865 48.6569V47.5197H73.5714V48.6569H74.6865ZM74.6865 54.5524L74.7365 55.6885L75.8016 55.6396V54.5524H74.6865ZM62.197 55.0619L62.2231 56.1989L62.2358 56.1985L62.197 55.0619ZM49.1366 54.9164L48.0279 55.0385L48.1312 56.0127L49.0911 56.0527L49.1366 54.9164ZM48.3515 44.1443L47.2366 44.1745L47.2373 44.1905L48.3515 44.1443ZM49.4934 25.6571V24.5198H48.5866L48.4017 25.4251L49.4934 25.6571ZM60.9124 25.9482L60.8649 27.0848L60.889 27.0852L60.9124 25.9482ZM73.2591 26.2393L74.1258 26.9549L75.544 25.1683L73.2908 25.1025L73.2591 26.2393ZM71.3322 30.1697L70.2645 29.8397L70.2563 29.8704L71.3322 30.1697ZM71.3322 34.8279L70.2612 35.145L71.4426 39.295L72.4172 35.0895L71.3322 34.8279ZM75.0433 28.5684L75.7372 29.4589L75.7505 29.4475L75.0433 28.5684ZM82.1088 25.2931L81.8762 24.1809L81.8726 24.1816L82.1088 25.2931ZM112.084 48.0746L113.086 48.5732L113.09 48.5636L112.084 48.0746ZM107.088 54.698L106.299 53.8937L105.418 54.7924L106.391 55.586L107.088 54.698ZM111.513 59.7929L110.574 60.4082L110.592 60.4343L111.513 59.7929ZM104.804 81.4826L104.273 80.4823L104.267 80.4857L104.804 81.4826ZM79.4682 85.2219C72.9587 85.2219 67.4348 84.6681 62.8799 83.5779L62.3703 85.7924C67.1408 86.9342 72.8456 87.4964 79.4682 87.4964V85.2219ZM62.8824 83.5786C58.3949 82.4934 55.0573 80.7728 52.7722 78.4871L51.2103 80.1111C53.8735 82.7748 57.6252 84.6449 62.3679 85.7917L62.8824 83.5786ZM52.7797 78.4948C50.5968 76.2688 49.4667 73.3012 49.4667 69.4732H47.2364C47.2364 73.7971 48.5326 77.3801 51.2027 80.1034L52.7797 78.4948ZM49.4667 69.4732C49.4667 65.5017 50.6637 62.6563 52.9191 60.7393L51.4915 58.992C48.6087 61.4422 47.2364 65.0018 47.2364 69.4732H49.4667ZM52.9115 60.7459C55.26 58.7862 58.6844 57.7276 63.3389 57.7276V55.4531C58.3824 55.4531 54.3844 56.5781 51.4991 58.9855L52.9115 60.7459ZM63.3389 57.7276C68.0066 57.7276 71.1372 58.6174 72.979 60.1618L74.3954 58.405C71.9551 56.3586 68.1868 55.4531 63.3389 55.4531V57.7276ZM72.9884 60.1696C74.9441 61.774 76.2285 64.0212 76.8039 66.9999L78.992 66.5605C78.3303 63.1342 76.8077 60.3836 74.3861 58.3973L72.9884 60.1696ZM78.0504 67.9068L80.1201 67.6156L79.8152 65.3625L77.7455 65.6536L78.0504 67.9068ZM81.0604 66.2616C80.5717 63.8206 79.8917 61.8566 78.9628 60.4634L77.1186 61.7426C77.8075 62.7757 78.4119 64.4024 78.8751 66.7165L81.0604 66.2616ZM78.98 60.49C78.1826 59.2193 77.3561 58.1803 76.4912 57.4085L75.0226 59.1203C75.6803 59.7072 76.3761 60.5608 77.1012 61.7162L78.98 60.49ZM76.8722 58.2644V52.66H74.6419V58.2644H76.8722ZM75.7862 53.7968L78.4982 53.7241L78.4396 51.4505L75.7276 51.5232L75.7862 53.7968ZM79.5842 52.5873V48.6569H77.3539V52.5873H79.5842ZM78.469 47.5197H74.6865V49.7942H78.469V47.5197ZM73.5714 48.6569V54.5524H75.8016V48.6569H73.5714ZM74.6363 53.4163C70.4055 53.6103 66.2461 53.78 62.158 53.9254L62.2358 56.1985C66.3315 56.0527 70.4983 55.8828 74.7365 55.6885L74.6363 53.4163ZM62.1707 53.9249C58.1538 54.0213 53.8244 53.9733 49.1819 53.78L49.0911 56.0527C53.7742 56.2476 58.1518 56.2965 62.2231 56.1989L62.1707 53.9249ZM50.2453 54.7942C49.8672 51.2287 49.6074 47.6634 49.4656 44.0981L47.2373 44.1905C47.3809 47.8067 47.6446 51.4227 48.0279 55.0385L50.2453 54.7942ZM49.4662 44.114C49.3717 40.5032 49.4192 37.1404 49.6072 34.0243L47.3812 33.8846C47.1885 37.0765 47.1407 40.5069 47.2366 44.1745L49.4662 44.114ZM49.6072 34.0243C49.7954 30.8591 50.1233 28.1495 50.5849 25.8891L48.4017 25.4251C47.9117 27.8229 47.5736 30.6448 47.3812 33.8846L49.6072 34.0243ZM49.4934 26.7943C50.8613 26.7943 52.5409 26.8184 54.5341 26.8669L54.5871 24.5928C52.5835 24.5444 50.8849 24.5198 49.4934 24.5198V26.7943ZM54.5341 26.8669C56.5246 26.9151 58.6348 26.9881 60.8649 27.0848L60.9597 24.8121C58.7174 24.7147 56.593 24.6417 54.5871 24.5928L54.5341 26.8669ZM60.889 27.0852C63.1723 27.1337 65.3843 27.1821 67.5247 27.2308L67.5744 24.9567C65.4327 24.9083 63.2198 24.8596 60.9356 24.8112L60.889 27.0852ZM67.5247 27.2308C69.6642 27.2792 71.5648 27.3277 73.2272 27.3761L73.2908 25.1025C71.6228 25.0539 69.717 25.0054 67.5744 24.9567L67.5247 27.2308ZM72.3922 25.5238C71.4716 26.6838 70.771 28.1351 70.2645 29.8397L72.3994 30.4995C72.8443 29.0015 73.4289 27.8329 74.1258 26.9549L72.3922 25.5238ZM70.2563 29.8704C69.7775 31.6611 69.7723 33.4275 70.2612 35.145L72.4029 34.5108C72.0354 33.2198 72.0302 31.8808 72.4078 30.469L70.2563 29.8704ZM72.4172 35.0895C72.9864 32.6339 74.1035 30.7831 75.7372 29.4589L74.3493 27.6782C72.2718 29.3622 70.9149 31.6843 70.2469 34.5663L72.4172 35.0895ZM75.7505 29.4475C77.4429 28.0316 79.6261 27.0054 82.3448 26.4047L81.8726 24.1816C78.8821 24.8426 76.3547 25.9998 74.3359 27.6893L75.7505 29.4475ZM82.3412 26.4054C85.1536 25.7942 88.3094 25.4842 91.8149 25.4842V23.2097C88.1834 23.2097 84.8685 23.5306 81.8762 24.1809L82.3412 26.4054ZM91.8149 25.4842C96.1073 25.4842 99.7926 26.008 102.89 27.0302L103.577 24.8662C100.204 23.7533 96.277 23.2097 91.8149 23.2097V25.4842ZM102.89 27.0302C105.928 28.0326 108.244 29.6966 109.899 32.0052L111.699 30.6633C109.737 27.9254 107.01 25.9989 103.577 24.8662L102.89 27.0302ZM109.899 32.0052C111.521 34.2697 112.396 37.4504 112.396 41.6696H114.626C114.626 37.1547 113.692 33.445 111.699 30.6633L109.899 32.0052ZM112.396 41.6696C112.396 43.7305 111.958 45.6987 111.077 47.5856L113.09 48.5636C114.112 46.3747 114.626 44.0729 114.626 41.6696H112.396ZM111.081 47.5761C110.205 49.4077 108.633 51.5132 106.299 53.8937L107.876 55.5023C110.3 53.0303 112.059 50.7203 113.086 48.5732L111.081 47.5761ZM106.391 55.586C107.952 56.8595 109.347 58.4621 110.574 60.4082L112.45 59.1779C111.108 57.0478 109.554 55.2539 107.784 53.81L106.391 55.586ZM110.592 60.4343C111.779 62.2078 112.396 64.354 112.396 66.9258H114.626C114.626 63.966 113.91 61.3569 112.433 59.1515L110.592 60.4343ZM112.396 66.9258C112.396 69.9986 111.712 72.6261 110.382 74.8493C109.051 77.0746 107.034 78.9591 104.273 80.4823L105.335 82.483C108.378 80.8037 110.715 78.6606 112.286 76.0338C113.859 73.4047 114.626 70.355 114.626 66.9258H112.396ZM104.267 80.4857C98.7029 83.6022 90.4779 85.2219 79.4682 85.2219V87.4964C90.6302 87.4964 99.2957 85.8652 105.341 82.4795L104.267 80.4857ZM126.567 31.1159L125.861 30.2361L125.857 30.2391L126.567 31.1159ZM176.739 31.0431L176.019 31.9111L176.027 31.9181L176.739 31.0431ZM176.311 72.9669L177.011 73.8528L177.015 73.8491L176.311 72.9669ZM149.619 56.0081H148.504V57.1454H149.619V56.0081ZM153.473 56.0081V57.1454H154.588V56.0081H153.473ZM153.473 48.0746H154.588V46.9374H153.473V48.0746ZM149.619 48.0746V46.9374H148.504V48.0746H149.619ZM150.975 78.7441C140.226 78.7441 132.371 76.5085 127.218 72.2304C122.108 67.9889 119.475 61.5866 119.475 52.8056H117.245C117.245 62.0751 120.048 69.2107 125.81 73.9945C131.528 78.7416 139.981 81.0186 150.975 81.0186V78.7441ZM119.475 52.8056C119.475 43.1651 122.147 36.3154 127.277 31.9927L125.857 30.2391C120.045 35.1356 117.245 42.7459 117.245 52.8056H119.475ZM127.274 31.9957C132.511 27.6216 140.467 25.3386 151.332 25.3386V23.0641C140.216 23.0641 131.662 25.3907 125.861 30.2361L127.274 31.9957ZM151.332 25.3386C162.891 25.3386 171.037 27.6086 176.019 31.9111L177.46 30.1751C171.879 25.3555 163.087 23.0641 151.332 23.0641V25.3386ZM176.027 31.9181C181.038 36.1619 183.617 42.4737 183.617 51.0588H185.848C185.848 41.9817 183.098 34.9496 177.452 30.1681L176.027 31.9181ZM183.617 51.0588C183.617 60.7905 180.878 67.7114 175.607 72.0846L177.015 73.8491C182.972 68.906 185.848 61.2215 185.848 51.0588H183.617ZM175.612 72.0809C170.28 76.4585 162.132 78.7441 150.975 78.7441V81.0186C162.371 81.0186 171.113 78.6945 177.011 73.8528L175.612 72.0809ZM149.619 57.1454H153.473V54.8709H149.619V57.1454ZM154.588 56.0081V48.0746H152.358V56.0081H154.588ZM153.473 46.9374H149.619V49.2119H153.473V46.9374ZM148.504 48.0746V56.0081H150.734V48.0746H148.504ZM198.663 31.1159L197.957 30.2361L197.953 30.2391L198.663 31.1159ZM248.835 31.0431L248.114 31.9111L248.123 31.9181L248.835 31.0431ZM248.407 72.9669L249.107 73.8528L249.111 73.8491L248.407 72.9669ZM221.715 56.0081H220.6V57.1454H221.715V56.0081ZM225.569 56.0081V57.1454H226.684V56.0081H225.569ZM225.569 48.0746H226.684V46.9374H225.569V48.0746ZM221.715 48.0746V46.9374H220.6V48.0746H221.715ZM223.071 78.7441C212.322 78.7441 204.467 76.5085 199.314 72.2304C194.204 67.9889 191.571 61.5866 191.571 52.8056H189.341C189.341 62.0751 192.144 69.2107 197.906 73.9945C203.624 78.7416 212.077 81.0186 223.071 81.0186V78.7441ZM191.571 52.8056C191.571 43.1651 194.242 36.3154 199.374 31.9927L197.953 30.2391C192.141 35.1356 189.341 42.7459 189.341 52.8056H191.571ZM199.37 31.9957C204.607 27.6216 212.563 25.3386 223.428 25.3386V23.0641C212.312 23.0641 203.758 25.3907 197.957 30.2361L199.37 31.9957ZM223.428 25.3386C234.987 25.3386 243.132 27.6086 248.114 31.9111L249.555 30.1751C243.975 25.3555 235.183 23.0641 223.428 23.0641V25.3386ZM248.123 31.9181C253.135 36.1619 255.713 42.4737 255.713 51.0588H257.943C257.943 41.9817 255.193 34.9496 249.549 30.1681L248.123 31.9181ZM255.713 51.0588C255.713 60.7905 252.974 67.7114 247.704 72.0846L249.111 73.8491C255.068 68.906 257.943 61.2215 257.943 51.0588H255.713ZM247.709 72.0809C242.376 76.4585 234.229 78.7441 223.071 78.7441V81.0186C234.467 81.0186 243.21 78.6945 249.107 73.8528L247.709 72.0809ZM221.715 57.1454H225.569V54.8709H221.715V57.1454ZM226.684 56.0081V48.0746H224.454V56.0081H226.684ZM225.569 46.9374H221.715V49.2119H225.569V46.9374ZM220.6 48.0746V56.0081H222.831V48.0746H220.6ZM262.379 78.5713L261.344 78.9936L261.659 79.7938L262.5 79.7021L262.379 78.5713ZM261.451 74.8593L260.35 75.0349L260.352 75.0403L261.451 74.8593ZM261.023 69.9827H259.908V69.9989V70.0152L261.023 69.9827ZM261.166 65.1789L260.055 65.0727V65.0893L260.053 65.1057L261.166 65.1789ZM261.88 61.3942L261.467 60.3383L260.994 60.5303L260.827 61.0184L261.88 61.3942ZM263.949 59.9385L264.739 60.7427L264.752 60.7289L264.766 60.7145L263.949 59.9385ZM265.591 56.2993L266.672 56.5824V56.5752L265.591 56.2993ZM265.448 41.3057L264.378 41.6266L264.389 41.6557L265.448 41.3057ZM263.664 37.8848L262.877 38.6891L262.903 38.7178L262.935 38.7441L263.664 37.8848ZM261.88 36.5019L260.894 37.0339L261.072 37.3767L261.418 37.5373L261.88 36.5019ZM260.952 33.0083L259.846 33.1493V33.1538L260.952 33.0083ZM260.666 27.9862L259.551 27.9555V27.9862H260.666ZM262.165 18.7426L262.243 17.608L261.471 17.5537L261.15 18.272L262.165 18.7426ZM273.941 19.6887L273.874 20.8242L273.899 20.8251L273.941 19.6887ZM290.213 19.5432L290.291 20.6779L290.307 20.6764L290.213 19.5432ZM297.421 18.8881L298.483 18.5401L298.208 17.6693L297.316 17.756L297.421 18.8881ZM298.349 22.8185L297.247 22.9913L297.249 22.9982L298.349 22.8185ZM297.921 32.7171L296.83 32.4851L296.826 32.5077L297.921 32.7171ZM295.851 47.274H294.736V50.9355L296.77 47.9184L295.851 47.274ZM299.348 38.4671L298.262 38.2124L298.26 38.2237L299.348 38.4671ZM300.419 25.2204L300.499 24.0861L299.281 23.9974L299.303 25.2415L300.419 25.2204ZM304.701 25.6571L304.562 26.7854L304.567 26.7861L304.701 25.6571ZM330.679 25.7298L330.799 26.8607L330.815 26.8587L330.833 26.8564L330.679 25.7298ZM335.104 25.2204L336.145 24.8155L335.846 24.0096L335.003 24.0879L335.104 25.2204ZM336.031 29.0779L334.93 29.2535L334.932 29.259L336.031 29.0779ZM336.388 33.8817H335.273V33.8978V33.9142L336.388 33.8817ZM336.246 38.7582L335.135 38.652V38.6686L335.133 38.685L336.246 38.7582ZM335.603 42.543L335.904 43.6382L336.475 43.4753L336.663 42.9026L335.603 42.543ZM329.466 44.7993L328.99 43.7708L328.979 43.7763L329.466 44.7993ZM324.969 47.4924L324.323 46.5669L323.653 47.0531L323.91 47.8476L324.969 47.4924ZM329.894 56.2993L329.098 57.0944L329.115 57.1124L329.894 56.2993ZM336.674 61.3942L337.726 61.0184L337.581 60.5931L337.189 60.3852L336.674 61.3942ZM337.316 65.1062L336.203 65.1794L336.205 65.1976L336.208 65.2158L337.316 65.1062ZM337.459 69.9099L336.344 69.8774V69.8938V69.9099H337.459ZM336.174 78.5713L336.067 79.7031L336.915 79.7874L337.218 78.9761L336.174 78.5713ZM305.129 78.0618L305.031 76.9288L305.013 76.9307L304.995 76.9327L305.129 78.0618ZM300.775 78.5713L299.665 78.4769L299.553 79.8486L300.896 79.7021L300.775 78.5713ZM301.132 73.7675L302.245 73.8432V73.8407L301.132 73.7675ZM295.851 54.8436L296.551 53.9579L294.736 52.4672V54.8436H295.851ZM295.851 61.3942H294.736V62.5314H295.851V61.3942ZM298.42 61.3942L299.473 61.0184L299.212 60.2569H298.42V61.3942ZM299.063 65.1789L297.95 65.2499L297.952 65.2692L297.954 65.2886L299.063 65.1789ZM299.205 69.9827L298.09 69.9502V69.9666V69.9827H299.205ZM298.848 74.8593L299.95 75.0403V75.0349L298.848 74.8593ZM297.921 78.5713L297.816 79.7033L298.646 79.784L298.956 78.9936L297.921 78.5713ZM290.427 77.8434L290.534 76.7112L290.516 76.7098L290.427 77.8434ZM274.012 77.6251L273.968 76.4885L273.945 76.4898L274.012 77.6251ZM267.446 78.0618L267.368 76.927L267.344 76.9293L267.446 78.0618ZM263.414 78.1489C263.075 77.2827 262.783 76.1337 262.553 74.6782L260.352 75.0403C260.597 76.5933 260.923 77.9189 261.344 78.9936L263.414 78.1489ZM262.553 74.6837C262.323 73.182 262.185 71.6044 262.138 69.9502L259.908 70.0152C259.957 71.7575 260.104 73.4311 260.35 75.0349L262.553 74.6837ZM262.138 69.9827C262.138 68.3059 262.185 66.7292 262.279 65.2522L260.053 65.1057C259.957 66.6371 259.908 68.263 259.908 69.9827H262.138ZM262.277 65.2852C262.415 63.7822 262.64 62.6208 262.932 61.7699L260.827 61.0184C260.454 62.1086 260.202 63.4703 260.055 65.0727L262.277 65.2852ZM262.294 62.45C263.175 62.0904 263.989 61.507 264.739 60.7427L263.162 59.1342C262.578 59.7285 262.011 60.1157 261.467 60.3383L262.294 62.45ZM264.766 60.7145C265.622 59.7783 266.226 58.344 266.672 56.5824L264.511 56.0161C264.099 57.651 263.61 58.6429 263.135 59.1624L264.766 60.7145ZM266.672 56.5752C267.134 54.6932 267.348 52.0848 267.348 48.8025H265.118C265.118 52.0223 264.904 54.4116 264.509 56.0234L266.672 56.5752ZM267.348 48.8025C267.348 45.4246 267.087 42.78 266.51 40.9556L264.389 41.6557C264.855 43.131 265.118 45.4842 265.118 48.8025H267.348ZM266.519 40.9848C266.023 39.2686 265.352 37.8721 264.395 37.0255L262.935 38.7441C263.403 39.159 263.92 40.0431 264.378 41.6266L266.519 40.9848ZM264.453 37.0806C263.744 36.3584 263.039 35.7902 262.341 35.4666L261.418 37.5373C261.768 37.6988 262.252 38.0525 262.877 38.6891L264.453 37.0806ZM262.865 35.9699C262.526 35.3171 262.241 34.3054 262.058 32.8627L259.846 33.1538C260.044 34.7194 260.376 36.037 260.894 37.0339L262.865 35.9699ZM262.058 32.8673C261.875 31.3674 261.781 29.7412 261.781 27.9862H259.551C259.551 29.8219 259.649 31.5435 259.846 33.1493L262.058 32.8673ZM261.781 28.0169C261.828 26.2632 261.967 24.5858 262.199 22.9838L259.993 22.653C259.747 24.3506 259.6 26.1183 259.551 27.9555L261.781 28.0169ZM262.199 22.9838C262.426 21.399 262.763 20.1523 263.18 19.2131L261.15 18.272C260.617 19.4678 260.238 20.9383 259.993 22.653L262.199 22.9838ZM262.089 19.8771C263.456 19.9733 265.16 20.118 267.201 20.3116L267.408 18.0469C265.357 17.8523 263.635 17.7059 262.243 17.608L262.089 19.8771ZM267.201 20.3116C269.262 20.507 271.485 20.678 273.874 20.8242L274.008 18.5535C271.639 18.4086 269.44 18.2397 267.408 18.0469L267.201 20.3116ZM273.899 20.8251C276.338 20.9227 278.707 20.9716 281.006 20.9716V18.6971C278.738 18.6971 276.399 18.6489 273.986 18.5524L273.899 20.8251ZM281.006 20.9716C284.405 20.9716 287.501 20.8741 290.291 20.6779L290.137 18.4086C287.407 18.6006 284.365 18.6971 281.006 18.6971V20.9716ZM290.307 20.6764C293.117 20.4335 295.523 20.2148 297.528 20.0203L297.316 17.756C295.322 17.9496 292.925 18.1676 290.119 18.41L290.307 20.6764ZM296.359 19.2361C296.772 20.5442 297.066 21.7956 297.247 22.9913L299.451 22.6455C299.252 21.3181 298.927 19.9493 298.483 18.5401L296.359 19.2361ZM297.249 22.9982C297.43 24.1502 297.519 25.3275 297.519 26.5305H299.75C299.75 25.2103 299.651 23.913 299.451 22.6388L297.249 22.9982ZM297.519 26.5305C297.519 28.2275 297.294 30.2093 296.83 32.4851L299.014 32.9491C299.5 30.5666 299.75 28.4242 299.75 26.5305H297.519ZM296.826 32.5077C296.397 34.8292 295.947 37.1508 295.474 39.4724L297.658 39.9364C298.135 37.5998 298.588 35.2632 299.018 32.9266L296.826 32.5077ZM295.474 39.4724C294.986 41.8573 294.736 44.0235 294.736 45.9639H296.966C296.966 44.2166 297.194 42.2098 297.658 39.9364L295.474 39.4724ZM294.736 45.9639V47.274H296.966V45.9639H294.736ZM296.77 47.9184C298.443 45.4392 299.654 42.3574 300.439 38.7105L298.26 38.2237C297.521 41.6612 296.402 44.4507 294.932 46.6296L296.77 47.9184ZM300.436 38.7216C301.271 35.0114 301.63 30.497 301.534 25.1992L299.303 25.2415C299.399 30.4247 299.045 34.7412 298.262 38.2124L300.436 38.7216ZM300.341 26.3547C301.65 26.4502 303.057 26.5935 304.562 26.7854L304.839 24.5287C303.3 24.3324 301.853 24.1848 300.499 24.0861L300.341 26.3547ZM304.567 26.7861C306.166 26.9838 308.115 27.1553 310.412 27.3015L310.551 25.0316C308.28 24.8867 306.378 24.7186 304.835 24.528L304.567 26.7861ZM310.412 27.3015C312.727 27.4491 315.607 27.5222 319.046 27.5222V25.2477C315.633 25.2477 312.803 25.1751 310.551 25.0316L310.412 27.3015ZM319.046 27.5222C321.869 27.5222 324.209 27.4491 326.058 27.3002L325.882 25.0329C324.113 25.1751 321.838 25.2477 319.046 25.2477V27.5222ZM326.058 27.3002C327.871 27.1541 329.452 27.0077 330.799 26.8607L330.561 24.599C329.243 24.7432 327.681 24.8878 325.882 25.0329L326.058 27.3002ZM330.833 26.8564C332.193 26.6651 333.65 26.497 335.206 26.3528L335.003 24.0879C333.418 24.2348 331.926 24.4065 330.527 24.6033L330.833 26.8564ZM334.062 25.6252C334.406 26.5455 334.7 27.748 334.93 29.2535L337.133 28.9023C336.888 27.3024 336.564 25.9332 336.145 24.8155L334.062 25.6252ZM334.932 29.259C335.159 30.6969 335.273 32.2372 335.273 33.8817H337.503C337.503 32.1294 337.381 30.4672 337.133 28.8969L334.932 29.259ZM335.273 33.9142C335.32 35.5703 335.273 37.1492 335.135 38.652L337.356 38.8645C337.503 37.2616 337.552 35.5896 337.503 33.8492L335.273 33.9142ZM335.133 38.685C335.041 40.1277 334.838 41.2859 334.546 42.1834L336.663 42.9026C337.035 41.7622 337.26 40.3973 337.358 38.8315L335.133 38.685ZM335.302 41.4478C332.88 42.1395 330.772 42.9119 328.99 43.7708L329.943 45.8276C331.584 45.0368 333.569 44.3051 335.904 43.6382L335.302 41.4478ZM328.979 43.7763C327.264 44.6256 325.712 45.5549 324.323 46.5669L325.618 48.4179C326.894 47.4887 328.337 46.6228 329.954 45.8224L328.979 43.7763ZM323.91 47.8476C325.139 51.657 326.856 54.7576 329.098 57.0944L330.692 55.5041C328.745 53.4739 327.18 50.7031 326.029 47.1371L323.91 47.8476ZM329.115 57.1124C331.326 59.3166 333.674 61.0844 336.161 62.4031L337.189 60.3852C334.919 59.1808 332.746 57.5518 330.674 55.4861L329.115 57.1124ZM335.621 61.7699C335.909 62.609 336.112 63.7351 336.203 65.1794L338.429 65.0329C338.331 63.4687 338.106 62.1204 337.726 61.0184L335.621 61.7699ZM336.208 65.2158C336.344 66.6674 336.391 68.2209 336.344 69.8774L338.574 69.9424C338.623 68.2024 338.574 66.5534 338.427 64.9965L336.208 65.2158ZM336.344 69.9099C336.344 71.5039 336.23 73.0462 336 74.5381L338.204 74.8893C338.451 73.2757 338.574 71.6156 338.574 69.9099H336.344ZM336 74.5381C335.77 76.0436 335.476 77.2461 335.133 78.1664L337.218 78.9761C337.635 77.8584 337.958 76.4892 338.204 74.8893L336 74.5381ZM336.283 77.4395C334.343 77.2463 332.186 77.0046 329.813 76.7143L329.548 78.9725C331.932 79.2645 334.107 79.5081 336.067 79.7031L336.283 77.4395ZM329.813 76.7143C327.376 76.4159 324.378 76.2695 320.83 76.2695V78.544C324.325 78.544 327.229 78.6886 329.548 78.9725L329.813 76.7143ZM320.83 76.2695C316.918 76.2695 313.706 76.3425 311.202 76.4896L311.331 78.7605C313.776 78.6165 316.94 78.544 320.83 78.544V76.2695ZM311.202 76.4896C308.722 76.6357 306.666 76.7819 305.031 76.9288L305.227 79.1947C306.831 79.0505 308.862 78.9056 311.331 78.7605L311.202 76.4896ZM304.995 76.9327C303.429 77.1263 301.984 77.2955 300.657 77.4404L300.896 79.7021C302.234 79.5559 303.69 79.3853 305.263 79.1908L304.995 76.9327ZM301.888 78.6656C302.031 76.9138 302.149 75.3062 302.245 73.8432L300.019 73.6918C299.926 75.1402 299.808 76.735 299.665 78.4769L301.888 78.6656ZM302.245 73.8407C302.341 72.3166 302.39 70.9089 302.39 69.6188H300.16C300.16 70.8518 300.113 72.2099 300.019 73.6943L302.245 73.8407ZM302.39 69.6188C302.39 67.5456 302.294 65.6336 302.098 63.8852L299.881 64.1436C300.066 65.7917 300.16 67.6161 300.16 69.6188H302.39ZM302.098 63.8852C301.893 62.0513 301.378 60.317 300.555 58.6891L298.572 59.7322C299.27 61.1128 299.707 62.5808 299.881 64.1436L302.098 63.8852ZM300.555 58.6891C299.703 57.0064 298.347 55.4338 296.551 53.9579L295.153 55.7293C296.781 57.0678 297.901 58.4066 298.572 59.7322L300.555 58.6891ZM294.736 54.8436V61.3942H296.966V54.8436H294.736ZM295.851 62.5314H298.42V60.2569H295.851V62.5314ZM297.368 61.7699C297.655 62.6056 297.858 63.7537 297.95 65.2499L300.175 65.108C300.077 63.4988 299.852 62.1238 299.473 61.0184L297.368 61.7699ZM297.954 65.2886C298.09 66.7402 298.137 68.2937 298.09 69.9502L300.32 70.0152C300.37 68.2752 300.32 66.6262 300.173 65.0693L297.954 65.2886ZM298.09 69.9827C298.09 71.627 297.976 73.1934 297.747 74.6837L299.95 75.0349C300.198 73.4195 300.32 71.7352 300.32 69.9827H298.09ZM297.749 74.6782C297.517 76.1337 297.225 77.2827 296.886 78.1489L298.956 78.9936C299.377 77.9189 299.705 76.5933 299.95 75.0403L297.749 74.6782ZM298.028 77.4392C296.029 77.245 293.532 77.0023 290.534 76.7112L290.322 78.9754C293.32 79.2666 295.818 79.5093 297.816 79.7033L298.028 77.4392ZM290.516 76.7098C287.534 76.4644 284.363 76.3422 281.006 76.3422V78.6167C284.312 78.6167 287.421 78.7371 290.338 78.977L290.516 76.7098ZM281.006 76.3422C278.707 76.3422 276.361 76.3909 273.968 76.4885L274.057 78.7614C276.423 78.665 278.738 78.6167 281.006 78.6167V76.3422ZM273.945 76.4898C271.61 76.6356 269.418 76.7812 267.368 76.927L267.524 79.1963C269.567 79.051 271.753 78.9056 274.081 78.7603L273.945 76.4898ZM267.344 76.9293C265.294 77.1238 263.601 77.2941 262.261 77.4404L262.5 79.7021C263.824 79.5573 265.506 79.388 267.551 79.1943L267.344 76.9293Z" fill="black"/>
</g>
<path d="M143.852 29.0001C147.855 29.0001 151.1 25.6906 151.1 21.608C151.1 17.5254 147.855 14.2158 143.852 14.2158C139.849 14.2158 136.604 17.5254 136.604 21.608C136.604 25.6906 139.849 29.0001 143.852 29.0001Z" fill="white" stroke="black" stroke-width="0.5"/>
<path d="M161.694 29.0001C165.697 29.0001 168.942 25.6906 168.942 21.608C168.942 17.5254 165.697 14.2158 161.694 14.2158C157.691 14.2158 154.445 17.5254 154.445 21.608C154.445 25.6906 157.691 29.0001 161.694 29.0001Z" fill="white" stroke="black" stroke-width="0.5"/>
<path d="M143.852 25.0198C145.7 25.0198 147.198 23.4923 147.198 21.6081C147.198 19.7238 145.7 18.1963 143.852 18.1963C142.005 18.1963 140.507 19.7238 140.507 21.6081C140.507 23.4923 142.005 25.0198 143.852 25.0198Z" fill="black"/>
<path d="M161.694 25.0198C163.542 25.0198 165.039 23.4923 165.039 21.6081C165.039 19.7238 163.542 18.1963 161.694 18.1963C159.846 18.1963 158.349 19.7238 158.349 21.6081C158.349 23.4923 159.846 25.0198 161.694 25.0198Z" fill="black"/>
<path d="M47.993 112.549V105.145H45.485V103.669H52.277V105.145H49.769V112.549H47.993ZM53.585 112.549V102.985H55.349V105.397L55.265 106.657C55.793 106.153 56.465 105.673 57.377 105.673C58.817 105.673 59.453 106.681 59.453 108.361V112.549H57.689V108.589C57.689 107.533 57.389 107.185 56.741 107.185C56.189 107.185 55.841 107.449 55.349 107.929V112.549H53.585ZM64.1888 112.717C62.3048 112.717 60.8408 111.421 60.8408 109.201C60.8408 107.017 62.3768 105.673 63.9608 105.673C65.8208 105.673 66.7688 107.017 66.7688 108.877C66.7688 109.213 66.7328 109.525 66.6968 109.693H62.5448C62.7008 110.797 63.4208 111.361 64.4168 111.361C64.9568 111.361 65.4368 111.193 65.9288 110.893L66.5168 111.985C65.8568 112.441 65.0168 112.717 64.1888 112.717ZM62.5208 108.517H65.2688C65.2688 107.605 64.8608 107.029 63.9968 107.029C63.2888 107.029 62.6648 107.533 62.5208 108.517ZM70.9522 112.549V105.841H72.3802L72.5242 106.729H72.5602C73.1362 106.153 73.8322 105.673 74.7442 105.673C76.1842 105.673 76.8202 106.681 76.8202 108.361V112.549H75.0562V108.589C75.0562 107.533 74.7562 107.185 74.1082 107.185C73.5562 107.185 73.2082 107.449 72.7162 107.929V112.549H70.9522ZM80.6437 112.717C79.1917 112.717 78.5557 111.721 78.5557 110.029V105.841H80.3197V109.813C80.3197 110.845 80.6077 111.205 81.2677 111.205C81.8197 111.205 82.1797 110.965 82.6357 110.365V105.841H84.3877V112.549H82.9477L82.8157 111.589H82.7797C82.1917 112.273 81.5557 112.717 80.6437 112.717ZM86.2804 112.549V105.841H87.7084L87.8524 106.729H87.8884C88.4524 106.153 89.0764 105.673 89.9404 105.673C90.9124 105.673 91.4764 106.093 91.7884 106.837C92.4124 106.201 93.0604 105.673 93.9364 105.673C95.3644 105.673 96.0124 106.681 96.0124 108.361V112.549H94.2484V108.589C94.2484 107.533 93.9604 107.185 93.3124 107.185C92.9284 107.185 92.5084 107.425 92.0284 107.929V112.549H90.2644V108.589C90.2644 107.533 89.9644 107.185 89.3164 107.185C88.9444 107.185 88.5004 107.425 88.0444 107.929V112.549H86.2804ZM101.207 112.717C100.607 112.717 99.9588 112.405 99.4188 111.841H99.3708L99.2268 112.549H97.8468V102.985H99.6108V105.397L99.5508 106.465C100.091 105.997 100.751 105.673 101.423 105.673C103.067 105.673 104.063 107.017 104.063 109.081C104.063 111.397 102.683 112.717 101.207 112.717ZM100.823 111.265C101.627 111.265 102.251 110.569 102.251 109.117C102.251 107.821 101.855 107.113 100.919 107.113C100.475 107.113 100.055 107.341 99.6108 107.809V110.773C100.019 111.145 100.463 111.265 100.823 111.265ZM108.497 112.717C106.613 112.717 105.149 111.421 105.149 109.201C105.149 107.017 106.685 105.673 108.269 105.673C110.129 105.673 111.077 107.017 111.077 108.877C111.077 109.213 111.041 109.525 111.005 109.693H106.853C107.009 110.797 107.729 111.361 108.725 111.361C109.265 111.361 109.745 111.193 110.237 110.893L110.825 111.985C110.165 112.441 109.325 112.717 108.497 112.717ZM106.829 108.517H109.577C109.577 107.605 109.169 107.029 108.305 107.029C107.597 107.029 106.973 107.533 106.829 108.517ZM112.542 112.549V105.841H113.97L114.114 107.029H114.15C114.63 106.141 115.362 105.673 116.058 105.673C116.418 105.673 116.634 105.721 116.838 105.817L116.538 107.329C116.298 107.269 116.118 107.221 115.83 107.221C115.314 107.221 114.678 107.581 114.306 108.553V112.549H112.542ZM120.523 112.549V111.121H122.443V105.745H120.823V104.653C121.723 104.473 122.323 104.245 122.899 103.897H124.207V111.121H125.875V112.549H120.523ZM129.905 112.717C128.501 112.717 127.553 112.201 126.929 111.481L127.769 110.365C128.297 110.881 128.933 111.289 129.737 111.289C130.649 111.289 131.261 110.857 131.261 110.101C131.261 109.273 130.745 108.745 128.813 108.745V107.473C130.445 107.473 130.973 106.933 130.973 106.189C130.973 105.517 130.541 105.121 129.785 105.121C129.149 105.121 128.633 105.433 128.105 105.925L127.205 104.833C127.973 104.173 128.825 103.741 129.857 103.741C131.573 103.741 132.737 104.581 132.737 106.057C132.737 106.993 132.197 107.641 131.261 108.025V108.073C132.269 108.349 133.037 109.081 133.037 110.209C133.037 111.805 131.609 112.717 129.905 112.717ZM139.294 112.717C138.394 112.717 137.398 112.333 136.738 111.781L137.53 110.665C138.142 111.133 138.706 111.409 139.33 111.409C140.002 111.409 140.314 111.109 140.314 110.689C140.314 110.197 139.606 109.957 138.91 109.693C138.058 109.357 137.11 108.853 137.11 107.713C137.11 106.525 138.07 105.673 139.606 105.673C140.578 105.673 141.346 106.069 141.898 106.501L141.094 107.557C140.626 107.221 140.146 106.981 139.654 106.981C139.042 106.981 138.766 107.245 138.766 107.641C138.766 108.121 139.378 108.313 140.098 108.565C140.986 108.901 141.958 109.357 141.958 110.593C141.958 111.781 141.034 112.717 139.294 112.717ZM143.892 115.249C143.508 115.249 143.232 115.201 142.98 115.117L143.304 113.761C143.424 113.797 143.604 113.857 143.772 113.857C144.444 113.857 144.828 113.425 145.032 112.825L145.14 112.429L142.524 105.841H144.312L145.368 108.949C145.572 109.561 145.74 110.209 145.944 110.857H146.004C146.148 110.221 146.316 109.585 146.472 108.949L147.408 105.841H149.1L146.712 112.765C146.124 114.337 145.404 115.249 143.892 115.249ZM150.206 112.549V105.841H151.634L151.778 106.729H151.814C152.378 106.153 153.002 105.673 153.866 105.673C154.838 105.673 155.402 106.093 155.714 106.837C156.338 106.201 156.986 105.673 157.862 105.673C159.29 105.673 159.938 106.681 159.938 108.361V112.549H158.174V108.589C158.174 107.533 157.886 107.185 157.238 107.185C156.854 107.185 156.434 107.425 155.954 107.929V112.549H154.19V108.589C154.19 107.533 153.89 107.185 153.242 107.185C152.87 107.185 152.426 107.425 151.97 107.929V112.549H150.206ZM165.133 112.717C164.533 112.717 163.885 112.405 163.345 111.841H163.297L163.153 112.549H161.773V102.985H163.537V105.397L163.477 106.465C164.017 105.997 164.677 105.673 165.349 105.673C166.993 105.673 167.989 107.017 167.989 109.081C167.989 111.397 166.609 112.717 165.133 112.717ZM164.749 111.265C165.553 111.265 166.177 110.569 166.177 109.117C166.177 107.821 165.781 107.113 164.845 107.113C164.401 107.113 163.981 107.341 163.537 107.809V110.773C163.945 111.145 164.389 111.265 164.749 111.265ZM172.303 112.717C170.611 112.717 169.075 111.421 169.075 109.201C169.075 106.969 170.611 105.673 172.303 105.673C173.983 105.673 175.519 106.969 175.519 109.201C175.519 111.421 173.983 112.717 172.303 112.717ZM172.303 111.289C173.215 111.289 173.719 110.461 173.719 109.201C173.719 107.929 173.215 107.113 172.303 107.113C171.379 107.113 170.875 107.929 170.875 109.201C170.875 110.461 171.379 111.289 172.303 111.289ZM178.663 112.717C177.427 112.717 177.007 111.913 177.007 110.665V102.985H178.771V110.737C178.771 111.157 178.951 111.289 179.119 111.289C179.179 111.289 179.227 111.289 179.347 111.265L179.563 112.573C179.359 112.645 179.083 112.717 178.663 112.717ZM180.792 112.549V105.841H182.556V112.549H180.792ZM181.668 104.749C181.056 104.749 180.648 104.365 180.648 103.777C180.648 103.201 181.056 102.829 181.668 102.829C182.28 102.829 182.7 103.201 182.7 103.777C182.7 104.365 182.28 104.749 181.668 104.749ZM183.969 112.549V111.613L186.981 107.221H184.305V105.841H189.189V106.777L186.177 111.169H189.285V112.549H183.969ZM190.566 112.549V105.841H192.33V112.549H190.566ZM191.442 104.749C190.83 104.749 190.422 104.365 190.422 103.777C190.422 103.201 190.83 102.829 191.442 102.829C192.054 102.829 192.474 103.201 192.474 103.777C192.474 104.365 192.054 104.749 191.442 104.749ZM194.21 112.549V105.841H195.638L195.782 106.729H195.818C196.394 106.153 197.09 105.673 198.002 105.673C199.442 105.673 200.078 106.681 200.078 108.361V112.549H198.314V108.589C198.314 107.533 198.014 107.185 197.366 107.185C196.814 107.185 196.466 107.449 195.974 107.929V112.549H194.21ZM204.25 115.465C202.678 115.465 201.454 114.925 201.454 113.749C201.454 113.185 201.79 112.693 202.414 112.357V112.297C202.066 112.069 201.802 111.709 201.802 111.157C201.802 110.653 202.138 110.197 202.558 109.909V109.861C202.09 109.525 201.646 108.889 201.646 108.097C201.646 106.513 202.942 105.673 204.358 105.673C204.742 105.673 205.102 105.733 205.378 105.841H207.802V107.137H206.65C206.83 107.365 206.962 107.737 206.962 108.145C206.962 109.669 205.81 110.425 204.358 110.425C204.094 110.425 203.794 110.377 203.494 110.269C203.314 110.437 203.206 110.581 203.206 110.857C203.206 111.205 203.482 111.409 204.262 111.409H205.414C207.034 111.409 207.922 111.901 207.922 113.089C207.922 114.445 206.494 115.465 204.25 115.465ZM204.358 109.345C204.946 109.345 205.414 108.889 205.414 108.097C205.414 107.305 204.958 106.873 204.358 106.873C203.77 106.873 203.302 107.305 203.302 108.097C203.302 108.889 203.77 109.345 204.358 109.345ZM204.526 114.349C205.534 114.349 206.218 113.905 206.218 113.389C206.218 112.909 205.822 112.777 205.102 112.777H204.286C203.878 112.777 203.602 112.753 203.362 112.681C203.05 112.933 202.918 113.197 202.918 113.473C202.918 114.037 203.542 114.349 204.526 114.349ZM214.62 112.717C212.772 112.717 211.356 111.421 211.356 109.201C211.356 106.969 212.952 105.673 214.776 105.673C215.616 105.673 216.24 105.985 216.732 106.417L215.904 107.545C215.568 107.257 215.244 107.113 214.884 107.113C213.84 107.113 213.156 107.929 213.156 109.201C213.156 110.461 213.852 111.289 214.812 111.289C215.304 111.289 215.76 111.049 216.132 110.749L216.828 111.913C216.192 112.465 215.364 112.717 214.62 112.717ZM218.105 112.549V105.841H219.869V112.549H218.105ZM218.981 104.749C218.369 104.749 217.961 104.365 217.961 103.777C217.961 103.201 218.369 102.829 218.981 102.829C219.593 102.829 220.013 103.201 220.013 103.777C220.013 104.365 219.593 104.749 218.981 104.749ZM221.749 112.549V105.841H223.177L223.321 107.029H223.357C223.837 106.141 224.569 105.673 225.265 105.673C225.625 105.673 225.841 105.721 226.045 105.817L225.745 107.329C225.505 107.269 225.325 107.221 225.037 107.221C224.521 107.221 223.885 107.581 223.513 108.553V112.549H221.749ZM229.632 112.717C227.784 112.717 226.368 111.421 226.368 109.201C226.368 106.969 227.964 105.673 229.788 105.673C230.628 105.673 231.252 105.985 231.744 106.417L230.916 107.545C230.58 107.257 230.256 107.113 229.896 107.113C228.852 107.113 228.168 107.929 228.168 109.201C228.168 110.461 228.864 111.289 229.824 111.289C230.316 111.289 230.772 111.049 231.144 110.749L231.84 111.913C231.204 112.465 230.376 112.717 229.632 112.717ZM235.12 112.717C233.668 112.717 233.032 111.721 233.032 110.029V105.841H234.796V109.813C234.796 110.845 235.084 111.205 235.744 111.205C236.296 111.205 236.656 110.965 237.112 110.365V105.841H238.864V112.549H237.424L237.292 111.589H237.256C236.668 112.273 236.032 112.717 235.12 112.717ZM242.413 112.717C241.177 112.717 240.757 111.913 240.757 110.665V102.985H242.521V110.737C242.521 111.157 242.701 111.289 242.869 111.289C242.929 111.289 242.977 111.289 243.097 111.265L243.313 112.573C243.109 112.645 242.833 112.717 242.413 112.717ZM246.186 112.717C244.986 112.717 244.206 111.877 244.206 110.725C244.206 109.297 245.37 108.541 248.07 108.241C248.034 107.581 247.758 107.089 246.93 107.089C246.306 107.089 245.694 107.353 245.082 107.725L244.446 106.549C245.238 106.069 246.186 105.673 247.254 105.673C248.958 105.673 249.834 106.681 249.834 108.637V112.549H248.394L248.262 111.841H248.214C247.626 112.345 246.954 112.717 246.186 112.717ZM246.762 111.337C247.266 111.337 247.638 111.109 248.07 110.689V109.333C246.426 109.537 245.886 109.981 245.886 110.593C245.886 111.109 246.246 111.337 246.762 111.337ZM253.787 112.717C252.191 112.717 251.579 111.709 251.579 110.209V107.221H250.643V105.913L251.687 105.841L251.879 104.017H253.343V105.841H255.011V107.221H253.343V110.209C253.343 110.977 253.667 111.337 254.255 111.337C254.483 111.337 254.735 111.253 254.927 111.181L255.215 112.465C254.855 112.585 254.387 112.717 253.787 112.717ZM256.39 112.549V105.841H258.154V112.549H256.39ZM257.266 104.749C256.654 104.749 256.246 104.365 256.246 103.777C256.246 103.201 256.654 102.829 257.266 102.829C257.878 102.829 258.298 103.201 258.298 103.777C258.298 104.365 257.878 104.749 257.266 104.749ZM262.842 112.717C261.15 112.717 259.614 111.421 259.614 109.201C259.614 106.969 261.15 105.673 262.842 105.673C264.522 105.673 266.058 106.969 266.058 109.201C266.058 111.421 264.522 112.717 262.842 112.717ZM262.842 111.289C263.754 111.289 264.258 110.461 264.258 109.201C264.258 107.929 263.754 107.113 262.842 107.113C261.918 107.113 261.414 107.929 261.414 109.201C261.414 110.461 261.918 111.289 262.842 111.289ZM267.546 112.549V105.841H268.974L269.118 106.729H269.154C269.73 106.153 270.426 105.673 271.338 105.673C272.778 105.673 273.414 106.681 273.414 108.361V112.549H271.65V108.589C271.65 107.533 271.35 107.185 270.702 107.185C270.15 107.185 269.802 107.449 269.31 107.929V112.549H267.546Z" fill="black"/>
</g>
<defs>
<clipPath id="clip0_546_553">
<rect width="339" height="116" fill="white"/>
</clipPath>
</defs>
</svg>
