<svg width="133" height="129" viewBox="0 0 133 129" fill="none" xmlns="http://www.w3.org/2000/svg">
<path d="M65.3883 124.405C23.5604 124.405 2.64648 107.444 2.64648 73.5214C2.64648 55.0098 7.90927 41.4228 18.4349 32.7596C29.052 24.0965 44.932 19.7651 66.0747 19.7651C88.4985 19.7651 104.791 24.0512 114.95 32.6229C125.201 41.1035 130.327 53.6419 130.327 70.2385C130.327 88.9323 124.926 102.656 114.126 111.411C103.326 120.074 87.0801 124.405 65.3883 124.405ZM62.7798 79.5399H70.1934V64.6304H62.7798V79.5399Z" fill="#FFF48B"/>
<mask id="mask0_114_585" style="mask-type:luminance" maskUnits="userSpaceOnUse" x="0" y="17" width="133" height="112">
<path d="M133 17.0295H0V128.167H133V17.0295Z" fill="white"/>
<path d="M65.3883 124.405C23.5604 124.405 2.64648 107.444 2.64648 73.5214C2.64648 55.0098 7.90927 41.4228 18.4349 32.7596C29.052 24.0965 44.932 19.7651 66.0747 19.7651C88.4985 19.7651 104.791 24.0512 114.95 32.6229C125.201 41.1035 130.327 53.6419 130.327 70.2385C130.327 88.9323 124.926 102.656 114.126 111.411C103.326 120.074 87.0801 124.405 65.3883 124.405ZM62.7798 79.5399H70.1934V64.6304H62.7798V79.5399Z" fill="black"/>
</mask>
<g mask="url(#mask0_114_585)">
<path d="M18.4345 32.7597L17.0753 31.1063L17.0683 31.1119L18.4345 32.7597ZM114.95 32.6229L113.563 34.2541L113.579 34.2673L114.95 32.6229ZM114.126 111.411L115.471 113.076L115.48 113.069L114.126 111.411ZM62.7794 79.5399H60.6342V81.6772H62.7794V79.5399ZM70.1931 79.5399V81.6772H72.3382V79.5399H70.1931ZM70.1931 64.6304H72.3382V62.4932H70.1931V64.6304ZM62.7794 64.6304V62.4932H60.6342V64.6304H62.7794ZM65.3879 122.268C44.7099 122.268 29.5993 118.067 19.6858 110.027C9.85677 102.055 4.79132 90.0236 4.79132 73.5214H0.500977C0.500977 90.9418 5.89248 104.352 16.9773 113.342C27.9777 122.263 44.2379 126.542 65.3879 126.542V122.268ZM4.79132 73.5214C4.79132 55.4039 9.93014 42.5312 19.8008 34.4075L17.0683 31.1119C5.88771 40.314 0.500977 54.6161 0.500977 73.5214H4.79132ZM19.7937 34.4131C29.8683 26.1928 45.1723 21.9024 66.0744 21.9024V17.6279C44.6905 17.6279 28.235 22.0003 17.0753 31.1063L19.7937 34.4131ZM66.0744 21.9024C88.3103 21.9024 103.98 26.1684 113.563 34.2541L116.336 30.9918C105.6 21.9341 88.6865 17.6279 66.0744 17.6279V21.9024ZM113.579 34.2673C123.22 42.2427 128.181 54.1045 128.181 70.2386H132.471C132.471 53.1799 127.181 39.9644 116.32 30.9785L113.579 34.2673ZM128.181 70.2386C128.181 88.5275 122.912 101.534 112.772 109.753L115.48 113.069C126.94 103.779 132.471 89.3375 132.471 70.2386H128.181ZM112.781 109.746C102.525 117.972 86.8507 122.268 65.3879 122.268V126.542C87.3085 126.542 104.127 122.175 115.471 113.076L112.781 109.746ZM62.7794 81.6772H70.1931V77.4027H62.7794V81.6772ZM72.3382 79.5399V64.6304H68.0479V79.5399H72.3382ZM70.1931 62.4932H62.7794V66.7677H70.1931V62.4932ZM60.6342 64.6304V79.5399H64.9246V64.6304H60.6342Z" fill="black"/>
</g>
<path d="M49.3391 28.7843C57.0399 28.7843 63.2826 22.5646 63.2826 14.8922C63.2826 7.21973 57.0399 1 49.3391 1C41.6382 1 35.3955 7.21973 35.3955 14.8922C35.3955 22.5646 41.6382 28.7843 49.3391 28.7843Z" fill="white" stroke="black" stroke-width="0.5"/>
<path d="M83.6613 28.7843C91.3621 28.7843 97.6049 22.5646 97.6049 14.8922C97.6049 7.21973 91.3621 1 83.6613 1C75.9605 1 69.7178 7.21973 69.7178 14.8922C69.7178 22.5646 75.9605 28.7843 83.6613 28.7843Z" fill="white" stroke="black" stroke-width="0.5"/>
<path d="M49.3388 21.304C52.893 21.304 55.7743 18.4334 55.7743 14.8922C55.7743 11.3511 52.893 8.48047 49.3388 8.48047C45.7846 8.48047 42.9033 11.3511 42.9033 14.8922C42.9033 18.4334 45.7846 21.304 49.3388 21.304Z" fill="black"/>
<path d="M83.6611 21.304C87.2153 21.304 90.0966 18.4334 90.0966 14.8922C90.0966 11.3511 87.2153 8.48047 83.6611 8.48047C80.1068 8.48047 77.2256 11.3511 77.2256 14.8922C77.2256 18.4334 80.1068 21.304 83.6611 21.304Z" fill="black"/>
<rect x="59" y="61" width="14" height="21" fill="#FFF48B"/>
<path d="M59.0781 38.7588C59.0781 46.0135 70.5715 46.5819 70.5715 39.2377" stroke="black" stroke-width="3" stroke-linecap="round"/>
</svg>
