<svg width="39" height="59" viewBox="0 0 39 59" fill="none" xmlns="http://www.w3.org/2000/svg">
<path d="M13.548 35.2063C13.5911 34.6255 13.7278 34.0223 13.958 33.3966C14.4 32.1953 15.0514 31.3127 15.9125 30.7486C16.7985 30.1937 17.9875 29.6651 19.4794 29.1626C20.8778 28.6826 21.9687 28.1889 22.7521 27.6815C23.5605 27.1833 24.1534 26.4211 24.5309 25.395C24.9084 24.3689 24.8539 23.397 24.3675 22.4793C23.9154 21.5458 23.0511 20.8443 21.7747 20.3747C20.9989 20.0893 20.2633 20.0034 19.568 20.1169C18.8819 20.2055 18.2854 20.398 17.7785 20.6946C17.3059 20.9753 16.9596 21.26 16.7399 21.5485L13.6764 18.2904C14.3346 17.737 14.9823 17.2507 15.6195 16.8316C16.2818 16.4217 17.299 16.1282 18.6712 15.9511C20.0434 15.774 21.618 16.0123 23.3949 16.666C24.9966 17.2553 26.308 18.0929 27.3292 19.1789C28.3846 20.2491 29.0647 21.4512 29.3695 22.7852C29.6836 24.0941 29.6058 25.3867 29.1363 26.6631C28.7035 27.8394 28.1304 28.7793 27.417 29.4829C26.7035 30.1865 25.9531 30.7202 25.1657 31.084C24.4125 31.4321 23.4566 31.7907 22.2978 32.16C21.0113 32.5676 20.0462 32.9513 19.4023 33.3111C18.7585 33.6709 18.2939 34.2388 18.0085 35.0146C17.8243 35.5151 17.6514 36.0624 17.4897 36.6565L13.548 35.2063ZM12.6023 44.9596C11.8265 44.6742 11.2679 44.1845 10.9264 43.4907C10.6193 42.781 10.6038 42.0507 10.88 41.2999C11.1654 40.5241 11.6505 39.978 12.3351 39.6616C13.054 39.3293 13.8014 39.306 14.5772 39.5914C15.328 39.8676 15.8696 40.3651 16.2018 41.0841C16.5432 41.7779 16.5712 42.5128 16.2858 43.2886C16.0096 44.0394 15.512 44.5809 14.7931 44.9132C14.0834 45.2203 13.3531 45.2358 12.6023 44.9596Z" fill="black"/>
</svg>
